<svg xmlns="http://www.w3.org/2000/svg" width="822" height="430.58" viewBox="0 0 822 430.58">
  <g id="Grupo_89722" data-name="Grupo 89722" transform="translate(-394 -12079.42)">
    <path id="Trazado_196111" data-name="Trazado 196111" d="M10,0H147a10,10,0,0,1,10,10V74a10,10,0,0,1-10,10H10A10,10,0,0,1,0,74V10A10,10,0,0,1,10,0Z" transform="translate(394 12172)" fill="#fff"/>
    <path id="Trazado_196112" data-name="Trazado 196112" d="M11.065-4.166A4.621,4.621,0,0,1,9.554-.971,5.154,5.154,0,0,1,6.047.176,4.99,4.99,0,0,1,3.353-.549a4.759,4.759,0,0,1-1.8-2.061A7.438,7.438,0,0,1,.9-5.713v-1.2a7.491,7.491,0,0,1,.642-3.19,4.835,4.835,0,0,1,1.841-2.127,5.136,5.136,0,0,1,2.773-.747,4.934,4.934,0,0,1,3.41,1.151,4.81,4.81,0,0,1,1.5,3.252H8.851a3.161,3.161,0,0,0-.8-1.991,2.658,2.658,0,0,0-1.894-.611,2.6,2.6,0,0,0-2.228,1.059A5.289,5.289,0,0,0,3.129-7v1.134a5.611,5.611,0,0,0,.743,3.164,2.465,2.465,0,0,0,2.175,1.09,2.875,2.875,0,0,0,1.969-.589,3.071,3.071,0,0,0,.835-1.96ZM15.117,0H12.981V-13.5h2.136Zm4.6,0H17.578V-9.51h2.136ZM17.446-11.979a1.133,1.133,0,0,1,.312-.817,1.179,1.179,0,0,1,.892-.325,1.193,1.193,0,0,1,.9.325,1.125,1.125,0,0,1,.316.817,1.1,1.1,0,0,1-.316.8,1.2,1.2,0,0,1-.9.321,1.188,1.188,0,0,1-.892-.321A1.107,1.107,0,0,1,17.446-11.979ZM26.227.176A4.419,4.419,0,0,1,22.935-1.1a4.639,4.639,0,0,1-1.261-3.406v-.264a5.706,5.706,0,0,1,.549-2.544,4.181,4.181,0,0,1,1.542-1.745,4.078,4.078,0,0,1,2.215-.624,3.733,3.733,0,0,1,3,1.239,5.24,5.24,0,0,1,1.059,3.507v.861H23.827a2.856,2.856,0,0,0,.787,1.863,2.362,2.362,0,0,0,1.736.686A2.892,2.892,0,0,0,28.74-2.716l1.151,1.1A3.845,3.845,0,0,1,28.367-.294,4.774,4.774,0,0,1,26.227.176Zm-.255-8.147a1.8,1.8,0,0,0-1.419.615,3.189,3.189,0,0,0-.69,1.714h4.069V-5.8a2.6,2.6,0,0,0-.571-1.622A1.785,1.785,0,0,0,25.972-7.972ZM33.68-9.51l.062,1.1A3.419,3.419,0,0,1,36.51-9.686q2.971,0,3.023,3.4V0H37.4V-6.161a1.958,1.958,0,0,0-.391-1.34,1.645,1.645,0,0,0-1.279-.435A2.058,2.058,0,0,0,33.8-6.768V0H31.667V-9.51Zm10.705-2.312V-9.51h1.679v1.582H44.385v5.309a1.169,1.169,0,0,0,.215.787,1,1,0,0,0,.769.242,3.29,3.29,0,0,0,.747-.088V-.026a5.26,5.26,0,0,1-1.406.2q-2.461,0-2.461-2.716V-7.928H40.685V-9.51h1.564v-2.312Zm7.5,12A4.419,4.419,0,0,1,48.59-1.1a4.639,4.639,0,0,1-1.261-3.406v-.264a5.706,5.706,0,0,1,.549-2.544,4.181,4.181,0,0,1,1.542-1.745,4.078,4.078,0,0,1,2.215-.624,3.733,3.733,0,0,1,3,1.239A5.24,5.24,0,0,1,55.7-4.939v.861H49.482a2.856,2.856,0,0,0,.787,1.863A2.362,2.362,0,0,0,52-1.529,2.892,2.892,0,0,0,54.4-2.716l1.151,1.1A3.845,3.845,0,0,1,54.022-.294,4.774,4.774,0,0,1,51.882.176Zm-.255-8.147a1.8,1.8,0,0,0-1.419.615,3.189,3.189,0,0,0-.69,1.714h4.069V-5.8a2.6,2.6,0,0,0-.571-1.622A1.785,1.785,0,0,0,51.627-7.972ZM67.482,0H65.355V-10.274L62.218-9.2V-11l4.992-1.837h.272Z" transform="translate(437 12220.5)" fill="#12263f"/>
    <path id="Trazado_196113" data-name="Trazado 196113" d="M10,0H147a10,10,0,0,1,10,10V74a10,10,0,0,1-10,10H10A10,10,0,0,1,0,74V10A10,10,0,0,1,10,0Z" transform="translate(394 12280)" fill="#fff"/>
    <path id="Trazado_196114" data-name="Trazado 196114" d="M11.065-4.166A4.621,4.621,0,0,1,9.554-.971,5.154,5.154,0,0,1,6.047.176,4.99,4.99,0,0,1,3.353-.549a4.759,4.759,0,0,1-1.8-2.061A7.438,7.438,0,0,1,.9-5.713v-1.2a7.491,7.491,0,0,1,.642-3.19,4.835,4.835,0,0,1,1.841-2.127,5.136,5.136,0,0,1,2.773-.747,4.934,4.934,0,0,1,3.41,1.151,4.81,4.81,0,0,1,1.5,3.252H8.851a3.161,3.161,0,0,0-.8-1.991,2.658,2.658,0,0,0-1.894-.611,2.6,2.6,0,0,0-2.228,1.059A5.289,5.289,0,0,0,3.129-7v1.134a5.611,5.611,0,0,0,.743,3.164,2.465,2.465,0,0,0,2.175,1.09,2.875,2.875,0,0,0,1.969-.589,3.071,3.071,0,0,0,.835-1.96ZM15.117,0H12.981V-13.5h2.136Zm4.6,0H17.578V-9.51h2.136ZM17.446-11.979a1.133,1.133,0,0,1,.312-.817,1.179,1.179,0,0,1,.892-.325,1.193,1.193,0,0,1,.9.325,1.125,1.125,0,0,1,.316.817,1.1,1.1,0,0,1-.316.8,1.2,1.2,0,0,1-.9.321,1.188,1.188,0,0,1-.892-.321A1.107,1.107,0,0,1,17.446-11.979ZM26.227.176A4.419,4.419,0,0,1,22.935-1.1a4.639,4.639,0,0,1-1.261-3.406v-.264a5.706,5.706,0,0,1,.549-2.544,4.181,4.181,0,0,1,1.542-1.745,4.078,4.078,0,0,1,2.215-.624,3.733,3.733,0,0,1,3,1.239,5.24,5.24,0,0,1,1.059,3.507v.861H23.827a2.856,2.856,0,0,0,.787,1.863,2.362,2.362,0,0,0,1.736.686A2.892,2.892,0,0,0,28.74-2.716l1.151,1.1A3.845,3.845,0,0,1,28.367-.294,4.774,4.774,0,0,1,26.227.176Zm-.255-8.147a1.8,1.8,0,0,0-1.419.615,3.189,3.189,0,0,0-.69,1.714h4.069V-5.8a2.6,2.6,0,0,0-.571-1.622A1.785,1.785,0,0,0,25.972-7.972ZM33.68-9.51l.062,1.1A3.419,3.419,0,0,1,36.51-9.686q2.971,0,3.023,3.4V0H37.4V-6.161a1.958,1.958,0,0,0-.391-1.34,1.645,1.645,0,0,0-1.279-.435A2.058,2.058,0,0,0,33.8-6.768V0H31.667V-9.51Zm10.705-2.312V-9.51h1.679v1.582H44.385v5.309a1.169,1.169,0,0,0,.215.787,1,1,0,0,0,.769.242,3.29,3.29,0,0,0,.747-.088V-.026a5.26,5.26,0,0,1-1.406.2q-2.461,0-2.461-2.716V-7.928H40.685V-9.51h1.564v-2.312Zm7.5,12A4.419,4.419,0,0,1,48.59-1.1a4.639,4.639,0,0,1-1.261-3.406v-.264a5.706,5.706,0,0,1,.549-2.544,4.181,4.181,0,0,1,1.542-1.745,4.078,4.078,0,0,1,2.215-.624,3.733,3.733,0,0,1,3,1.239A5.24,5.24,0,0,1,55.7-4.939v.861H49.482a2.856,2.856,0,0,0,.787,1.863A2.362,2.362,0,0,0,52-1.529,2.892,2.892,0,0,0,54.4-2.716l1.151,1.1A3.845,3.845,0,0,1,54.022-.294,4.774,4.774,0,0,1,51.882.176Zm-.255-8.147a1.8,1.8,0,0,0-1.419.615,3.189,3.189,0,0,0-.69,1.714h4.069V-5.8a2.6,2.6,0,0,0-.571-1.622A1.785,1.785,0,0,0,51.627-7.972ZM70.3,0H61.7V-1.468l4.263-4.649a10.615,10.615,0,0,0,1.314-1.718,2.784,2.784,0,0,0,.391-1.384,2.1,2.1,0,0,0-.514-1.477,1.783,1.783,0,0,0-1.384-.562,2.056,2.056,0,0,0-1.608.633,2.489,2.489,0,0,0-.571,1.731H61.453a4.186,4.186,0,0,1,.532-2.1,3.662,3.662,0,0,1,1.521-1.455,4.84,4.84,0,0,1,2.281-.519,4.329,4.329,0,0,1,2.94.936A3.249,3.249,0,0,1,69.8-9.448a4.392,4.392,0,0,1-.541,2.008,11.42,11.42,0,0,1-1.771,2.386L64.362-1.705H70.3Z" transform="translate(437 12328.5)" fill="#12263f"/>
    <path id="Trazado_196115" data-name="Trazado 196115" d="M10,0H637a10,10,0,0,1,10,10V364a10,10,0,0,1-10,10H10A10,10,0,0,1,0,364V10A10,10,0,0,1,10,0Z" transform="translate(569 12136)" fill="#95ebd1"/>
    <path id="Trazado_196116" data-name="Trazado 196116" d="M10,0H204a10,10,0,0,1,10,10v94a10,10,0,0,1-10,10H10A10,10,0,0,1,0,104V10A10,10,0,0,1,10,0Z" transform="translate(616 12156)" fill="#fff"/>
    <path id="Trazado_196117" data-name="Trazado 196117" d="M11.065-4.166A4.621,4.621,0,0,1,9.554-.971,5.154,5.154,0,0,1,6.047.176,4.99,4.99,0,0,1,3.353-.549a4.759,4.759,0,0,1-1.8-2.061A7.438,7.438,0,0,1,.9-5.713v-1.2a7.491,7.491,0,0,1,.642-3.19,4.835,4.835,0,0,1,1.841-2.127,5.136,5.136,0,0,1,2.773-.747,4.934,4.934,0,0,1,3.41,1.151,4.81,4.81,0,0,1,1.5,3.252H8.851a3.161,3.161,0,0,0-.8-1.991,2.658,2.658,0,0,0-1.894-.611,2.6,2.6,0,0,0-2.228,1.059A5.289,5.289,0,0,0,3.129-7v1.134a5.611,5.611,0,0,0,.743,3.164,2.465,2.465,0,0,0,2.175,1.09,2.875,2.875,0,0,0,1.969-.589,3.071,3.071,0,0,0,.835-1.96Zm1.38-.677A5.607,5.607,0,0,1,13-7.361a4.044,4.044,0,0,1,1.556-1.723,4.383,4.383,0,0,1,2.3-.6,4.154,4.154,0,0,1,3.125,1.239,4.874,4.874,0,0,1,1.3,3.287l.009.5a5.658,5.658,0,0,1-.541,2.514A4,4,0,0,1,19.2-.431a4.415,4.415,0,0,1-2.325.606,4.125,4.125,0,0,1-3.221-1.34,5.133,5.133,0,0,1-1.208-3.573Zm2.136.185a3.832,3.832,0,0,0,.606,2.3,1.971,1.971,0,0,0,1.688.831,1.95,1.95,0,0,0,1.683-.844,4.232,4.232,0,0,0,.6-2.47,3.782,3.782,0,0,0-.62-2.285,1.979,1.979,0,0,0-1.683-.844,1.96,1.96,0,0,0-1.661.831A4.152,4.152,0,0,0,14.581-4.658ZM25.075-9.51l.062,1.1a3.419,3.419,0,0,1,2.769-1.274q2.971,0,3.023,3.4V0H28.793V-6.161A1.958,1.958,0,0,0,28.4-7.5a1.645,1.645,0,0,0-1.279-.435A2.058,2.058,0,0,0,25.2-6.768V0H23.063V-9.51ZM35.78-11.821V-9.51h1.679v1.582H35.78v5.309A1.169,1.169,0,0,0,36-1.833a1,1,0,0,0,.769.242,3.29,3.29,0,0,0,.747-.088V-.026a5.26,5.26,0,0,1-1.406.2q-2.461,0-2.461-2.716V-7.928H32.08V-9.51h1.564v-2.312Zm7.5,12A4.419,4.419,0,0,1,39.986-1.1a4.639,4.639,0,0,1-1.261-3.406v-.264a5.706,5.706,0,0,1,.549-2.544,4.181,4.181,0,0,1,1.542-1.745,4.078,4.078,0,0,1,2.215-.624,3.733,3.733,0,0,1,3,1.239,5.24,5.24,0,0,1,1.059,3.507v.861H40.878a2.856,2.856,0,0,0,.787,1.863,2.362,2.362,0,0,0,1.736.686,2.892,2.892,0,0,0,2.391-1.187l1.151,1.1A3.845,3.845,0,0,1,45.417-.294,4.774,4.774,0,0,1,43.277.176Zm-.255-8.147a1.8,1.8,0,0,0-1.419.615,3.189,3.189,0,0,0-.69,1.714h4.069V-5.8a2.6,2.6,0,0,0-.571-1.622A1.785,1.785,0,0,0,43.022-7.972ZM50.73-9.51l.062,1.1a3.419,3.419,0,0,1,2.769-1.274q2.971,0,3.023,3.4V0H54.448V-6.161a1.958,1.958,0,0,0-.391-1.34,1.645,1.645,0,0,0-1.279-.435,2.058,2.058,0,0,0-1.925,1.169V0H48.718V-9.51ZM62.947.176A4.419,4.419,0,0,1,59.656-1.1a4.639,4.639,0,0,1-1.261-3.406v-.264a5.706,5.706,0,0,1,.549-2.544,4.181,4.181,0,0,1,1.542-1.745A4.078,4.078,0,0,1,62.7-9.686a3.733,3.733,0,0,1,3,1.239,5.24,5.24,0,0,1,1.059,3.507v.861H60.548a2.856,2.856,0,0,0,.787,1.863,2.362,2.362,0,0,0,1.736.686,2.892,2.892,0,0,0,2.391-1.187l1.151,1.1A3.845,3.845,0,0,1,65.087-.294,4.774,4.774,0,0,1,62.947.176Zm-.255-8.147a1.8,1.8,0,0,0-1.419.615,3.189,3.189,0,0,0-.69,1.714h4.069V-5.8a2.6,2.6,0,0,0-.571-1.622A1.785,1.785,0,0,0,62.692-7.972Zm5.326,3.146a5.654,5.654,0,0,1,1.02-3.529,3.267,3.267,0,0,1,2.733-1.332,3.1,3.1,0,0,1,2.443,1.055V-13.5h2.136V0H74.417l-.105-.984A3.148,3.148,0,0,1,71.754.176a3.248,3.248,0,0,1-2.7-1.345A5.861,5.861,0,0,1,68.019-4.825Zm2.136.185a3.958,3.958,0,0,0,.558,2.263,1.811,1.811,0,0,0,1.586.813,2.017,2.017,0,0,0,1.916-1.169V-6.794a1.986,1.986,0,0,0-1.9-1.143,1.824,1.824,0,0,0-1.6.822A4.408,4.408,0,0,0,70.154-4.641Zm8.024-.2a5.607,5.607,0,0,1,.554-2.518,4.044,4.044,0,0,1,1.556-1.723,4.383,4.383,0,0,1,2.3-.6,4.154,4.154,0,0,1,3.125,1.239,4.874,4.874,0,0,1,1.3,3.287l.009.5a5.658,5.658,0,0,1-.541,2.514A4,4,0,0,1,84.933-.431a4.415,4.415,0,0,1-2.325.606,4.125,4.125,0,0,1-3.221-1.34,5.133,5.133,0,0,1-1.208-3.573Zm2.136.185a3.832,3.832,0,0,0,.606,2.3,1.971,1.971,0,0,0,1.688.831,1.95,1.95,0,0,0,1.683-.844,4.232,4.232,0,0,0,.6-2.47,3.782,3.782,0,0,0-.62-2.285,1.979,1.979,0,0,0-1.683-.844,1.96,1.96,0,0,0-1.661.831A4.152,4.152,0,0,0,80.314-4.658Zm13.491-2.9a5.285,5.285,0,0,0-.87-.07A1.959,1.959,0,0,0,90.958-6.5V0H88.822V-9.51h2.039l.053,1.063a2.406,2.406,0,0,1,2.145-1.239,2,2,0,0,1,.756.123ZM105.284,0h-2.127V-10.274L100.02-9.2V-11l4.992-1.837h.272Z" transform="translate(659 12204.5)" fill="#12263f"/>
    <path id="Trazado_196118" data-name="Trazado 196118" d="M10,0H147a10,10,0,0,1,10,10V74a10,10,0,0,1-10,10H10A10,10,0,0,1,0,74V10A10,10,0,0,1,10,0Z" transform="translate(706 12228)" fill="#ffe28f"/>
    <path id="Trazado_196119" data-name="Trazado 196119" d="M7.989-3.3A1.545,1.545,0,0,0,7.4-4.6a7.138,7.138,0,0,0-2.14-.923A10.335,10.335,0,0,1,2.795-6.557,3.284,3.284,0,0,1,1.046-9.422a3.118,3.118,0,0,1,1.261-2.549,5.1,5.1,0,0,1,3.274-1,5.53,5.53,0,0,1,2.382.492,3.909,3.909,0,0,1,1.644,1.4,3.6,3.6,0,0,1,.6,2.017H7.989a2.005,2.005,0,0,0-.628-1.569,2.594,2.594,0,0,0-1.8-.567,2.709,2.709,0,0,0-1.692.466,1.551,1.551,0,0,0-.6,1.3,1.4,1.4,0,0,0,.65,1.173,7.493,7.493,0,0,0,2.145.914,9.865,9.865,0,0,1,2.4,1.011,3.816,3.816,0,0,1,1.327,1.3,3.388,3.388,0,0,1,.422,1.718A3.045,3.045,0,0,1,8.987-.769,5.318,5.318,0,0,1,5.66.176,6.251,6.251,0,0,1,3.107-.338,4.289,4.289,0,0,1,1.3-1.758,3.537,3.537,0,0,1,.65-3.867H2.874A2.07,2.07,0,0,0,3.595-2.18a3.156,3.156,0,0,0,2.065.6A2.742,2.742,0,0,0,7.4-2.052,1.517,1.517,0,0,0,7.989-3.3ZM16.146.176A4.419,4.419,0,0,1,12.854-1.1a4.639,4.639,0,0,1-1.261-3.406v-.264a5.706,5.706,0,0,1,.549-2.544,4.181,4.181,0,0,1,1.542-1.745A4.078,4.078,0,0,1,15.9-9.686a3.733,3.733,0,0,1,3,1.239A5.24,5.24,0,0,1,19.96-4.939v.861H13.746a2.856,2.856,0,0,0,.787,1.863,2.362,2.362,0,0,0,1.736.686,2.892,2.892,0,0,0,2.391-1.187l1.151,1.1A3.845,3.845,0,0,1,18.286-.294,4.774,4.774,0,0,1,16.146.176Zm-.255-8.147a1.8,1.8,0,0,0-1.419.615,3.189,3.189,0,0,0-.69,1.714h4.069V-5.8a2.6,2.6,0,0,0-.571-1.622A1.785,1.785,0,0,0,15.891-7.972ZM26.6-7.559a5.285,5.285,0,0,0-.87-.07A1.959,1.959,0,0,0,23.748-6.5V0H21.612V-9.51h2.039L23.7-8.446a2.406,2.406,0,0,1,2.145-1.239,2,2,0,0,1,.756.123Zm4.86,4.852,2.013-6.8h2.206L32.379,0H30.524L27.2-9.51h2.215ZM39.278,0H37.143V-9.51h2.136ZM37.011-11.979a1.133,1.133,0,0,1,.312-.817,1.179,1.179,0,0,1,.892-.325,1.193,1.193,0,0,1,.9.325,1.125,1.125,0,0,1,.316.817,1.1,1.1,0,0,1-.316.8,1.2,1.2,0,0,1-.9.321,1.188,1.188,0,0,1-.892-.321A1.107,1.107,0,0,1,37.011-11.979Zm8.5,10.45A1.931,1.931,0,0,0,46.837-2,1.591,1.591,0,0,0,47.4-3.146h2.013a3.137,3.137,0,0,1-.554,1.657A3.632,3.632,0,0,1,47.452-.272a4.191,4.191,0,0,1-1.916.448,4.055,4.055,0,0,1-3.164-1.292A5.124,5.124,0,0,1,41.2-4.685V-4.9a5.039,5.039,0,0,1,1.16-3.476,4.018,4.018,0,0,1,3.164-1.305,3.907,3.907,0,0,1,2.764.989,3.542,3.542,0,0,1,1.121,2.6H47.4a1.956,1.956,0,0,0-.558-1.345,1.8,1.8,0,0,0-1.332-.527,1.879,1.879,0,0,0-1.6.751,3.834,3.834,0,0,0-.571,2.281V-4.6A3.9,3.9,0,0,0,43.9-2.29,1.878,1.878,0,0,0,45.51-1.529ZM53.3,0H51.161V-9.51H53.3ZM51.029-11.979a1.133,1.133,0,0,1,.312-.817,1.179,1.179,0,0,1,.892-.325,1.193,1.193,0,0,1,.9.325,1.125,1.125,0,0,1,.316.817,1.1,1.1,0,0,1-.316.8,1.2,1.2,0,0,1-.9.321,1.188,1.188,0,0,1-.892-.321A1.107,1.107,0,0,1,51.029-11.979Zm4.192,7.137a5.607,5.607,0,0,1,.554-2.518,4.044,4.044,0,0,1,1.556-1.723,4.383,4.383,0,0,1,2.3-.6,4.154,4.154,0,0,1,3.125,1.239,4.874,4.874,0,0,1,1.3,3.287l.009.5a5.658,5.658,0,0,1-.541,2.514A4,4,0,0,1,61.976-.431a4.415,4.415,0,0,1-2.325.606,4.125,4.125,0,0,1-3.221-1.34,5.133,5.133,0,0,1-1.208-3.573Zm2.136.185a3.832,3.832,0,0,0,.606,2.3,1.971,1.971,0,0,0,1.688.831,1.95,1.95,0,0,0,1.683-.844,4.232,4.232,0,0,0,.6-2.47,3.782,3.782,0,0,0-.62-2.285,1.979,1.979,0,0,0-1.683-.844,1.96,1.96,0,0,0-1.661.831A4.152,4.152,0,0,0,57.357-4.658ZM76,0H73.872V-10.274L70.734-9.2V-11l4.992-1.837H76Z" transform="translate(749 12276.5)" fill="#12263f"/>
    <path id="Trazado_196120" data-name="Trazado 196120" d="M10,0H204a10,10,0,0,1,10,10v94a10,10,0,0,1-10,10H10A10,10,0,0,1,0,104V10A10,10,0,0,1,10,0Z" transform="translate(616 12321)" fill="#fff"/>
    <path id="Trazado_196122" data-name="Trazado 196122" d="M10,0H147a10,10,0,0,1,10,10V74a10,10,0,0,1-10,10H10A10,10,0,0,1,0,74V10A10,10,0,0,1,10,0Z" transform="translate(706 12393)" fill="#ffe28f"/>
    <path id="Trazado_196123" data-name="Trazado 196123" d="M7.989-3.3A1.545,1.545,0,0,0,7.4-4.6a7.138,7.138,0,0,0-2.14-.923A10.335,10.335,0,0,1,2.795-6.557,3.284,3.284,0,0,1,1.046-9.422a3.118,3.118,0,0,1,1.261-2.549,5.1,5.1,0,0,1,3.274-1,5.53,5.53,0,0,1,2.382.492,3.909,3.909,0,0,1,1.644,1.4,3.6,3.6,0,0,1,.6,2.017H7.989a2.005,2.005,0,0,0-.628-1.569,2.594,2.594,0,0,0-1.8-.567,2.709,2.709,0,0,0-1.692.466,1.551,1.551,0,0,0-.6,1.3,1.4,1.4,0,0,0,.65,1.173,7.493,7.493,0,0,0,2.145.914,9.865,9.865,0,0,1,2.4,1.011,3.816,3.816,0,0,1,1.327,1.3,3.388,3.388,0,0,1,.422,1.718A3.045,3.045,0,0,1,8.987-.769,5.318,5.318,0,0,1,5.66.176,6.251,6.251,0,0,1,3.107-.338,4.289,4.289,0,0,1,1.3-1.758,3.537,3.537,0,0,1,.65-3.867H2.874A2.07,2.07,0,0,0,3.595-2.18a3.156,3.156,0,0,0,2.065.6A2.742,2.742,0,0,0,7.4-2.052,1.517,1.517,0,0,0,7.989-3.3ZM16.146.176A4.419,4.419,0,0,1,12.854-1.1a4.639,4.639,0,0,1-1.261-3.406v-.264a5.706,5.706,0,0,1,.549-2.544,4.181,4.181,0,0,1,1.542-1.745A4.078,4.078,0,0,1,15.9-9.686a3.733,3.733,0,0,1,3,1.239A5.24,5.24,0,0,1,19.96-4.939v.861H13.746a2.856,2.856,0,0,0,.787,1.863,2.362,2.362,0,0,0,1.736.686,2.892,2.892,0,0,0,2.391-1.187l1.151,1.1A3.845,3.845,0,0,1,18.286-.294,4.774,4.774,0,0,1,16.146.176Zm-.255-8.147a1.8,1.8,0,0,0-1.419.615,3.189,3.189,0,0,0-.69,1.714h4.069V-5.8a2.6,2.6,0,0,0-.571-1.622A1.785,1.785,0,0,0,15.891-7.972ZM26.6-7.559a5.285,5.285,0,0,0-.87-.07A1.959,1.959,0,0,0,23.748-6.5V0H21.612V-9.51h2.039L23.7-8.446a2.406,2.406,0,0,1,2.145-1.239,2,2,0,0,1,.756.123Zm4.86,4.852,2.013-6.8h2.206L32.379,0H30.524L27.2-9.51h2.215ZM39.278,0H37.143V-9.51h2.136ZM37.011-11.979a1.133,1.133,0,0,1,.312-.817,1.179,1.179,0,0,1,.892-.325,1.193,1.193,0,0,1,.9.325,1.125,1.125,0,0,1,.316.817,1.1,1.1,0,0,1-.316.8,1.2,1.2,0,0,1-.9.321,1.188,1.188,0,0,1-.892-.321A1.107,1.107,0,0,1,37.011-11.979Zm8.5,10.45A1.931,1.931,0,0,0,46.837-2,1.591,1.591,0,0,0,47.4-3.146h2.013a3.137,3.137,0,0,1-.554,1.657A3.632,3.632,0,0,1,47.452-.272a4.191,4.191,0,0,1-1.916.448,4.055,4.055,0,0,1-3.164-1.292A5.124,5.124,0,0,1,41.2-4.685V-4.9a5.039,5.039,0,0,1,1.16-3.476,4.018,4.018,0,0,1,3.164-1.305,3.907,3.907,0,0,1,2.764.989,3.542,3.542,0,0,1,1.121,2.6H47.4a1.956,1.956,0,0,0-.558-1.345,1.8,1.8,0,0,0-1.332-.527,1.879,1.879,0,0,0-1.6.751,3.834,3.834,0,0,0-.571,2.281V-4.6A3.9,3.9,0,0,0,43.9-2.29,1.878,1.878,0,0,0,45.51-1.529ZM53.3,0H51.161V-9.51H53.3ZM51.029-11.979a1.133,1.133,0,0,1,.312-.817,1.179,1.179,0,0,1,.892-.325,1.193,1.193,0,0,1,.9.325,1.125,1.125,0,0,1,.316.817,1.1,1.1,0,0,1-.316.8,1.2,1.2,0,0,1-.9.321,1.188,1.188,0,0,1-.892-.321A1.107,1.107,0,0,1,51.029-11.979Zm4.192,7.137a5.607,5.607,0,0,1,.554-2.518,4.044,4.044,0,0,1,1.556-1.723,4.383,4.383,0,0,1,2.3-.6,4.154,4.154,0,0,1,3.125,1.239,4.874,4.874,0,0,1,1.3,3.287l.009.5a5.658,5.658,0,0,1-.541,2.514A4,4,0,0,1,61.976-.431a4.415,4.415,0,0,1-2.325.606,4.125,4.125,0,0,1-3.221-1.34,5.133,5.133,0,0,1-1.208-3.573Zm2.136.185a3.832,3.832,0,0,0,.606,2.3,1.971,1.971,0,0,0,1.688.831,1.95,1.95,0,0,0,1.683-.844,4.232,4.232,0,0,0,.6-2.47,3.782,3.782,0,0,0-.62-2.285,1.979,1.979,0,0,0-1.683-.844,1.96,1.96,0,0,0-1.661.831A4.152,4.152,0,0,0,57.357-4.658ZM72.686-7.374h1.3a2.328,2.328,0,0,0,1.56-.51,1.819,1.819,0,0,0,.576-1.45,1.982,1.982,0,0,0-.479-1.419,1.928,1.928,0,0,0-1.463-.505,2.039,2.039,0,0,0-1.415.5,1.659,1.659,0,0,0-.554,1.3H70.075a3.233,3.233,0,0,1,.523-1.793,3.513,3.513,0,0,1,1.459-1.261,4.753,4.753,0,0,1,2.1-.453,4.4,4.4,0,0,1,3.01.962,3.377,3.377,0,0,1,1.094,2.676,2.719,2.719,0,0,1-.549,1.622,3.445,3.445,0,0,1-1.419,1.147,3.14,3.14,0,0,1,1.6,1.134,3.1,3.1,0,0,1,.549,1.846A3.437,3.437,0,0,1,77.26-.844,4.59,4.59,0,0,1,74.153.176,4.555,4.555,0,0,1,71.13-.809a3.242,3.242,0,0,1-1.178-2.619h2.136a1.787,1.787,0,0,0,.567,1.371,2.15,2.15,0,0,0,1.525.527,2.217,2.217,0,0,0,1.564-.527,1.978,1.978,0,0,0,.571-1.529,2,2,0,0,0-.6-1.556,2.555,2.555,0,0,0-1.775-.545H72.686Z" transform="translate(749 12441.5)" fill="#12263f"/>
    <path id="Trazado_196124" data-name="Trazado 196124" d="M10,0H204a10,10,0,0,1,10,10v94a10,10,0,0,1-10,10H10A10,10,0,0,1,0,104V10A10,10,0,0,1,10,0Z" transform="translate(927 12156)" fill="#fff"/>
    <path id="Trazado_196125" data-name="Trazado 196125" d="M11.065-4.166A4.621,4.621,0,0,1,9.554-.971,5.154,5.154,0,0,1,6.047.176,4.99,4.99,0,0,1,3.353-.549a4.759,4.759,0,0,1-1.8-2.061A7.438,7.438,0,0,1,.9-5.713v-1.2a7.491,7.491,0,0,1,.642-3.19,4.835,4.835,0,0,1,1.841-2.127,5.136,5.136,0,0,1,2.773-.747,4.934,4.934,0,0,1,3.41,1.151,4.81,4.81,0,0,1,1.5,3.252H8.851a3.161,3.161,0,0,0-.8-1.991,2.658,2.658,0,0,0-1.894-.611,2.6,2.6,0,0,0-2.228,1.059A5.289,5.289,0,0,0,3.129-7v1.134a5.611,5.611,0,0,0,.743,3.164,2.465,2.465,0,0,0,2.175,1.09,2.875,2.875,0,0,0,1.969-.589,3.071,3.071,0,0,0,.835-1.96Zm1.38-.677A5.607,5.607,0,0,1,13-7.361a4.044,4.044,0,0,1,1.556-1.723,4.383,4.383,0,0,1,2.3-.6,4.154,4.154,0,0,1,3.125,1.239,4.874,4.874,0,0,1,1.3,3.287l.009.5a5.658,5.658,0,0,1-.541,2.514A4,4,0,0,1,19.2-.431a4.415,4.415,0,0,1-2.325.606,4.125,4.125,0,0,1-3.221-1.34,5.133,5.133,0,0,1-1.208-3.573Zm2.136.185a3.832,3.832,0,0,0,.606,2.3,1.971,1.971,0,0,0,1.688.831,1.95,1.95,0,0,0,1.683-.844,4.232,4.232,0,0,0,.6-2.47,3.782,3.782,0,0,0-.62-2.285,1.979,1.979,0,0,0-1.683-.844,1.96,1.96,0,0,0-1.661.831A4.152,4.152,0,0,0,14.581-4.658ZM25.075-9.51l.062,1.1a3.419,3.419,0,0,1,2.769-1.274q2.971,0,3.023,3.4V0H28.793V-6.161A1.958,1.958,0,0,0,28.4-7.5a1.645,1.645,0,0,0-1.279-.435A2.058,2.058,0,0,0,25.2-6.768V0H23.063V-9.51ZM35.78-11.821V-9.51h1.679v1.582H35.78v5.309A1.169,1.169,0,0,0,36-1.833a1,1,0,0,0,.769.242,3.29,3.29,0,0,0,.747-.088V-.026a5.26,5.26,0,0,1-1.406.2q-2.461,0-2.461-2.716V-7.928H32.08V-9.51h1.564v-2.312Zm7.5,12A4.419,4.419,0,0,1,39.986-1.1a4.639,4.639,0,0,1-1.261-3.406v-.264a5.706,5.706,0,0,1,.549-2.544,4.181,4.181,0,0,1,1.542-1.745,4.078,4.078,0,0,1,2.215-.624,3.733,3.733,0,0,1,3,1.239,5.24,5.24,0,0,1,1.059,3.507v.861H40.878a2.856,2.856,0,0,0,.787,1.863,2.362,2.362,0,0,0,1.736.686,2.892,2.892,0,0,0,2.391-1.187l1.151,1.1A3.845,3.845,0,0,1,45.417-.294,4.774,4.774,0,0,1,43.277.176Zm-.255-8.147a1.8,1.8,0,0,0-1.419.615,3.189,3.189,0,0,0-.69,1.714h4.069V-5.8a2.6,2.6,0,0,0-.571-1.622A1.785,1.785,0,0,0,43.022-7.972ZM50.73-9.51l.062,1.1a3.419,3.419,0,0,1,2.769-1.274q2.971,0,3.023,3.4V0H54.448V-6.161a1.958,1.958,0,0,0-.391-1.34,1.645,1.645,0,0,0-1.279-.435,2.058,2.058,0,0,0-1.925,1.169V0H48.718V-9.51ZM62.947.176A4.419,4.419,0,0,1,59.656-1.1a4.639,4.639,0,0,1-1.261-3.406v-.264a5.706,5.706,0,0,1,.549-2.544,4.181,4.181,0,0,1,1.542-1.745A4.078,4.078,0,0,1,62.7-9.686a3.733,3.733,0,0,1,3,1.239,5.24,5.24,0,0,1,1.059,3.507v.861H60.548a2.856,2.856,0,0,0,.787,1.863,2.362,2.362,0,0,0,1.736.686,2.892,2.892,0,0,0,2.391-1.187l1.151,1.1A3.845,3.845,0,0,1,65.087-.294,4.774,4.774,0,0,1,62.947.176Zm-.255-8.147a1.8,1.8,0,0,0-1.419.615,3.189,3.189,0,0,0-.69,1.714h4.069V-5.8a2.6,2.6,0,0,0-.571-1.622A1.785,1.785,0,0,0,62.692-7.972Zm5.326,3.146a5.654,5.654,0,0,1,1.02-3.529,3.267,3.267,0,0,1,2.733-1.332,3.1,3.1,0,0,1,2.443,1.055V-13.5h2.136V0H74.417l-.105-.984A3.148,3.148,0,0,1,71.754.176a3.248,3.248,0,0,1-2.7-1.345A5.861,5.861,0,0,1,68.019-4.825Zm2.136.185a3.958,3.958,0,0,0,.558,2.263,1.811,1.811,0,0,0,1.586.813,2.017,2.017,0,0,0,1.916-1.169V-6.794a1.986,1.986,0,0,0-1.9-1.143,1.824,1.824,0,0,0-1.6.822A4.408,4.408,0,0,0,70.154-4.641Zm8.024-.2a5.607,5.607,0,0,1,.554-2.518,4.044,4.044,0,0,1,1.556-1.723,4.383,4.383,0,0,1,2.3-.6,4.154,4.154,0,0,1,3.125,1.239,4.874,4.874,0,0,1,1.3,3.287l.009.5a5.658,5.658,0,0,1-.541,2.514A4,4,0,0,1,84.933-.431a4.415,4.415,0,0,1-2.325.606,4.125,4.125,0,0,1-3.221-1.34,5.133,5.133,0,0,1-1.208-3.573Zm2.136.185a3.832,3.832,0,0,0,.606,2.3,1.971,1.971,0,0,0,1.688.831,1.95,1.95,0,0,0,1.683-.844,4.232,4.232,0,0,0,.6-2.47,3.782,3.782,0,0,0-.62-2.285,1.979,1.979,0,0,0-1.683-.844,1.96,1.96,0,0,0-1.661.831A4.152,4.152,0,0,0,80.314-4.658Zm13.491-2.9a5.285,5.285,0,0,0-.87-.07A1.959,1.959,0,0,0,90.958-6.5V0H88.822V-9.51h2.039l.053,1.063a2.406,2.406,0,0,1,2.145-1.239,2,2,0,0,1,.756.123ZM108.105,0H99.5V-1.468l4.263-4.649a10.615,10.615,0,0,0,1.314-1.718,2.784,2.784,0,0,0,.391-1.384,2.1,2.1,0,0,0-.514-1.477,1.783,1.783,0,0,0-1.384-.562,2.056,2.056,0,0,0-1.608.633,2.489,2.489,0,0,0-.571,1.731H99.255a4.186,4.186,0,0,1,.532-2.1,3.662,3.662,0,0,1,1.521-1.455,4.84,4.84,0,0,1,2.281-.519,4.329,4.329,0,0,1,2.94.936A3.249,3.249,0,0,1,107.6-9.448a4.392,4.392,0,0,1-.541,2.008,11.42,11.42,0,0,1-1.771,2.386l-3.129,3.349h5.941Z" transform="translate(970 12204.5)" fill="#12263f"/>
    <path id="Trazado_196126" data-name="Trazado 196126" d="M10,0H147a10,10,0,0,1,10,10V74a10,10,0,0,1-10,10H10A10,10,0,0,1,0,74V10A10,10,0,0,1,10,0Z" transform="translate(1017 12228)" fill="#ffe28f"/>
    <path id="Trazado_196127" data-name="Trazado 196127" d="M7.989-3.3A1.545,1.545,0,0,0,7.4-4.6a7.138,7.138,0,0,0-2.14-.923A10.335,10.335,0,0,1,2.795-6.557,3.284,3.284,0,0,1,1.046-9.422a3.118,3.118,0,0,1,1.261-2.549,5.1,5.1,0,0,1,3.274-1,5.53,5.53,0,0,1,2.382.492,3.909,3.909,0,0,1,1.644,1.4,3.6,3.6,0,0,1,.6,2.017H7.989a2.005,2.005,0,0,0-.628-1.569,2.594,2.594,0,0,0-1.8-.567,2.709,2.709,0,0,0-1.692.466,1.551,1.551,0,0,0-.6,1.3,1.4,1.4,0,0,0,.65,1.173,7.493,7.493,0,0,0,2.145.914,9.865,9.865,0,0,1,2.4,1.011,3.816,3.816,0,0,1,1.327,1.3,3.388,3.388,0,0,1,.422,1.718A3.045,3.045,0,0,1,8.987-.769,5.318,5.318,0,0,1,5.66.176,6.251,6.251,0,0,1,3.107-.338,4.289,4.289,0,0,1,1.3-1.758,3.537,3.537,0,0,1,.65-3.867H2.874A2.07,2.07,0,0,0,3.595-2.18a3.156,3.156,0,0,0,2.065.6A2.742,2.742,0,0,0,7.4-2.052,1.517,1.517,0,0,0,7.989-3.3ZM16.146.176A4.419,4.419,0,0,1,12.854-1.1a4.639,4.639,0,0,1-1.261-3.406v-.264a5.706,5.706,0,0,1,.549-2.544,4.181,4.181,0,0,1,1.542-1.745A4.078,4.078,0,0,1,15.9-9.686a3.733,3.733,0,0,1,3,1.239A5.24,5.24,0,0,1,19.96-4.939v.861H13.746a2.856,2.856,0,0,0,.787,1.863,2.362,2.362,0,0,0,1.736.686,2.892,2.892,0,0,0,2.391-1.187l1.151,1.1A3.845,3.845,0,0,1,18.286-.294,4.774,4.774,0,0,1,16.146.176Zm-.255-8.147a1.8,1.8,0,0,0-1.419.615,3.189,3.189,0,0,0-.69,1.714h4.069V-5.8a2.6,2.6,0,0,0-.571-1.622A1.785,1.785,0,0,0,15.891-7.972ZM26.6-7.559a5.285,5.285,0,0,0-.87-.07A1.959,1.959,0,0,0,23.748-6.5V0H21.612V-9.51h2.039L23.7-8.446a2.406,2.406,0,0,1,2.145-1.239,2,2,0,0,1,.756.123Zm4.86,4.852,2.013-6.8h2.206L32.379,0H30.524L27.2-9.51h2.215ZM39.278,0H37.143V-9.51h2.136ZM37.011-11.979a1.133,1.133,0,0,1,.312-.817,1.179,1.179,0,0,1,.892-.325,1.193,1.193,0,0,1,.9.325,1.125,1.125,0,0,1,.316.817,1.1,1.1,0,0,1-.316.8,1.2,1.2,0,0,1-.9.321,1.188,1.188,0,0,1-.892-.321A1.107,1.107,0,0,1,37.011-11.979Zm8.5,10.45A1.931,1.931,0,0,0,46.837-2,1.591,1.591,0,0,0,47.4-3.146h2.013a3.137,3.137,0,0,1-.554,1.657A3.632,3.632,0,0,1,47.452-.272a4.191,4.191,0,0,1-1.916.448,4.055,4.055,0,0,1-3.164-1.292A5.124,5.124,0,0,1,41.2-4.685V-4.9a5.039,5.039,0,0,1,1.16-3.476,4.018,4.018,0,0,1,3.164-1.305,3.907,3.907,0,0,1,2.764.989,3.542,3.542,0,0,1,1.121,2.6H47.4a1.956,1.956,0,0,0-.558-1.345,1.8,1.8,0,0,0-1.332-.527,1.879,1.879,0,0,0-1.6.751,3.834,3.834,0,0,0-.571,2.281V-4.6A3.9,3.9,0,0,0,43.9-2.29,1.878,1.878,0,0,0,45.51-1.529ZM53.3,0H51.161V-9.51H53.3ZM51.029-11.979a1.133,1.133,0,0,1,.312-.817,1.179,1.179,0,0,1,.892-.325,1.193,1.193,0,0,1,.9.325,1.125,1.125,0,0,1,.316.817,1.1,1.1,0,0,1-.316.8,1.2,1.2,0,0,1-.9.321,1.188,1.188,0,0,1-.892-.321A1.107,1.107,0,0,1,51.029-11.979Zm4.192,7.137a5.607,5.607,0,0,1,.554-2.518,4.044,4.044,0,0,1,1.556-1.723,4.383,4.383,0,0,1,2.3-.6,4.154,4.154,0,0,1,3.125,1.239,4.874,4.874,0,0,1,1.3,3.287l.009.5a5.658,5.658,0,0,1-.541,2.514A4,4,0,0,1,61.976-.431a4.415,4.415,0,0,1-2.325.606,4.125,4.125,0,0,1-3.221-1.34,5.133,5.133,0,0,1-1.208-3.573Zm2.136.185a3.832,3.832,0,0,0,.606,2.3,1.971,1.971,0,0,0,1.688.831,1.95,1.95,0,0,0,1.683-.844,4.232,4.232,0,0,0,.6-2.47,3.782,3.782,0,0,0-.62-2.285,1.979,1.979,0,0,0-1.683-.844,1.96,1.96,0,0,0-1.661.831A4.152,4.152,0,0,0,57.357-4.658ZM78.82,0h-8.6V-1.468l4.263-4.649a10.615,10.615,0,0,0,1.314-1.718,2.784,2.784,0,0,0,.391-1.384,2.1,2.1,0,0,0-.514-1.477,1.783,1.783,0,0,0-1.384-.562,2.056,2.056,0,0,0-1.608.633,2.489,2.489,0,0,0-.571,1.731H69.97A4.186,4.186,0,0,1,70.5-11a3.662,3.662,0,0,1,1.521-1.455,4.84,4.84,0,0,1,2.281-.519,4.329,4.329,0,0,1,2.94.936,3.249,3.249,0,0,1,1.077,2.588,4.392,4.392,0,0,1-.541,2.008,11.42,11.42,0,0,1-1.771,2.386L72.879-1.705H78.82Z" transform="translate(1060 12276.5)" fill="#12263f"/>
    <path id="Trazado_196128" data-name="Trazado 196128" d="M10,0H204a10,10,0,0,1,10,10v94a10,10,0,0,1-10,10H10A10,10,0,0,1,0,104V10A10,10,0,0,1,10,0Z" transform="translate(927 12322)" fill="#fff"/>
    <path id="Trazado_196129" data-name="Trazado 196129" d="M11.065-4.166A4.621,4.621,0,0,1,9.554-.971,5.154,5.154,0,0,1,6.047.176,4.99,4.99,0,0,1,3.353-.549a4.759,4.759,0,0,1-1.8-2.061A7.438,7.438,0,0,1,.9-5.713v-1.2a7.491,7.491,0,0,1,.642-3.19,4.835,4.835,0,0,1,1.841-2.127,5.136,5.136,0,0,1,2.773-.747,4.934,4.934,0,0,1,3.41,1.151,4.81,4.81,0,0,1,1.5,3.252H8.851a3.161,3.161,0,0,0-.8-1.991,2.658,2.658,0,0,0-1.894-.611,2.6,2.6,0,0,0-2.228,1.059A5.289,5.289,0,0,0,3.129-7v1.134a5.611,5.611,0,0,0,.743,3.164,2.465,2.465,0,0,0,2.175,1.09,2.875,2.875,0,0,0,1.969-.589,3.071,3.071,0,0,0,.835-1.96Zm1.38-.677A5.607,5.607,0,0,1,13-7.361a4.044,4.044,0,0,1,1.556-1.723,4.383,4.383,0,0,1,2.3-.6,4.154,4.154,0,0,1,3.125,1.239,4.874,4.874,0,0,1,1.3,3.287l.009.5a5.658,5.658,0,0,1-.541,2.514A4,4,0,0,1,19.2-.431a4.415,4.415,0,0,1-2.325.606,4.125,4.125,0,0,1-3.221-1.34,5.133,5.133,0,0,1-1.208-3.573Zm2.136.185a3.832,3.832,0,0,0,.606,2.3,1.971,1.971,0,0,0,1.688.831,1.95,1.95,0,0,0,1.683-.844,4.232,4.232,0,0,0,.6-2.47,3.782,3.782,0,0,0-.62-2.285,1.979,1.979,0,0,0-1.683-.844,1.96,1.96,0,0,0-1.661.831A4.152,4.152,0,0,0,14.581-4.658ZM25.075-9.51l.062,1.1a3.419,3.419,0,0,1,2.769-1.274q2.971,0,3.023,3.4V0H28.793V-6.161A1.958,1.958,0,0,0,28.4-7.5a1.645,1.645,0,0,0-1.279-.435A2.058,2.058,0,0,0,25.2-6.768V0H23.063V-9.51ZM35.78-11.821V-9.51h1.679v1.582H35.78v5.309A1.169,1.169,0,0,0,36-1.833a1,1,0,0,0,.769.242,3.29,3.29,0,0,0,.747-.088V-.026a5.26,5.26,0,0,1-1.406.2q-2.461,0-2.461-2.716V-7.928H32.08V-9.51h1.564v-2.312Zm7.5,12A4.419,4.419,0,0,1,39.986-1.1a4.639,4.639,0,0,1-1.261-3.406v-.264a5.706,5.706,0,0,1,.549-2.544,4.181,4.181,0,0,1,1.542-1.745,4.078,4.078,0,0,1,2.215-.624,3.733,3.733,0,0,1,3,1.239,5.24,5.24,0,0,1,1.059,3.507v.861H40.878a2.856,2.856,0,0,0,.787,1.863,2.362,2.362,0,0,0,1.736.686,2.892,2.892,0,0,0,2.391-1.187l1.151,1.1A3.845,3.845,0,0,1,45.417-.294,4.774,4.774,0,0,1,43.277.176Zm-.255-8.147a1.8,1.8,0,0,0-1.419.615,3.189,3.189,0,0,0-.69,1.714h4.069V-5.8a2.6,2.6,0,0,0-.571-1.622A1.785,1.785,0,0,0,43.022-7.972ZM50.73-9.51l.062,1.1a3.419,3.419,0,0,1,2.769-1.274q2.971,0,3.023,3.4V0H54.448V-6.161a1.958,1.958,0,0,0-.391-1.34,1.645,1.645,0,0,0-1.279-.435,2.058,2.058,0,0,0-1.925,1.169V0H48.718V-9.51ZM62.947.176A4.419,4.419,0,0,1,59.656-1.1a4.639,4.639,0,0,1-1.261-3.406v-.264a5.706,5.706,0,0,1,.549-2.544,4.181,4.181,0,0,1,1.542-1.745A4.078,4.078,0,0,1,62.7-9.686a3.733,3.733,0,0,1,3,1.239,5.24,5.24,0,0,1,1.059,3.507v.861H60.548a2.856,2.856,0,0,0,.787,1.863,2.362,2.362,0,0,0,1.736.686,2.892,2.892,0,0,0,2.391-1.187l1.151,1.1A3.845,3.845,0,0,1,65.087-.294,4.774,4.774,0,0,1,62.947.176Zm-.255-8.147a1.8,1.8,0,0,0-1.419.615,3.189,3.189,0,0,0-.69,1.714h4.069V-5.8a2.6,2.6,0,0,0-.571-1.622A1.785,1.785,0,0,0,62.692-7.972Zm5.326,3.146a5.654,5.654,0,0,1,1.02-3.529,3.267,3.267,0,0,1,2.733-1.332,3.1,3.1,0,0,1,2.443,1.055V-13.5h2.136V0H74.417l-.105-.984A3.148,3.148,0,0,1,71.754.176a3.248,3.248,0,0,1-2.7-1.345A5.861,5.861,0,0,1,68.019-4.825Zm2.136.185a3.958,3.958,0,0,0,.558,2.263,1.811,1.811,0,0,0,1.586.813,2.017,2.017,0,0,0,1.916-1.169V-6.794a1.986,1.986,0,0,0-1.9-1.143,1.824,1.824,0,0,0-1.6.822A4.408,4.408,0,0,0,70.154-4.641Zm8.024-.2a5.607,5.607,0,0,1,.554-2.518,4.044,4.044,0,0,1,1.556-1.723,4.383,4.383,0,0,1,2.3-.6,4.154,4.154,0,0,1,3.125,1.239,4.874,4.874,0,0,1,1.3,3.287l.009.5a5.658,5.658,0,0,1-.541,2.514A4,4,0,0,1,84.933-.431a4.415,4.415,0,0,1-2.325.606,4.125,4.125,0,0,1-3.221-1.34,5.133,5.133,0,0,1-1.208-3.573Zm2.136.185a3.832,3.832,0,0,0,.606,2.3,1.971,1.971,0,0,0,1.688.831,1.95,1.95,0,0,0,1.683-.844,4.232,4.232,0,0,0,.6-2.47,3.782,3.782,0,0,0-.62-2.285,1.979,1.979,0,0,0-1.683-.844,1.96,1.96,0,0,0-1.661.831A4.152,4.152,0,0,0,80.314-4.658Zm13.491-2.9a5.285,5.285,0,0,0-.87-.07A1.959,1.959,0,0,0,90.958-6.5V0H88.822V-9.51h2.039l.053,1.063a2.406,2.406,0,0,1,2.145-1.239,2,2,0,0,1,.756.123Zm12.92,3h1.591v1.714h-1.591V0H104.59V-2.848H99.062L99-4.148l5.52-8.648h2.206Zm-5.484,0h3.349V-9.905l-.158.281Z" transform="translate(970 12370.5)" fill="#12263f"/>
    <path id="Trazado_196130" data-name="Trazado 196130" d="M10,0H118a10,10,0,0,1,10,10V59a10,10,0,0,1-10,10H10A10,10,0,0,1,0,59V10A10,10,0,0,1,10,0Z" transform="translate(1050 12409)" fill="#ffe28f"/>
    <path id="Trazado_196131" data-name="Trazado 196131" d="M7.989-3.3A1.545,1.545,0,0,0,7.4-4.6a7.138,7.138,0,0,0-2.14-.923A10.335,10.335,0,0,1,2.795-6.557,3.284,3.284,0,0,1,1.046-9.422a3.118,3.118,0,0,1,1.261-2.549,5.1,5.1,0,0,1,3.274-1,5.53,5.53,0,0,1,2.382.492,3.909,3.909,0,0,1,1.644,1.4,3.6,3.6,0,0,1,.6,2.017H7.989a2.005,2.005,0,0,0-.628-1.569,2.594,2.594,0,0,0-1.8-.567,2.709,2.709,0,0,0-1.692.466,1.551,1.551,0,0,0-.6,1.3,1.4,1.4,0,0,0,.65,1.173,7.493,7.493,0,0,0,2.145.914,9.865,9.865,0,0,1,2.4,1.011,3.816,3.816,0,0,1,1.327,1.3,3.388,3.388,0,0,1,.422,1.718A3.045,3.045,0,0,1,8.987-.769,5.318,5.318,0,0,1,5.66.176,6.251,6.251,0,0,1,3.107-.338,4.289,4.289,0,0,1,1.3-1.758,3.537,3.537,0,0,1,.65-3.867H2.874A2.07,2.07,0,0,0,3.595-2.18a3.156,3.156,0,0,0,2.065.6A2.742,2.742,0,0,0,7.4-2.052,1.517,1.517,0,0,0,7.989-3.3ZM16.146.176A4.419,4.419,0,0,1,12.854-1.1a4.639,4.639,0,0,1-1.261-3.406v-.264a5.706,5.706,0,0,1,.549-2.544,4.181,4.181,0,0,1,1.542-1.745A4.078,4.078,0,0,1,15.9-9.686a3.733,3.733,0,0,1,3,1.239A5.24,5.24,0,0,1,19.96-4.939v.861H13.746a2.856,2.856,0,0,0,.787,1.863,2.362,2.362,0,0,0,1.736.686,2.892,2.892,0,0,0,2.391-1.187l1.151,1.1A3.845,3.845,0,0,1,18.286-.294,4.774,4.774,0,0,1,16.146.176Zm-.255-8.147a1.8,1.8,0,0,0-1.419.615,3.189,3.189,0,0,0-.69,1.714h4.069V-5.8a2.6,2.6,0,0,0-.571-1.622A1.785,1.785,0,0,0,15.891-7.972ZM26.6-7.559a5.285,5.285,0,0,0-.87-.07A1.959,1.959,0,0,0,23.748-6.5V0H21.612V-9.51h2.039L23.7-8.446a2.406,2.406,0,0,1,2.145-1.239,2,2,0,0,1,.756.123Zm4.86,4.852,2.013-6.8h2.206L32.379,0H30.524L27.2-9.51h2.215ZM39.278,0H37.143V-9.51h2.136ZM37.011-11.979a1.133,1.133,0,0,1,.312-.817,1.179,1.179,0,0,1,.892-.325,1.193,1.193,0,0,1,.9.325,1.125,1.125,0,0,1,.316.817,1.1,1.1,0,0,1-.316.8,1.2,1.2,0,0,1-.9.321,1.188,1.188,0,0,1-.892-.321A1.107,1.107,0,0,1,37.011-11.979Zm8.5,10.45A1.931,1.931,0,0,0,46.837-2,1.591,1.591,0,0,0,47.4-3.146h2.013a3.137,3.137,0,0,1-.554,1.657A3.632,3.632,0,0,1,47.452-.272a4.191,4.191,0,0,1-1.916.448,4.055,4.055,0,0,1-3.164-1.292A5.124,5.124,0,0,1,41.2-4.685V-4.9a5.039,5.039,0,0,1,1.16-3.476,4.018,4.018,0,0,1,3.164-1.305,3.907,3.907,0,0,1,2.764.989,3.542,3.542,0,0,1,1.121,2.6H47.4a1.956,1.956,0,0,0-.558-1.345,1.8,1.8,0,0,0-1.332-.527,1.879,1.879,0,0,0-1.6.751,3.834,3.834,0,0,0-.571,2.281V-4.6A3.9,3.9,0,0,0,43.9-2.29,1.878,1.878,0,0,0,45.51-1.529ZM53.3,0H51.161V-9.51H53.3ZM51.029-11.979a1.133,1.133,0,0,1,.312-.817,1.179,1.179,0,0,1,.892-.325,1.193,1.193,0,0,1,.9.325,1.125,1.125,0,0,1,.316.817,1.1,1.1,0,0,1-.316.8,1.2,1.2,0,0,1-.9.321,1.188,1.188,0,0,1-.892-.321A1.107,1.107,0,0,1,51.029-11.979Zm4.192,7.137a5.607,5.607,0,0,1,.554-2.518,4.044,4.044,0,0,1,1.556-1.723,4.383,4.383,0,0,1,2.3-.6,4.154,4.154,0,0,1,3.125,1.239,4.874,4.874,0,0,1,1.3,3.287l.009.5a5.658,5.658,0,0,1-.541,2.514A4,4,0,0,1,61.976-.431a4.415,4.415,0,0,1-2.325.606,4.125,4.125,0,0,1-3.221-1.34,5.133,5.133,0,0,1-1.208-3.573Zm2.136.185a3.832,3.832,0,0,0,.606,2.3,1.971,1.971,0,0,0,1.688.831,1.95,1.95,0,0,0,1.683-.844,4.232,4.232,0,0,0,.6-2.47,3.782,3.782,0,0,0-.62-2.285,1.979,1.979,0,0,0-1.683-.844,1.96,1.96,0,0,0-1.661.831A4.152,4.152,0,0,0,57.357-4.658Zm13.43-1.687.694-6.451h6.873v1.846h-5.1l-.352,3.059a3.951,3.951,0,0,1,2-.51,3.565,3.565,0,0,1,2.843,1.169,4.632,4.632,0,0,1,1.015,3.146A4.264,4.264,0,0,1,77.643-.98,4.106,4.106,0,0,1,74.558.176a4.3,4.3,0,0,1-2.914-1,3.606,3.606,0,0,1-1.252-2.632h2.065a2.256,2.256,0,0,0,.668,1.428,2.032,2.032,0,0,0,1.424.5,1.836,1.836,0,0,0,1.534-.7,3.035,3.035,0,0,0,.549-1.916A2.682,2.682,0,0,0,76.025-6a2.121,2.121,0,0,0-1.67-.681,2.778,2.778,0,0,0-.984.154,2.788,2.788,0,0,0-.879.6Z" transform="translate(1074.5 12450)" fill="#12263f"/>
    <path id="Trazado_196132" data-name="Trazado 196132" d="M10,0h98a10,10,0,0,1,10,10V53a10,10,0,0,1-10,10H10A10,10,0,0,1,0,53V10A10,10,0,0,1,10,0Z" transform="translate(913 12394)" fill="#ffe28f"/>
    <path id="Trazado_196133" data-name="Trazado 196133" d="M7.989-3.3A1.545,1.545,0,0,0,7.4-4.6a7.138,7.138,0,0,0-2.14-.923A10.335,10.335,0,0,1,2.795-6.557,3.284,3.284,0,0,1,1.046-9.422a3.118,3.118,0,0,1,1.261-2.549,5.1,5.1,0,0,1,3.274-1,5.53,5.53,0,0,1,2.382.492,3.909,3.909,0,0,1,1.644,1.4,3.6,3.6,0,0,1,.6,2.017H7.989a2.005,2.005,0,0,0-.628-1.569,2.594,2.594,0,0,0-1.8-.567,2.709,2.709,0,0,0-1.692.466,1.551,1.551,0,0,0-.6,1.3,1.4,1.4,0,0,0,.65,1.173,7.493,7.493,0,0,0,2.145.914,9.865,9.865,0,0,1,2.4,1.011,3.816,3.816,0,0,1,1.327,1.3,3.388,3.388,0,0,1,.422,1.718A3.045,3.045,0,0,1,8.987-.769,5.318,5.318,0,0,1,5.66.176,6.251,6.251,0,0,1,3.107-.338,4.289,4.289,0,0,1,1.3-1.758,3.537,3.537,0,0,1,.65-3.867H2.874A2.07,2.07,0,0,0,3.595-2.18a3.156,3.156,0,0,0,2.065.6A2.742,2.742,0,0,0,7.4-2.052,1.517,1.517,0,0,0,7.989-3.3ZM16.146.176A4.419,4.419,0,0,1,12.854-1.1a4.639,4.639,0,0,1-1.261-3.406v-.264a5.706,5.706,0,0,1,.549-2.544,4.181,4.181,0,0,1,1.542-1.745A4.078,4.078,0,0,1,15.9-9.686a3.733,3.733,0,0,1,3,1.239A5.24,5.24,0,0,1,19.96-4.939v.861H13.746a2.856,2.856,0,0,0,.787,1.863,2.362,2.362,0,0,0,1.736.686,2.892,2.892,0,0,0,2.391-1.187l1.151,1.1A3.845,3.845,0,0,1,18.286-.294,4.774,4.774,0,0,1,16.146.176Zm-.255-8.147a1.8,1.8,0,0,0-1.419.615,3.189,3.189,0,0,0-.69,1.714h4.069V-5.8a2.6,2.6,0,0,0-.571-1.622A1.785,1.785,0,0,0,15.891-7.972ZM26.6-7.559a5.285,5.285,0,0,0-.87-.07A1.959,1.959,0,0,0,23.748-6.5V0H21.612V-9.51h2.039L23.7-8.446a2.406,2.406,0,0,1,2.145-1.239,2,2,0,0,1,.756.123Zm4.86,4.852,2.013-6.8h2.206L32.379,0H30.524L27.2-9.51h2.215ZM39.278,0H37.143V-9.51h2.136ZM37.011-11.979a1.133,1.133,0,0,1,.312-.817,1.179,1.179,0,0,1,.892-.325,1.193,1.193,0,0,1,.9.325,1.125,1.125,0,0,1,.316.817,1.1,1.1,0,0,1-.316.8,1.2,1.2,0,0,1-.9.321,1.188,1.188,0,0,1-.892-.321A1.107,1.107,0,0,1,37.011-11.979Zm8.5,10.45A1.931,1.931,0,0,0,46.837-2,1.591,1.591,0,0,0,47.4-3.146h2.013a3.137,3.137,0,0,1-.554,1.657A3.632,3.632,0,0,1,47.452-.272a4.191,4.191,0,0,1-1.916.448,4.055,4.055,0,0,1-3.164-1.292A5.124,5.124,0,0,1,41.2-4.685V-4.9a5.039,5.039,0,0,1,1.16-3.476,4.018,4.018,0,0,1,3.164-1.305,3.907,3.907,0,0,1,2.764.989,3.542,3.542,0,0,1,1.121,2.6H47.4a1.956,1.956,0,0,0-.558-1.345,1.8,1.8,0,0,0-1.332-.527,1.879,1.879,0,0,0-1.6.751,3.834,3.834,0,0,0-.571,2.281V-4.6A3.9,3.9,0,0,0,43.9-2.29,1.878,1.878,0,0,0,45.51-1.529ZM53.3,0H51.161V-9.51H53.3ZM51.029-11.979a1.133,1.133,0,0,1,.312-.817,1.179,1.179,0,0,1,.892-.325,1.193,1.193,0,0,1,.9.325,1.125,1.125,0,0,1,.316.817,1.1,1.1,0,0,1-.316.8,1.2,1.2,0,0,1-.9.321,1.188,1.188,0,0,1-.892-.321A1.107,1.107,0,0,1,51.029-11.979Zm4.192,7.137a5.607,5.607,0,0,1,.554-2.518,4.044,4.044,0,0,1,1.556-1.723,4.383,4.383,0,0,1,2.3-.6,4.154,4.154,0,0,1,3.125,1.239,4.874,4.874,0,0,1,1.3,3.287l.009.5a5.658,5.658,0,0,1-.541,2.514A4,4,0,0,1,61.976-.431a4.415,4.415,0,0,1-2.325.606,4.125,4.125,0,0,1-3.221-1.34,5.133,5.133,0,0,1-1.208-3.573Zm2.136.185a3.832,3.832,0,0,0,.606,2.3,1.971,1.971,0,0,0,1.688.831,1.95,1.95,0,0,0,1.683-.844,4.232,4.232,0,0,0,.6-2.47,3.782,3.782,0,0,0-.62-2.285,1.979,1.979,0,0,0-1.683-.844,1.96,1.96,0,0,0-1.661.831A4.152,4.152,0,0,0,57.357-4.658Zm20.083.1h1.591v1.714H77.44V0H75.3V-2.848H69.776l-.062-1.3,5.52-8.648H77.44Zm-5.484,0H75.3V-9.905l-.158.281Z" transform="translate(932.5 12431)" fill="#12263f"/>
    <path id="Trazado_196134" data-name="Trazado 196134" d="M4.648-14.219l4.1,10.9,4.092-10.9h3.193V0H13.574V-4.687l.244-6.27L9.619,0H7.852L3.662-10.947l.244,6.26V0H1.445V-14.219ZM21.25,0H18.877V-10.566H21.25ZM18.73-13.311a1.259,1.259,0,0,1,.347-.908,1.309,1.309,0,0,1,.991-.361,1.326,1.326,0,0,1,1,.361,1.25,1.25,0,0,1,.352.908,1.221,1.221,0,0,1-.352.894,1.336,1.336,0,0,1-1,.356,1.32,1.32,0,0,1-.991-.356A1.23,1.23,0,0,1,18.73-13.311ZM28.174-1.7a2.146,2.146,0,0,0,1.475-.518A1.768,1.768,0,0,0,30.273-3.5H32.51a3.486,3.486,0,0,1-.615,1.841A4.035,4.035,0,0,1,30.332-.3,4.656,4.656,0,0,1,28.2.2,4.505,4.505,0,0,1,24.688-1.24a5.694,5.694,0,0,1-1.3-3.965v-.244a5.6,5.6,0,0,1,1.289-3.862,4.464,4.464,0,0,1,3.516-1.45,4.341,4.341,0,0,1,3.071,1.1A3.935,3.935,0,0,1,32.51-6.777H30.273a2.173,2.173,0,0,0-.62-1.494,2,2,0,0,0-1.479-.586,2.088,2.088,0,0,0-1.777.835,4.261,4.261,0,0,0-.635,2.534v.381a4.331,4.331,0,0,0,.62,2.563A2.086,2.086,0,0,0,28.174-1.7Zm11.66-6.7a5.872,5.872,0,0,0-.967-.078,2.177,2.177,0,0,0-2.2,1.25V0H34.3V-10.566h2.266l.059,1.182A2.674,2.674,0,0,1,39-10.762a2.222,2.222,0,0,1,.84.137Zm.7,3.018a6.231,6.231,0,0,1,.615-2.8,4.493,4.493,0,0,1,1.729-1.914,4.87,4.87,0,0,1,2.559-.669,4.615,4.615,0,0,1,3.472,1.377,5.416,5.416,0,0,1,1.44,3.652l.01.557a6.286,6.286,0,0,1-.6,2.793,4.439,4.439,0,0,1-1.719,1.9A4.906,4.906,0,0,1,45.459.2,4.584,4.584,0,0,1,41.88-1.294a5.7,5.7,0,0,1-1.343-3.97Zm2.373.205a4.258,4.258,0,0,0,.674,2.554,2.191,2.191,0,0,0,1.875.923,2.167,2.167,0,0,0,1.87-.937A4.7,4.7,0,0,0,48-5.381,4.2,4.2,0,0,0,47.31-7.92a2.2,2.2,0,0,0-1.87-.937,2.178,2.178,0,0,0-1.846.923A4.614,4.614,0,0,0,42.91-5.176Zm15.381,2.3a1.076,1.076,0,0,0-.522-.967,5.557,5.557,0,0,0-1.733-.586,8.911,8.911,0,0,1-2.021-.645,2.7,2.7,0,0,1-1.777-2.49,2.813,2.813,0,0,1,1.152-2.285,4.556,4.556,0,0,1,2.93-.918,4.74,4.74,0,0,1,3.062.938,2.975,2.975,0,0,1,1.167,2.432H58.174a1.462,1.462,0,0,0-.508-1.138,1.946,1.946,0,0,0-1.348-.454,2.1,2.1,0,0,0-1.274.361,1.139,1.139,0,0,0-.493.967.962.962,0,0,0,.459.85,6.312,6.312,0,0,0,1.855.61,8.783,8.783,0,0,1,2.192.732,3.1,3.1,0,0,1,1.182,1.021A2.6,2.6,0,0,1,60.625-3a2.753,2.753,0,0,1-1.182,2.31,5.039,5.039,0,0,1-3.1.884,5.464,5.464,0,0,1-2.314-.469,3.809,3.809,0,0,1-1.582-1.289,3.051,3.051,0,0,1-.566-1.768h2.3a1.672,1.672,0,0,0,.635,1.294,2.467,2.467,0,0,0,1.553.454A2.4,2.4,0,0,0,57.8-1.938,1.1,1.1,0,0,0,58.291-2.871ZM67.344.2a4.91,4.91,0,0,1-3.657-1.421,5.154,5.154,0,0,1-1.4-3.784V-5.3A6.34,6.34,0,0,1,62.9-8.13a4.646,4.646,0,0,1,1.714-1.938,4.531,4.531,0,0,1,2.461-.693,4.147,4.147,0,0,1,3.335,1.377,5.822,5.822,0,0,1,1.177,3.9v.957h-6.9a3.173,3.173,0,0,0,.874,2.07A2.624,2.624,0,0,0,67.48-1.7a3.213,3.213,0,0,0,2.656-1.318L71.416-1.8a4.272,4.272,0,0,1-1.694,1.47A5.3,5.3,0,0,1,67.344.2Zm-.283-9.053a2,2,0,0,0-1.577.684,3.543,3.543,0,0,0-.767,1.9h4.521v-.176a2.884,2.884,0,0,0-.635-1.8A1.983,1.983,0,0,0,67.061-8.857ZM78.955-8.4a5.872,5.872,0,0,0-.967-.078,2.177,2.177,0,0,0-2.2,1.25V0H73.418V-10.566h2.266l.059,1.182a2.674,2.674,0,0,1,2.383-1.377,2.222,2.222,0,0,1,.84.137Zm5.4,5.391,2.236-7.559h2.451L85.381,0H83.32L79.629-10.566H82.09ZM93.047,0H90.674V-10.566h2.373Zm-2.52-13.311a1.259,1.259,0,0,1,.347-.908,1.309,1.309,0,0,1,.991-.361,1.326,1.326,0,0,1,1,.361,1.25,1.25,0,0,1,.352.908,1.221,1.221,0,0,1-.352.894,1.336,1.336,0,0,1-1,.356,1.32,1.32,0,0,1-.991-.356A1.23,1.23,0,0,1,90.527-13.311ZM99.971-1.7a2.146,2.146,0,0,0,1.475-.518A1.768,1.768,0,0,0,102.07-3.5h2.236a3.486,3.486,0,0,1-.615,1.841A4.035,4.035,0,0,1,102.129-.3,4.656,4.656,0,0,1,100,.2,4.505,4.505,0,0,1,96.484-1.24a5.694,5.694,0,0,1-1.3-3.965v-.244a5.6,5.6,0,0,1,1.289-3.862,4.464,4.464,0,0,1,3.516-1.45,4.341,4.341,0,0,1,3.071,1.1,3.935,3.935,0,0,1,1.245,2.886H102.07a2.173,2.173,0,0,0-.62-1.494,2,2,0,0,0-1.479-.586,2.088,2.088,0,0,0-1.777.835,4.261,4.261,0,0,0-.635,2.534v.381a4.331,4.331,0,0,0,.62,2.563A2.086,2.086,0,0,0,99.971-1.7ZM108.623,0H106.25V-10.566h2.373ZM106.1-13.311a1.259,1.259,0,0,1,.347-.908,1.309,1.309,0,0,1,.991-.361,1.326,1.326,0,0,1,1,.361,1.25,1.25,0,0,1,.352.908,1.221,1.221,0,0,1-.352.894,1.336,1.336,0,0,1-1,.356,1.32,1.32,0,0,1-.991-.356A1.23,1.23,0,0,1,106.1-13.311Zm4.658,7.93a6.231,6.231,0,0,1,.615-2.8,4.493,4.493,0,0,1,1.729-1.914,4.87,4.87,0,0,1,2.559-.669,4.615,4.615,0,0,1,3.472,1.377,5.416,5.416,0,0,1,1.44,3.652l.01.557a6.286,6.286,0,0,1-.6,2.793,4.439,4.439,0,0,1-1.719,1.9A4.906,4.906,0,0,1,115.684.2,4.584,4.584,0,0,1,112.1-1.294a5.7,5.7,0,0,1-1.343-3.97Zm2.373.205a4.258,4.258,0,0,0,.674,2.554,2.191,2.191,0,0,0,1.875.923,2.167,2.167,0,0,0,1.87-.937,4.7,4.7,0,0,0,.669-2.744,4.2,4.2,0,0,0-.688-2.539,2.2,2.2,0,0,0-1.87-.937,2.178,2.178,0,0,0-1.846.923A4.614,4.614,0,0,0,113.135-5.176Zm15.381,2.3a1.076,1.076,0,0,0-.522-.967,5.557,5.557,0,0,0-1.733-.586,8.911,8.911,0,0,1-2.021-.645,2.7,2.7,0,0,1-1.777-2.49,2.813,2.813,0,0,1,1.152-2.285,4.556,4.556,0,0,1,2.93-.918,4.74,4.74,0,0,1,3.062.938,2.975,2.975,0,0,1,1.167,2.432H128.4a1.462,1.462,0,0,0-.508-1.138,1.946,1.946,0,0,0-1.348-.454,2.1,2.1,0,0,0-1.274.361,1.139,1.139,0,0,0-.493.967.962.962,0,0,0,.459.85,6.312,6.312,0,0,0,1.855.61,8.783,8.783,0,0,1,2.192.732,3.1,3.1,0,0,1,1.182,1.021A2.6,2.6,0,0,1,130.85-3a2.753,2.753,0,0,1-1.182,2.31,5.039,5.039,0,0,1-3.1.884,5.464,5.464,0,0,1-2.314-.469,3.809,3.809,0,0,1-1.582-1.289,3.051,3.051,0,0,1-.566-1.768h2.3a1.672,1.672,0,0,0,.635,1.294,2.467,2.467,0,0,0,1.553.454,2.4,2.4,0,0,0,1.426-.356A1.1,1.1,0,0,0,128.516-2.871Z" transform="translate(734 12094)" fill="#12263f"/>
    <path id="Trazado_172781" data-name="Trazado 172781" d="M-8394.484,532.609c-1.131-1.251-2.281-2.509-3.418-3.741l.734-.679c1.14,1.234,2.292,2.5,3.426,3.749Zm-7.5-8.1c-1.377-1.454-2.777-2.914-4.164-4.34l.718-.7c1.389,1.429,2.792,2.892,4.172,4.349Zm-8.362-8.6c-1.41-1.413-2.845-2.831-4.264-4.216l.7-.716c1.423,1.388,2.86,2.809,4.273,4.226Zm-8.585-8.375c-1.442-1.369-2.91-2.744-4.362-4.084l.679-.735c1.455,1.344,2.927,2.721,4.372,4.094Zm-8.808-8.13c-1.482-1.33-2.99-2.663-4.481-3.963l.657-.754c1.5,1.3,3.007,2.64,4.492,3.973Zm-9.03-7.869c-1.524-1.289-3.074-2.581-4.608-3.839l.634-.773c1.538,1.262,3.093,2.556,4.62,3.849Zm-449.765-3.627-.595-.8c.018-.013,1.732-1.279,4.92-3.437l.561.828C-8884.813,486.634-8886.514,487.89-8886.531,487.9Zm440.508-3.966c-1.564-1.244-3.156-2.489-4.73-3.7l.61-.792c1.578,1.216,3.174,2.464,4.742,3.711Zm-430.631-2.752-.544-.839c1.641-1.063,3.349-2.15,5.078-3.231l.53.848C-8873.314,479.039-8875.019,480.123-8876.654,481.183Zm421.124-4.567c-1.595-1.188-3.217-2.377-4.821-3.533l.584-.811c1.609,1.159,3.236,2.351,4.835,3.543Zm-410.947-1.8-.517-.856c1.688-1.02,3.424-2.051,5.157-3.065l.5.863C-8863.061,472.774-8864.792,473.8-8866.478,474.821Zm401.224-5.209c-1.635-1.138-3.3-2.275-4.944-3.38l.558-.83c1.65,1.108,3.318,2.248,4.958,3.389Zm-390.891-.836-.493-.87c1.729-.98,3.5-1.966,5.253-2.932l.481.876C-8852.656,466.814-8854.419,467.8-8856.145,468.776Zm10.508-5.776-.471-.883c1.758-.937,3.55-1.877,5.325-2.8l.46.888C-8842.095,461.127-8843.883,462.066-8845.637,463Zm370.446-.061c-1.676-1.085-3.381-2.168-5.068-3.22l.529-.849c1.691,1.054,3.4,2.141,5.082,3.229Zm-359.8-5.443-.448-.894c1.782-.893,3.6-1.788,5.394-2.66l.437.9C-8831.4,455.712-8833.21,456.605-8834.988,457.5Zm349.619-.9c-1.7-1.022-3.438-2.041-5.154-3.029l.5-.867c1.72.991,3.459,2.013,5.169,3.038Zm-338.827-4.339-.426-.9c1.8-.847,3.634-1.695,5.445-2.519l.414.91C-8820.57,450.565-8822.4,451.411-8824.2,452.257Zm328.445-1.64c-1.743-.963-3.517-1.923-5.271-2.851l.468-.884c1.76.931,3.539,1.893,5.287,2.86Zm-317.541-3.323-.4-.915c1.827-.8,3.683-1.607,5.516-2.386l.392.92C-8809.618,445.691-8811.47,446.492-8813.292,447.294Zm306.957-2.28c-1.776-.9-3.583-1.793-5.37-2.657l.436-.9c1.792.867,3.6,1.763,5.386,2.665Zm-295.918-2.415-.38-.925c1.847-.758,3.723-1.514,5.574-2.246l.367.93C-8798.539,441.089-8800.41,441.843-8802.253,442.6Zm285.125-2.8c-1.807-.833-3.645-1.659-5.462-2.456l.4-.916c1.823.8,3.667,1.628,5.479,2.463Zm-273.979-1.607-.356-.935c1.865-.71,3.758-1.417,5.625-2.1l.344.939C-8787.358,436.776-8789.247,437.481-8791.107,438.19Zm263.017-3.2c-1.839-.765-3.708-1.523-5.558-2.252l.367-.93c1.854.731,3.73,1.491,5.574,2.259Zm-251.764-.92-.332-.943c1.884-.662,3.795-1.319,5.68-1.954l.319.948C-8776.068,432.754-8777.975,433.41-8779.854,434.07Zm240.609-3.477c-1.863-.694-3.758-1.379-5.632-2.036l.331-.944c1.88.659,3.78,1.347,5.649,2.043Zm-229.25-.346-.306-.952c1.9-.612,3.829-1.218,5.73-1.8l.293.956C-8764.674,429.032-8766.6,429.636-8768.5,430.247Zm11.459-3.516-.279-.96c1.917-.56,3.861-1.113,5.777-1.643l.268.964C-8753.183,425.621-8755.122,426.172-8757.036,426.731Zm206.494-.1c-1.89-.622-3.811-1.235-5.71-1.821l.295-.956c1.905.588,3.833,1.2,5.728,1.827Zm-194.941-3.1-.254-.967c1.934-.506,3.893-1,5.823-1.48l.239.971C-8741.6,422.532-8743.556,423.028-8745.483,423.533ZM-8562,423.1c-1.91-.549-3.853-1.087-5.772-1.6l.258-.966c1.927.514,3.875,1.053,5.791,1.6Zm-171.849-2.433-.226-.974c1.947-.45,3.92-.891,5.864-1.31l.211.978C-8729.936,419.776-8731.9,420.216-8733.846,420.665Zm160.276-.652c-1.928-.475-3.888-.937-5.825-1.375l.221-.975c1.943.439,3.91.9,5.844,1.379Zm-148.56-1.874-.2-.981c1.959-.392,3.944-.774,5.9-1.134l.182.983C-8718.193,417.366-8720.174,417.747-8722.129,418.138Zm136.874-.765c-1.946-.4-3.925-.788-5.881-1.152l.183-.983c1.962.365,3.947.753,5.9,1.155Zm-125.085-1.408-.166-.986c1.971-.332,3.967-.653,5.934-.953l.15.989C-8706.383,415.313-8708.374,415.633-8710.34,415.964Zm113.3-.782c-1.959-.326-3.949-.637-5.917-.926l.146-.989c1.974.29,3.971.6,5.935.929Zm-101.457-1.025-.135-.991c1.979-.27,3.983-.527,5.957-.764l.119.993C-8694.52,413.632-8696.519,413.888-8698.492,414.158Zm89.609-.715c-1.971-.251-3.973-.488-5.951-.7l.107-.994c1.985.216,3.994.453,5.97.705Zm-77.715-.713-.1-.995c1.986-.206,4-.4,5.979-.57l.087,1C-8682.609,412.333-8684.616,412.525-8686.6,412.73Zm65.8-.581c-1.978-.178-3.987-.339-5.973-.481l.071-1c1.991.142,4.007.3,5.99.482Zm-53.863-.456-.069-1c1.992-.14,4.011-.264,6-.37l.053,1C-8670.661,411.429-8672.674,411.553-8674.661,411.692Zm41.911-.4c-1.981-.1-3.994-.193-5.983-.262l.034-1c2,.069,4.015.158,6,.263Zm-29.944-.24-.036-1c2-.072,4.019-.127,6.009-.164l.019,1C-8658.687,410.93-8660.7,410.985-8662.694,411.057Zm17.975-.175c-1.869-.031-3.767-.047-5.645-.047h-.346v-1h.346c1.884,0,3.787.016,5.662.047Z" transform="translate(9346 11700)" fill="#707070"/>
    <path id="Trazado_172782" data-name="Trazado 172782" d="M-8769.144,771.624c-1.116,0-2.229,0-3.327-.012l.007-1c1.974.014,3.99.016,5.994,0l.006,1Q-8767.8,771.624-8769.144,771.624Zm8.686-.078-.019-1c1.975-.035,3.991-.082,5.994-.141l.029,1C-8756.46,771.464-8758.48,771.511-8760.458,771.546Zm-18.019-.016c-2.01-.041-4.03-.1-6.006-.164l.035-1c1.97.068,3.985.123,5.99.164Zm30.024-.335-.041-1c1.976-.08,3.99-.172,5.99-.274l.051,1C-8744.455,771.023-8746.474,771.116-8748.452,771.2Zm-42.032-.079c-2.009-.1-4.027-.213-6-.341l.064-1c1.966.127,3.979.241,5.982.34Zm54.027-.533-.062-1c1.974-.121,3.987-.255,5.984-.4l.07,1C-8732.463,770.328-8734.479,770.462-8736.457,770.583Zm-66.018-.245c-2.007-.163-4.021-.344-5.985-.538l.1-1c1.959.193,3.967.374,5.968.536Zm78-.609-.08-1c1.973-.16,3.982-.332,5.975-.512l.09,1C-8720.488,769.4-8722.5,769.569-8724.478,769.729Zm-89.957-.573c-2-.235-4.008-.49-5.962-.759l.136-.991c1.948.268,3.948.522,5.943.756Zm101.92-.506-.1-1c1.971-.2,3.977-.4,5.962-.619l.108.994C-8708.533,768.246-8710.542,768.454-8712.515,768.65Zm-113.827-1.132c-1.992-.316-3.986-.655-5.927-1.008l.179-.984c1.933.351,3.92.689,5.9,1Zm125.768-.159-.116-.993c1.968-.23,3.97-.472,5.95-.72l.125.992C-8696.6,766.886-8698.6,767.129-8700.574,767.359Zm11.912-1.491-.132-.991c1.968-.263,3.967-.538,5.943-.818l.141.99C-8684.689,765.33-8686.691,765.6-8688.662,765.868Zm-149.509-.5c-1.977-.408-3.952-.843-5.872-1.292l.228-.974c1.911.447,3.879.879,5.848,1.286Zm161.4-1.181-.148-.989c1.965-.294,3.959-.6,5.926-.911l.156.988C-8672.8,763.583-8674.8,763.89-8676.768,764.184Zm-173.113-1.559c-1.953-.514-3.9-1.057-5.792-1.614l.283-.959c1.88.555,3.819,1.1,5.764,1.606Zm184.974-.311-.163-.987c1.964-.325,3.954-.663,5.913-1l.171.985C-8660.948,761.651-8662.94,761.989-8664.907,762.314Zm11.834-2.054-.179-.984c1.965-.357,3.946-.725,5.892-1.094l.187.982C-8649.121,759.534-8651.106,759.9-8653.073,760.26Zm-208.345-1.043c-1.919-.634-3.83-1.3-5.678-1.984l.346-.938c1.838.678,3.737,1.342,5.646,1.973Zm220.143-1.2-.2-.981c1.975-.392,3.951-.793,5.874-1.192l.2.979C-8637.319,757.225-8639.3,757.627-8641.275,758.019Zm11.76-2.443-.212-.977c2.04-.444,4.006-.884,5.842-1.307l.225.974C-8625.5,754.69-8627.471,755.13-8629.516,755.576Zm-243.187-.532c-1.871-.772-3.729-1.582-5.52-2.407l.419-.908c1.778.82,3.623,1.624,5.481,2.391Zm-10.93-5.044c-1.8-.927-3.579-1.9-5.289-2.884l.5-.866c1.7.978,3.462,1.941,5.248,2.861Zm-10.432-6.025c-1.7-1.1-3.37-2.246-4.969-3.41l.589-.809c1.584,1.153,3.24,2.29,4.923,3.379Zm-9.736-7.1c-1.562-1.282-3.089-2.618-4.54-3.97l.682-.732c1.437,1.338,2.948,2.66,4.493,3.929Zm-8.818-8.221c-1.381-1.465-2.723-2.988-3.987-4.527l.772-.635c1.251,1.521,2.577,3.027,3.942,4.476Zm665.887-2.714c-.019-.01-1.864-.978-5.287-2.735l.456-.89c3.428,1.759,5.277,2.73,5.3,2.739Zm-10.666-5.482c-1.726-.877-3.521-1.785-5.337-2.7l.45-.893c1.816.915,3.613,1.824,5.34,2.7Zm-662.875-1.122c-1.163-1.633-2.281-3.328-3.324-5.036l.854-.521c1.031,1.689,2.137,3.363,3.285,4.978Zm652.194-4.259c-1.767-.883-3.579-1.787-5.389-2.685l.444-.9c1.811.9,3.624,1.8,5.392,2.686Zm-10.761-5.344c-1.77-.873-3.578-1.762-5.373-2.642l.44-.9c1.8.88,3.6,1.77,5.375,2.643Zm-647.718-.688c-.918-1.771-1.788-3.6-2.588-5.449l.917-.4c.791,1.824,1.651,3.636,2.559,5.387Zm636.956-4.587c-1.782-.868-3.6-1.751-5.4-2.622l.436-.9c1.8.872,3.617,1.754,5.4,2.623Zm-10.8-5.231c-1.789-.861-3.608-1.735-5.408-2.6l.432-.9c1.8.862,3.621,1.736,5.41,2.6Zm-630.956-1.248c-.666-1.869-1.283-3.8-1.837-5.738l.962-.274c.547,1.918,1.158,3.828,1.816,5.677Zm620.134-3.933c-1.795-.854-3.618-1.72-5.421-2.572l.428-.9c1.8.853,3.627,1.719,5.423,2.573Zm-10.85-5.134c-1.8-.848-3.631-1.706-5.437-2.551l.424-.906c1.808.846,3.638,1.7,5.439,2.552Zm-612.6-2.518c-.426-1.933-.806-3.925-1.128-5.922l.987-.159c.319,1.978.7,3.951,1.117,5.865Zm601.711-2.575c-1.8-.838-3.63-1.686-5.434-2.521l.42-.908c1.8.835,3.634,1.683,5.436,2.522Zm-10.872-5.03c-1.809-.832-3.643-1.673-5.452-2.5l.416-.909c1.811.828,3.645,1.669,5.454,2.5ZM-8936.6,674.5c-.21-1.963-.374-3.983-.489-6l1-.057c.113,2,.276,4.008.484,5.954Zm581.848-.705c-1.817-.826-3.659-1.661-5.476-2.483l.412-.911c1.817.822,3.66,1.657,5.478,2.484Zm-10.931-4.942c-1.816-.816-3.657-1.641-5.472-2.452l.408-.913c1.815.811,3.656,1.636,5.474,2.453Zm-10.959-4.9c-1.822-.809-3.669-1.627-5.489-2.431l.4-.915c1.82.8,3.668,1.622,5.49,2.432Zm-560.648-1.483c-.021-1.969,0-3.991.064-6.012l1,.032c-.063,2.006-.085,4.015-.063,5.97Zm549.679-3.36c-1.826-.8-3.677-1.611-5.5-2.406l.4-.917c1.823.8,3.675,1.6,5.5,2.407Zm-11.013-4.8c-1.825-.791-3.674-1.59-5.494-2.374l.4-.918c1.821.785,3.671,1.583,5.5,2.375Zm-537.294-3.793-1-.071c.14-1.968.32-3.988.537-6l.994.107C-8935.6,646.556-8935.775,648.564-8935.915,650.52Zm526.286-.948c-1.837-.786-3.7-1.58-5.53-2.359l.392-.92c1.833.779,3.694,1.573,5.532,2.36Zm-11.042-4.695c-1.837-.776-3.7-1.559-5.529-2.328l.387-.922c1.833.769,3.694,1.552,5.532,2.329Zm-11.074-4.646c-1.837-.766-3.7-1.538-5.529-2.3l.382-.924c1.833.758,3.694,1.531,5.532,2.3Zm-502.9-1.6-.99-.14c.275-1.949.591-3.947.936-5.937l.985.171C-8934.053,634.7-8934.366,636.688-8934.641,638.627Zm491.817-2.98c-1.847-.759-3.716-1.524-5.556-2.275l.377-.926c1.841.751,3.711,1.517,5.559,2.276Zm-11.107-4.531c-1.851-.75-3.724-1.505-5.567-2.246l.372-.928c1.845.741,3.719,1.5,5.571,2.247Zm-478.673-4.278-.979-.2c.392-1.931.82-3.909,1.274-5.878l.975.225C-8931.786,622.946-8932.213,624.915-8932.6,626.838Zm467.537-.2c-1.853-.739-3.728-1.484-5.573-2.214l.368-.93c1.846.73,3.722,1.476,5.575,2.215Zm-11.161-4.417c-1.855-.729-3.733-1.463-5.58-2.182l.362-.932c1.849.72,3.727,1.454,5.584,2.183Zm-11.175-4.351c-1.863-.719-3.747-1.444-5.6-2.154l.357-.934c1.855.71,3.74,1.435,5.6,2.155Zm-442.464-2.723-.963-.269c.543-1.948,1.143-3.886,1.78-5.758l.946.322C-8928.734,611.3-8929.328,613.219-8929.866,615.15Zm431.26-1.566c-1.867-.709-3.757-1.423-5.615-2.122l.353-.936c1.859.7,3.749,1.413,5.618,2.123Zm-11.23-4.224c-1.871-.7-3.764-1.4-5.625-2.086l.347-.938c1.862.687,3.756,1.39,5.628,2.087Zm-11.258-4.155c-1.874-.685-3.771-1.375-5.635-2.05l.341-.94c1.865.675,3.762,1.365,5.638,2.051Zm-404.916-1.347-.926-.379c.764-1.868,1.591-3.72,2.457-5.5l.9.437C-8924.437,600.176-8925.255,602.009-8926.011,603.857Zm393.636-2.735c-1.88-.673-3.781-1.351-5.649-2.013l.334-.943c1.869.663,3.771,1.34,5.652,2.014Zm-11.308-4.008c-1.885-.661-3.791-1.325-5.665-1.975l.328-.945c1.875.65,3.781,1.315,5.668,1.976Zm-11.335-3.929c-1.891-.648-3.8-1.3-5.679-1.934l.32-.947c1.879.636,3.791,1.287,5.683,1.935Zm-365.782-.051-.869-.5c1-1.747,2.062-3.474,3.166-5.133l.832.554C-8918.762,589.7-8919.814,591.407-8920.8,593.134Zm354.418-3.8c-1.895-.634-3.81-1.27-5.692-1.892l.313-.95c1.884.622,3.8,1.259,5.7,1.893Zm-11.391-3.761c-1.9-.619-3.821-1.241-5.709-1.847l.306-.952c1.889.607,3.811,1.229,5.713,1.848Zm-336.425-2.363-.792-.611c1.223-1.585,2.519-3.147,3.851-4.643l.747.665C-8911.708,580.1-8912.988,581.648-8914.2,583.214Zm325-1.307c-1.906-.6-3.831-1.209-5.723-1.8l.3-.955c1.893.591,3.819,1.2,5.727,1.8Zm-11.453-3.575c-1.91-.587-3.84-1.175-5.734-1.749l.289-.957c1.9.574,3.828,1.162,5.739,1.75Zm-11.483-3.473c-1.915-.57-3.851-1.14-5.751-1.7l.281-.96c1.9.556,3.838,1.127,5.755,1.7Zm-294.142-.544-.7-.716c1.426-1.392,2.926-2.759,4.458-4.063l.648.762C-8903.381,571.587-8904.863,572.939-8906.272,574.315Zm282.629-2.821c-1.923-.552-3.864-1.1-5.771-1.641l.271-.963c1.907.537,3.851,1.09,5.775,1.642Zm-11.542-3.25c-1.931-.533-3.879-1.065-5.792-1.582l.261-.965c1.915.517,3.865,1.05,5.8,1.583Zm-262.011-1.66-.6-.8c1.592-1.184,3.258-2.342,4.95-3.443l.546.838C-8893.973,564.267-8895.621,565.413-8897.2,566.584Zm250.427-1.471c-1.934-.511-3.886-1.022-5.8-1.516l.25-.968c1.918.5,3.871,1.006,5.808,1.518Zm-11.616-3c-1.938-.488-3.895-.975-5.813-1.446l.238-.971c1.921.472,3.879.959,5.819,1.448Zm-228.812-2.039-.494-.869c1.719-.978,3.508-1.931,5.319-2.832l.445.9C-8883.721,558.161-8885.494,559.106-8887.2,560.074Zm217.164-.821c-1.947-.465-3.911-.928-5.838-1.375l.226-.974c1.929.448,3.9.911,5.845,1.376Zm-11.677-2.709c-1.956-.44-3.93-.876-5.864-1.3l.213-.977c1.937.421,3.912.858,5.87,1.3Zm-194.8-1.8-.4-.917c1.81-.787,3.687-1.55,5.579-2.267l.354.935C-8872.854,553.21-8874.717,553.966-8876.512,554.747Zm183.076-.752c-1.959-.411-3.934-.818-5.87-1.209l.2-.98c1.938.391,3.916.8,5.877,1.21Zm-11.76-2.374c-1.965-.381-3.945-.756-5.887-1.115l.183-.983c1.943.36,3.927.736,5.895,1.117Zm-160.147-1.115-.312-.95c1.871-.616,3.807-1.21,5.753-1.764l.274.962C-8861.562,549.3-8863.484,549.893-8865.343,550.505Zm148.362-1.066c-1.976-.348-3.966-.69-5.916-1.016l.165-.986c1.952.326,3.946.668,5.925,1.017Zm-11.829-1.975c-1.979-.312-3.973-.615-5.925-.9l.146-.989c1.955.288,3.952.592,5.935.9Zm-125.038-.237-.237-.971c1.913-.467,3.888-.913,5.868-1.324l.2.979C-8849.982,546.32-8851.945,546.763-8853.848,547.227Zm113.17-1.511c-1.985-.272-3.984-.534-5.939-.78l.124-.992c1.96.246,3.962.509,5.951.781Zm-101.458-.928-.172-.985c1.942-.339,3.941-.656,5.943-.945l.143.99C-8838.214,544.136-8840.2,544.452-8842.136,544.789Zm89.574-.566c-2-.228-4.006-.445-5.971-.646l.1-.995c1.969.2,3.981.419,5.982.647Zm-77.717-1.146-.115-.993c1.959-.227,3.974-.434,5.988-.616l.089,1C-8826.321,542.645-8828.327,542.852-8830.278,543.078Zm65.779-.071c-2-.178-4-.344-5.962-.493l.075-1c1.966.149,3.976.315,5.976.494Zm-11.947-.9c-2.007-.124-4.021-.233-5.99-.324l.046-1c1.974.092,3.994.2,6.006.325Zm-41.91-.1-.066-1c1.965-.13,3.982-.242,6-.331l.045,1C-8814.389,541.758-8816.4,541.869-8818.356,542Zm29.935-.453c-2-.061-4.016-.106-5.979-.133l.014-1c1.969.027,3.986.072,6,.133Zm-17.974-.079-.023-1c1.974-.047,4-.075,6.016-.083l0,1C-8802.411,541.393-8804.429,541.421-8806.4,541.468Z" transform="translate(9346 11700)" fill="#707070"/>
    <path id="Trazado_172783" data-name="Trazado 172783" d="M-8625.664,558.53c-.823-.645-1.663-1.293-2.494-1.926l.606-.8c.834.636,1.677,1.287,2.5,1.935Zm-7.3-5.492c-1.612-1.165-3.261-2.324-4.9-3.445l.564-.825c1.646,1.125,3.3,2.29,4.92,3.46Zm-9.885-6.764c-1.668-1.08-3.372-2.152-5.065-3.186l.521-.853c1.7,1.039,3.412,2.116,5.088,3.2Zm-10.213-6.24c-1.723-.992-3.482-1.975-5.229-2.921l.477-.879c1.754.95,3.521,1.938,5.252,2.934Zm-10.528-5.7c-1.771-.9-3.578-1.79-5.373-2.644l.431-.9c1.8.858,3.617,1.751,5.4,2.655Zm-10.812-5.146c-1.813-.806-3.663-1.6-5.5-2.358l.382-.924c1.844.763,3.7,1.559,5.523,2.369Zm-11.064-4.576c-1.852-.71-3.739-1.407-5.612-2.07l.334-.943c1.881.666,3.777,1.366,5.637,2.079Zm-11.285-4c-1.886-.614-3.808-1.213-5.712-1.78l.285-.958c1.913.57,3.843,1.171,5.736,1.788Zm-11.476-3.418c-1.914-.518-3.865-1.019-5.8-1.491l.236-.972c1.94.473,3.9.977,5.821,1.5Zm-11.631-2.837c-1.939-.422-3.913-.827-5.868-1.2l.188-.982c1.963.377,3.945.783,5.892,1.207Zm-101.019-.872-.248-.969c.021-.005,2.122-.542,5.9-1.245l.183.983C-8818.781,512.95-8820.855,513.479-8820.876,513.484Zm89.26-1.388c-1.957-.327-3.948-.635-5.918-.915l.142-.99c1.978.282,3.977.591,5.941.919Zm-77.534-.836-.15-.989c1.94-.3,3.949-.571,5.969-.819l.122.993C-8805.221,510.692-8807.219,510.966-8809.15,511.26Zm65.676-.852c-1.971-.233-3.975-.445-5.955-.631l.094-1c1.988.187,4,.4,5.979.634Zm-53.784-.616-.1-1c1.971-.19,3.984-.359,5.984-.5l.071,1C-8793.291,509.434-8795.3,509.6-8797.259,509.792Zm41.861-.506c-1.98-.139-3.991-.257-5.977-.35l.046-1c1.994.093,4.013.212,6,.351Zm-29.922-.349-.047-1c1.987-.094,4.007-.165,6-.212l.023,1C-8781.327,508.773-8783.34,508.844-8785.319,508.937Zm17.96-.211c-1.987-.047-4-.07-5.989-.07v-1c1.994,0,4.018.024,6.013.07Z" transform="translate(9346 11700)" fill="#707070"/>
    <path id="Trazado_196135" data-name="Trazado 196135" d="M7.5,0,15,12H0Z" transform="translate(968.535 12238.037) rotate(137)" fill="#020202"/>
    <path id="Trazado_196136" data-name="Trazado 196136" d="M7.5,0,15,12H0Z" transform="matrix(-0.485, 0.875, -0.875, -0.485, 1115.961, 12424.846)" fill="#020202"/>
    <path id="Trazado_196137" data-name="Trazado 196137" d="M7.5,0,15,12H0Z" transform="matrix(0.469, 0.883, -0.883, 0.469, 731.596, 12440.058)" fill="#020202"/>
    <path id="Trazado_196138" data-name="Trazado 196138" d="M7.5,0,15,12H0Z" transform="translate(737.296 12262.38) rotate(132)" fill="#020202"/>
    <path id="Trazado_196279" data-name="Trazado 196279" d="M6.838.22a5.6,5.6,0,0,1-4.364-1.8A6.967,6.967,0,0,1,.844-6.442a6.967,6.967,0,0,1,1.63-4.865,5.6,5.6,0,0,1,4.364-1.8,5.7,5.7,0,0,1,3.577,1.134,4.136,4.136,0,0,1,1.661,2.988H10.318a2.609,2.609,0,0,0-1.059-1.942,3.874,3.874,0,0,0-2.4-.721,3.853,3.853,0,0,0-3.1,1.349A5.8,5.8,0,0,0,2.61-6.442a5.836,5.836,0,0,0,1.134,3.85A3.8,3.8,0,0,0,6.82-1.239a3.819,3.819,0,0,0,2.443-.738,2.885,2.885,0,0,0,1.055-2.109h1.758A4.337,4.337,0,0,1,10.459-.905,5.685,5.685,0,0,1,6.838.22ZM18-9.536a4.152,4.152,0,0,1,3.186,1.274,5.078,5.078,0,0,1,1.191,3.6,5.081,5.081,0,0,1-1.191,3.6A4.145,4.145,0,0,1,18,.22a4.134,4.134,0,0,1-3.177-1.279,5.081,5.081,0,0,1-1.191-3.6,5.078,5.078,0,0,1,1.191-3.6A4.142,4.142,0,0,1,18-9.536Zm0,8.455a2.371,2.371,0,0,0,1.925-.9,4.147,4.147,0,0,0,.738-2.676,4.163,4.163,0,0,0-.738-2.685A2.371,2.371,0,0,0,18-8.244a2.371,2.371,0,0,0-1.925.9,4.163,4.163,0,0,0-.738,2.685,4.147,4.147,0,0,0,.738,2.676A2.371,2.371,0,0,0,18-1.081Zm7.893-7.058a3.665,3.665,0,0,1,2.786-1.4q3.155,0,3.155,3.437V0H30.173V-6.029a2.611,2.611,0,0,0-.409-1.644,1.634,1.634,0,0,0-1.34-.5A3.467,3.467,0,0,0,25.893-6.68V0H24.231V-9.325h1.661ZM37.863.018a6.251,6.251,0,0,1-1.187.105,2.458,2.458,0,0,1-1.494-.365,1.525,1.525,0,0,1-.589-.936,8.314,8.314,0,0,1-.114-1.556V-8.024H33.328v-1.3h1.151v-2.32h1.652v2.32h1.512v1.3H36.132v5.379a1.98,1.98,0,0,0,.242,1.217.863.863,0,0,0,.664.259,4.714,4.714,0,0,0,.826-.07Zm5.344.2a4.392,4.392,0,0,1-3.3-1.288,4.943,4.943,0,0,1-1.248-3.59A5.048,5.048,0,0,1,39.863-8.24a4.119,4.119,0,0,1,3.16-1.3,4.152,4.152,0,0,1,3.186,1.274,5.078,5.078,0,0,1,1.191,3.6v.4H40.377a3.6,3.6,0,0,0,.892,2.4,2.641,2.641,0,0,0,1.938.782,2.864,2.864,0,0,0,1.569-.444,1.493,1.493,0,0,0,.734-1.261h1.714A3.092,3.092,0,0,1,45.918-.562,4.593,4.593,0,0,1,43.207.22ZM45.65-5.563a3.38,3.38,0,0,0-.905-2.013,2.407,2.407,0,0,0-1.723-.668,2.413,2.413,0,0,0-1.705.664,3.3,3.3,0,0,0-.905,2.017Zm5.265-2.575a3.665,3.665,0,0,1,2.786-1.4q3.155,0,3.155,3.437V0H55.2V-6.029a2.611,2.611,0,0,0-.409-1.644,1.634,1.634,0,0,0-1.34-.5A3.467,3.467,0,0,0,50.915-6.68V0H49.254V-9.325h1.661ZM63.229.22a4.392,4.392,0,0,1-3.3-1.288,4.943,4.943,0,0,1-1.248-3.59A5.048,5.048,0,0,1,59.884-8.24a4.119,4.119,0,0,1,3.16-1.3A4.152,4.152,0,0,1,66.23-8.262a5.078,5.078,0,0,1,1.191,3.6v.4H60.4a3.6,3.6,0,0,0,.892,2.4,2.641,2.641,0,0,0,1.938.782A2.864,2.864,0,0,0,64.8-1.525a1.493,1.493,0,0,0,.734-1.261h1.714A3.092,3.092,0,0,1,65.94-.562,4.593,4.593,0,0,1,63.229.22Zm2.443-5.783a3.38,3.38,0,0,0-.905-2.013,2.407,2.407,0,0,0-1.723-.668,2.413,2.413,0,0,0-1.705.664,3.3,3.3,0,0,0-.905,2.017Zm9.51,2.883V-7.11a3.292,3.292,0,0,0-2.452-1.134,1.974,1.974,0,0,0-1.7.918,4.815,4.815,0,0,0-.637,2.738,4.683,4.683,0,0,0,.6,2.615,1.9,1.9,0,0,0,1.666.892A3.155,3.155,0,0,0,75.182-2.681Zm0,1.564A3.353,3.353,0,0,1,72.519.22a3.364,3.364,0,0,1-2.83-1.3,5.6,5.6,0,0,1-1-3.507A5.439,5.439,0,0,1,69.807-8.2a3.529,3.529,0,0,1,2.817-1.332,3.708,3.708,0,0,1,2.558.932v-4.28h1.652V0H75.182Zm7.884-8.42a4.152,4.152,0,0,1,3.186,1.274,5.078,5.078,0,0,1,1.191,3.6,5.081,5.081,0,0,1-1.191,3.6A4.145,4.145,0,0,1,83.065.22a4.134,4.134,0,0,1-3.177-1.279,5.081,5.081,0,0,1-1.191-3.6,5.078,5.078,0,0,1,1.191-3.6A4.142,4.142,0,0,1,83.065-9.536Zm0,8.455a2.371,2.371,0,0,0,1.925-.9,4.147,4.147,0,0,0,.738-2.676,4.163,4.163,0,0,0-.738-2.685,2.371,2.371,0,0,0-1.925-.9,2.371,2.371,0,0,0-1.925.9A4.163,4.163,0,0,0,80.4-4.658a4.147,4.147,0,0,0,.738,2.676A2.371,2.371,0,0,0,83.065-1.081ZM94.14-7.813a3.712,3.712,0,0,0-1.011-.105,2.6,2.6,0,0,0-2.171,1.327V0H89.3V-9.325h1.661v1.3a2.961,2.961,0,0,1,2.426-1.512,4.426,4.426,0,0,1,.756.07Zm11.5.738a3.116,3.116,0,0,1,1.815,1.2,3.478,3.478,0,0,1,.637,2.083,3.747,3.747,0,0,1-1.222,2.9A4.327,4.327,0,0,1,103.834.22a4.352,4.352,0,0,1-2.962-.993A3.582,3.582,0,0,1,99.642-3.4h1.714A2.31,2.31,0,0,0,102-1.767a2.393,2.393,0,0,0,1.837.686,2.4,2.4,0,0,0,1.85-.747,2.737,2.737,0,0,0,.69-1.934,2.4,2.4,0,0,0-.716-1.868,2.992,2.992,0,0,0-2.087-.655h-.633V-7.576h.378q2.408,0,2.408-2.215a2,2,0,0,0-.527-1.494,2.028,2.028,0,0,0-1.485-.519,2.015,2.015,0,0,0-2.2,2.048H99.809a3.556,3.556,0,0,1,1.248-2.492,4.041,4.041,0,0,1,2.619-.857,3.9,3.9,0,0,1,2.742.936,3.127,3.127,0,0,1,1.02,2.413,2.965,2.965,0,0,1-.444,1.56A2.8,2.8,0,0,1,105.636-7.075Z" transform="translate(668.5 12373)" fill="#12263f"/>
  </g>
</svg>
