<svg xmlns="http://www.w3.org/2000/svg" width="642" height="295" viewBox="0 0 642 295">
  <g id="Grupo_79415" data-name="Grupo 79415" transform="translate(-479 -7873)">
    <path id="Trazado_172837" data-name="Trazado 172837" d="M13,0H180a13,13,0,0,1,13,13V159a13,13,0,0,1-13,13H13A13,13,0,0,1,0,159V13A13,13,0,0,1,13,0Z" transform="translate(575 7873)" fill="#fff"/>
    <g id="Grupo_75847" data-name="Grupo 75847" transform="translate(603.715 7937.445)">
      <path id="Trazado_163723" data-name="Trazado 163723" d="M222.707,253.24v32.2H177.85V261.1l8.41-7.856Z" transform="translate(-146.076 -253.054)" fill="#eb9595"/>
      <path id="Trazado_163723_-_Contorno" data-name="Trazado 163723 - Contorno" d="M186.063,252.74h37.144v33.2H177.35V260.879Zm36.144,1h-35.75l-8.107,7.573v23.63h43.857Z" transform="translate(-146.076 -253.054)" fill="#ce6666"/>
      <path id="Trazado_163724" data-name="Trazado 163724" d="M122.513,258.443" transform="translate(-114.89 -258.257)" fill="#eb9595"/>
      <rect id="Rectángulo_7223" data-name="Rectángulo 7223" width="76.631" height="48.212" rx="6" transform="translate(0 6.326)" fill="#eb9595"/>
      <path id="Rectángulo_7223_-_Contorno" data-name="Rectángulo 7223 - Contorno" d="M6-.5H70.631a6.507,6.507,0,0,1,6.5,6.5V42.212a6.507,6.507,0,0,1-6.5,6.5H6a6.507,6.507,0,0,1-6.5-6.5V6A6.507,6.507,0,0,1,6-.5ZM70.631,47.712a5.506,5.506,0,0,0,5.5-5.5V6a5.506,5.506,0,0,0-5.5-5.5H6A5.506,5.506,0,0,0,.5,6V42.212a5.506,5.506,0,0,0,5.5,5.5Z" transform="translate(0 6.326)" fill="#ce6666"/>
      <path id="Trazado_163725" data-name="Trazado 163725" d="M7.349,5.883,0,6.14,6.14,0Z" transform="matrix(0.999, 0.035, -0.035, 0.999, 34.43, 0)" fill="#950707"/>
    </g>
    <g id="Grupo_75848" data-name="Grupo 75848" transform="translate(630.285 7952.797)">
      <path id="Trazado_163723-2" data-name="Trazado 163723" d="M222.707,253.24v32.2H177.85V261.1l8.41-7.856Z" transform="translate(-146.076 -253.054)" fill="#eb9595"/>
      <path id="Trazado_163723_-_Contorno-2" data-name="Trazado 163723 - Contorno" d="M186.063,252.74h37.144v33.2H177.35V260.879Zm36.144,1h-35.75l-8.107,7.573v23.63h43.857Z" transform="translate(-146.076 -253.054)" fill="#ce6666"/>
      <path id="Trazado_163724-2" data-name="Trazado 163724" d="M122.513,258.443" transform="translate(-114.89 -258.257)" fill="#eb9595"/>
      <rect id="Rectángulo_7223-2" data-name="Rectángulo 7223" width="76.631" height="48.212" rx="6" transform="translate(0 6.326)" fill="#eb9595"/>
      <path id="Rectángulo_7223_-_Contorno-2" data-name="Rectángulo 7223 - Contorno" d="M6-.5H70.631a6.507,6.507,0,0,1,6.5,6.5V42.212a6.507,6.507,0,0,1-6.5,6.5H6a6.507,6.507,0,0,1-6.5-6.5V6A6.507,6.507,0,0,1,6-.5ZM70.631,47.712a5.506,5.506,0,0,0,5.5-5.5V6a5.506,5.506,0,0,0-5.5-5.5H6A5.506,5.506,0,0,0,.5,6V42.212a5.506,5.506,0,0,0,5.5,5.5Z" transform="translate(0 6.326)" fill="#ce6666"/>
      <path id="Trazado_163725-2" data-name="Trazado 163725" d="M7.349,5.883,0,6.14,6.14,0Z" transform="matrix(0.999, 0.035, -0.035, 0.999, 34.43, 0)" fill="#950707"/>
    </g>
    <g id="Grupo_75849" data-name="Grupo 75849" transform="translate(656.855 7972.533)">
      <path id="Trazado_163723-3" data-name="Trazado 163723" d="M222.707,253.24v32.2H177.85V261.1l8.41-7.856Z" transform="translate(-146.076 -253.054)" fill="#eb9595"/>
      <path id="Trazado_163723_-_Contorno-3" data-name="Trazado 163723 - Contorno" d="M186.063,252.74h37.144v33.2H177.35V260.879Zm36.144,1h-35.75l-8.107,7.573v23.63h43.857Z" transform="translate(-146.076 -253.054)" fill="#ce6666"/>
      <path id="Trazado_163724-3" data-name="Trazado 163724" d="M122.513,258.443" transform="translate(-114.89 -258.257)" fill="#eb9595"/>
      <rect id="Rectángulo_7223-3" data-name="Rectángulo 7223" width="76.631" height="48.212" rx="6" transform="translate(0 6.326)" fill="#eb9595"/>
      <path id="Rectángulo_7223_-_Contorno-3" data-name="Rectángulo 7223 - Contorno" d="M6-.5H70.631a6.507,6.507,0,0,1,6.5,6.5V42.212a6.507,6.507,0,0,1-6.5,6.5H6a6.507,6.507,0,0,1-6.5-6.5V6A6.507,6.507,0,0,1,6-.5ZM70.631,47.712a5.506,5.506,0,0,0,5.5-5.5V6a5.506,5.506,0,0,0-5.5-5.5H6A5.506,5.506,0,0,0,.5,6V42.212a5.506,5.506,0,0,0,5.5,5.5Z" transform="translate(0 6.326)" fill="#ce6666"/>
      <path id="Trazado_163725-3" data-name="Trazado 163725" d="M7.349,5.883,0,6.14,6.14,0Z" transform="matrix(0.999, 0.035, -0.035, 0.999, 34.43, 0)" fill="#950707"/>
    </g>
    <path id="Trazado_172838" data-name="Trazado 172838" d="M2.82-4.453V0H1.32V-11.375h4.2a4.215,4.215,0,0,1,2.926.953A3.231,3.231,0,0,1,9.5-7.9,3.189,3.189,0,0,1,8.465-5.348,4.4,4.4,0,0,1,5.5-4.453Zm0-1.227h2.7a2.7,2.7,0,0,0,1.844-.566A2.069,2.069,0,0,0,8-7.883a2.138,2.138,0,0,0-.641-1.625A2.528,2.528,0,0,0,5.6-10.141H2.82ZM16.32,0a3.036,3.036,0,0,1-.2-.891A3.225,3.225,0,0,1,13.711.156,2.984,2.984,0,0,1,11.66-.551a2.287,2.287,0,0,1-.8-1.793,2.39,2.39,0,0,1,1-2.051,4.733,4.733,0,0,1,2.824-.73h1.406v-.664A1.623,1.623,0,0,0,15.641-7,1.821,1.821,0,0,0,14.3-7.445a2.107,2.107,0,0,0-1.3.391,1.151,1.151,0,0,0-.523.945H11.031a2,2,0,0,1,.449-1.223A3.066,3.066,0,0,1,12.7-8.266a4.1,4.1,0,0,1,1.691-.344,3.342,3.342,0,0,1,2.289.73,2.635,2.635,0,0,1,.859,2.012v3.891a4.757,4.757,0,0,0,.3,1.852V0Zm-2.4-1.1a2.54,2.54,0,0,0,1.289-.352,2.127,2.127,0,0,0,.883-.914V-4.1H14.961Q12.3-4.1,12.3-2.547a1.316,1.316,0,0,0,.453,1.063A1.742,1.742,0,0,0,13.922-1.1Zm5.531-3.2a4.961,4.961,0,0,1,.914-3.152,2.962,2.962,0,0,1,2.453-1.16A2.96,2.96,0,0,1,25.188-7.6l.063-.852h1.328V3.25H25.133V-.781A3.033,3.033,0,0,1,22.8.156a2.915,2.915,0,0,1-2.441-1.191,5.072,5.072,0,0,1-.91-3.16Zm1.445.164a3.761,3.761,0,0,0,.613,2.281,1.951,1.951,0,0,0,1.652.828,2.164,2.164,0,0,0,1.969-1.141V-6.3A2.171,2.171,0,0,0,23.18-7.422a1.965,1.965,0,0,0-1.664.832A4.094,4.094,0,0,0,20.9-4.133Zm13.219,3.3a3.07,3.07,0,0,1-2.477.992,2.628,2.628,0,0,1-2.059-.785,3.4,3.4,0,0,1-.715-2.324v-5.5h1.445v5.461q0,1.922,1.563,1.922a2.163,2.163,0,0,0,2.2-1.234V-8.453h1.445V0H34.148Zm7.109.992a3.693,3.693,0,0,1-2.8-1.129,4.19,4.19,0,0,1-1.078-3.02v-.266a5.073,5.073,0,0,1,.48-2.246,3.748,3.748,0,0,1,1.344-1.547,3.378,3.378,0,0,1,1.871-.559,3.166,3.166,0,0,1,2.563,1.086,4.7,4.7,0,0,1,.914,3.109v.6H38.8a3,3,0,0,0,.73,2.02,2.3,2.3,0,0,0,1.777.77,2.517,2.517,0,0,0,1.3-.312,3.259,3.259,0,0,0,.93-.828l.883.688A3.55,3.55,0,0,1,41.227.156Zm-.18-7.578a1.928,1.928,0,0,0-1.469.637A3.1,3.1,0,0,0,38.844-5h4.234v-.109a2.753,2.753,0,0,0-.594-1.707A1.815,1.815,0,0,0,41.047-7.422ZM48.156-10.5v2.047h1.578v1.117H48.156v5.242a1.171,1.171,0,0,0,.211.762.888.888,0,0,0,.719.254,3.5,3.5,0,0,0,.688-.094V0a4.19,4.19,0,0,1-1.109.156A1.8,1.8,0,0,1,47.2-.43a2.517,2.517,0,0,1-.492-1.664V-7.336H45.172V-8.453h1.539V-10.5ZM54.93.156a3.693,3.693,0,0,1-2.8-1.129,4.19,4.19,0,0,1-1.078-3.02v-.266a5.073,5.073,0,0,1,.48-2.246,3.748,3.748,0,0,1,1.344-1.547,3.378,3.378,0,0,1,1.871-.559,3.166,3.166,0,0,1,2.563,1.086,4.7,4.7,0,0,1,.914,3.109v.6H52.5a3,3,0,0,0,.73,2.02,2.3,2.3,0,0,0,1.777.77,2.517,2.517,0,0,0,1.3-.312,3.259,3.259,0,0,0,.93-.828l.883.688A3.55,3.55,0,0,1,54.93.156Zm-.18-7.578a1.928,1.928,0,0,0-1.469.637A3.1,3.1,0,0,0,52.547-5h4.234v-.109a2.753,2.753,0,0,0-.594-1.707A1.815,1.815,0,0,0,54.75-7.422Z" transform="translate(667 8006.982)" fill="#12263f"/>
    <path id="Trazado_172839" data-name="Trazado 172839" d="M3.719-11.375,7-2.656l3.273-8.719h2.555V0H10.859V-3.75l.2-5.016L7.7,0H6.281L2.93-8.758l.2,5.008V0H1.156V-11.375ZM14.625-4.3a4.984,4.984,0,0,1,.492-2.238A3.6,3.6,0,0,1,16.5-8.074a3.9,3.9,0,0,1,2.047-.535,3.692,3.692,0,0,1,2.777,1.1,4.333,4.333,0,0,1,1.152,2.922l.008.445A5.029,5.029,0,0,1,22-1.906,3.551,3.551,0,0,1,20.629-.383a3.925,3.925,0,0,1-2.066.539A3.667,3.667,0,0,1,15.7-1.035a4.563,4.563,0,0,1-1.074-3.176Zm1.9.164A3.406,3.406,0,0,0,17.063-2.1a1.752,1.752,0,0,0,1.5.738,1.733,1.733,0,0,0,1.5-.75,3.762,3.762,0,0,0,.535-2.2,3.362,3.362,0,0,0-.551-2.031,1.759,1.759,0,0,0-1.5-.75,1.743,1.743,0,0,0-1.477.738A3.691,3.691,0,0,0,16.523-4.141Zm9.328-4.312.055.977a3.039,3.039,0,0,1,2.461-1.133q2.641,0,2.688,3.023V0h-1.9V-5.477a1.741,1.741,0,0,0-.348-1.191,1.462,1.462,0,0,0-1.137-.387,1.829,1.829,0,0,0-1.711,1.039V0h-1.9V-8.453ZM32.633-4.3a4.984,4.984,0,0,1,.492-2.238,3.6,3.6,0,0,1,1.383-1.531,3.9,3.9,0,0,1,2.047-.535,3.692,3.692,0,0,1,2.777,1.1,4.333,4.333,0,0,1,1.152,2.922l.008.445a5.029,5.029,0,0,1-.48,2.234A3.551,3.551,0,0,1,38.637-.383,3.925,3.925,0,0,1,36.57.156a3.667,3.667,0,0,1-2.863-1.191,4.563,4.563,0,0,1-1.074-3.176Zm1.9.164A3.406,3.406,0,0,0,35.07-2.1a1.752,1.752,0,0,0,1.5.738,1.733,1.733,0,0,0,1.5-.75A3.762,3.762,0,0,0,38.6-4.3a3.362,3.362,0,0,0-.551-2.031,1.759,1.759,0,0,0-1.5-.75,1.743,1.743,0,0,0-1.477.738A3.691,3.691,0,0,0,34.531-4.141ZM44.117,0h-1.9V-12h1.9Zm4.109,0h-1.9V-8.453h1.9Zm-.359-11.945h2.164L47.867-9.578H46.344Zm4.9,1.438v2.055h1.492v1.406H52.766v4.719a1.039,1.039,0,0,0,.191.7.888.888,0,0,0,.684.215,2.924,2.924,0,0,0,.664-.078V-.023a4.676,4.676,0,0,1-1.25.18q-2.187,0-2.187-2.414V-7.047H49.477V-8.453h1.391v-2.055ZM57.727,0h-1.9V-8.453h1.9ZM55.711-10.648a1.008,1.008,0,0,1,.277-.727,1.048,1.048,0,0,1,.793-.289,1.061,1.061,0,0,1,.8.289,1,1,0,0,1,.281.727.977.977,0,0,1-.281.715,1.069,1.069,0,0,1-.8.285,1.056,1.056,0,0,1-.793-.285A.984.984,0,0,1,55.711-10.648Zm7.555,9.289a1.716,1.716,0,0,0,1.18-.414,1.415,1.415,0,0,0,.5-1.023h1.789a2.789,2.789,0,0,1-.492,1.473,3.228,3.228,0,0,1-1.25,1.082,3.725,3.725,0,0,1-1.7.4A3.6,3.6,0,0,1,60.477-.992a4.555,4.555,0,0,1-1.039-3.172v-.2a4.479,4.479,0,0,1,1.031-3.09,3.571,3.571,0,0,1,2.813-1.16,3.473,3.473,0,0,1,2.457.879,3.148,3.148,0,0,1,1,2.309H64.945a1.738,1.738,0,0,0-.5-1.2,1.6,1.6,0,0,0-1.184-.469,1.671,1.671,0,0,0-1.422.668,3.408,3.408,0,0,0-.508,2.027v.3a3.465,3.465,0,0,0,.5,2.051A1.669,1.669,0,0,0,63.266-1.359ZM67.813-4.3A4.984,4.984,0,0,1,68.3-6.543a3.6,3.6,0,0,1,1.383-1.531,3.9,3.9,0,0,1,2.047-.535,3.692,3.692,0,0,1,2.777,1.1,4.333,4.333,0,0,1,1.152,2.922l.008.445a5.029,5.029,0,0,1-.48,2.234A3.551,3.551,0,0,1,73.816-.383,3.925,3.925,0,0,1,71.75.156a3.667,3.667,0,0,1-2.863-1.191,4.563,4.563,0,0,1-1.074-3.176Zm1.9.164A3.406,3.406,0,0,0,70.25-2.1a1.752,1.752,0,0,0,1.5.738,1.733,1.733,0,0,0,1.5-.75,3.762,3.762,0,0,0,.535-2.2,3.362,3.362,0,0,0-.551-2.031,1.759,1.759,0,0,0-1.5-.75,1.743,1.743,0,0,0-1.477.738A3.691,3.691,0,0,0,69.711-4.141Zm11.578-.484a11.9,11.9,0,0,1,.484-3.426,9.4,9.4,0,0,1,1.422-2.9,5.646,5.646,0,0,1,1.984-1.793l.375,1.109A5.8,5.8,0,0,0,83.77-9.082a11.424,11.424,0,0,0-.746,3.926l-.008.672a12.42,12.42,0,0,0,.668,4.223,6.224,6.224,0,0,0,1.871,2.824L85.18,3.617a5.655,5.655,0,0,1-1.988-1.8,9.4,9.4,0,0,1-1.422-2.9A12.374,12.374,0,0,1,81.289-4.625Zm9.023,3.266a1.716,1.716,0,0,0,1.18-.414,1.415,1.415,0,0,0,.5-1.023h1.789a2.789,2.789,0,0,1-.492,1.473,3.228,3.228,0,0,1-1.25,1.082,3.725,3.725,0,0,1-1.7.4A3.6,3.6,0,0,1,87.523-.992a4.555,4.555,0,0,1-1.039-3.172v-.2a4.479,4.479,0,0,1,1.031-3.09,3.571,3.571,0,0,1,2.813-1.16,3.473,3.473,0,0,1,2.457.879,3.148,3.148,0,0,1,1,2.309H91.992a1.738,1.738,0,0,0-.5-1.2,1.6,1.6,0,0,0-1.184-.469,1.671,1.671,0,0,0-1.422.668,3.408,3.408,0,0,0-.508,2.027v.3a3.465,3.465,0,0,0,.5,2.051A1.669,1.669,0,0,0,90.313-1.359ZM94.859-4.3a4.984,4.984,0,0,1,.492-2.238,3.6,3.6,0,0,1,1.383-1.531,3.9,3.9,0,0,1,2.047-.535,3.692,3.692,0,0,1,2.777,1.1,4.333,4.333,0,0,1,1.152,2.922l.008.445a5.029,5.029,0,0,1-.48,2.234,3.551,3.551,0,0,1-1.375,1.523A3.925,3.925,0,0,1,98.8.156a3.667,3.667,0,0,1-2.863-1.191,4.563,4.563,0,0,1-1.074-3.176Zm1.9.164A3.406,3.406,0,0,0,97.3-2.1a1.752,1.752,0,0,0,1.5.738,1.733,1.733,0,0,0,1.5-.75,3.762,3.762,0,0,0,.535-2.2,3.362,3.362,0,0,0-.551-2.031,1.759,1.759,0,0,0-1.5-.75,1.743,1.743,0,0,0-1.477.738A3.691,3.691,0,0,0,96.758-4.141Zm7.211-.148a5.026,5.026,0,0,1,.906-3.137,2.9,2.9,0,0,1,2.43-1.184,2.759,2.759,0,0,1,2.172.938V-12h1.9V0h-1.719l-.094-.875A2.8,2.8,0,0,1,107.289.156a2.887,2.887,0,0,1-2.4-1.2A5.21,5.21,0,0,1,103.969-4.289Zm1.9.164a3.519,3.519,0,0,0,.5,2.012,1.61,1.61,0,0,0,1.41.723,1.793,1.793,0,0,0,1.7-1.039V-6.039a1.766,1.766,0,0,0-1.687-1.016,1.622,1.622,0,0,0-1.422.73A3.918,3.918,0,0,0,105.867-4.125ZM117.078.156A3.928,3.928,0,0,1,114.152-.98a4.124,4.124,0,0,1-1.121-3.027v-.234A5.072,5.072,0,0,1,113.52-6.5a3.716,3.716,0,0,1,1.371-1.551,3.625,3.625,0,0,1,1.969-.555,3.318,3.318,0,0,1,2.668,1.1,4.658,4.658,0,0,1,.941,3.117v.766h-5.523a2.539,2.539,0,0,0,.7,1.656,2.1,2.1,0,0,0,1.543.609,2.571,2.571,0,0,0,2.125-1.055l1.023.977A3.418,3.418,0,0,1,118.98-.262,4.244,4.244,0,0,1,117.078.156Zm-.227-7.242a1.6,1.6,0,0,0-1.262.547,2.835,2.835,0,0,0-.613,1.523h3.617v-.141a2.307,2.307,0,0,0-.508-1.441A1.586,1.586,0,0,0,116.852-7.086ZM125.6-4.5a11.754,11.754,0,0,1-.477,3.348,9.485,9.485,0,0,1-1.445,2.938,5.66,5.66,0,0,1-2.023,1.832l-.375-1.055a6,6,0,0,0,1.855-2.77,12.3,12.3,0,0,0,.684-4.254v-.18a12.484,12.484,0,0,0-.594-3.957,6.98,6.98,0,0,0-1.7-2.863l-.242-.219.375-1.062a5.6,5.6,0,0,1,1.938,1.719,9.326,9.326,0,0,1,1.438,2.762,11.5,11.5,0,0,1,.563,3.152Z" transform="translate(608 7926)" fill="#12263f"/>
    <path id="Trazado_172840" data-name="Trazado 172840" d="M9410.148,11757.813H9346v-39.6h64.147V11700l64.939,37.619-64.939,37.617Z" transform="translate(-8559 -3786.854)" fill="#26cb99"/>
    <path id="Trazado_172841" data-name="Trazado 172841" d="M9.688-3.609A4.185,4.185,0,0,1,8.355-.824a4.365,4.365,0,0,1-2.98.98,4.008,4.008,0,0,1-3.23-1.445A5.815,5.815,0,0,1,.93-5.156V-6.25A6.481,6.481,0,0,1,1.5-9.039,4.231,4.231,0,0,1,3.1-10.887a4.47,4.47,0,0,1,2.406-.645A4.11,4.11,0,0,1,8.414-10.52a4.235,4.235,0,0,1,1.273,2.8H8.18a3.254,3.254,0,0,0-.848-1.969A2.569,2.569,0,0,0,5.508-10.3,2.685,2.685,0,0,0,3.254-9.234a4.875,4.875,0,0,0-.816,3.023v1.1a5.011,5.011,0,0,0,.773,2.945A2.5,2.5,0,0,0,5.375-1.07a2.887,2.887,0,0,0,1.918-.566A3.143,3.143,0,0,0,8.18-3.609Zm1.438-.7a4.993,4.993,0,0,1,.488-2.234A3.643,3.643,0,0,1,12.973-8.07a3.7,3.7,0,0,1,1.988-.539,3.565,3.565,0,0,1,2.793,1.2,4.6,4.6,0,0,1,1.066,3.18v.1a5.036,5.036,0,0,1-.473,2.215A3.589,3.589,0,0,1,17-.391a3.743,3.743,0,0,1-2.02.547,3.556,3.556,0,0,1-2.785-1.2A4.575,4.575,0,0,1,11.125-4.2Zm1.453.172a3.616,3.616,0,0,0,.652,2.258,2.088,2.088,0,0,0,1.746.852,2.075,2.075,0,0,0,1.75-.863A3.955,3.955,0,0,0,17.375-4.3a3.61,3.61,0,0,0-.66-2.254,2.1,2.1,0,0,0-1.754-.863,2.075,2.075,0,0,0-1.727.852A3.925,3.925,0,0,0,12.578-4.133Zm9.414-4.32.039.938a3.122,3.122,0,0,1,2.508-1.094A2.417,2.417,0,0,1,26.953-7.25a3.2,3.2,0,0,1,1.1-.984,3.242,3.242,0,0,1,1.6-.375q2.781,0,2.828,2.945V0H31.031V-5.578a1.941,1.941,0,0,0-.414-1.355,1.823,1.823,0,0,0-1.391-.449,1.916,1.916,0,0,0-1.336.48,1.949,1.949,0,0,0-.617,1.293V0H25.82V-5.539a1.613,1.613,0,0,0-1.8-1.844A1.934,1.934,0,0,0,22.07-6.172V0H20.625V-8.453Zm19.8,4.32a5.062,5.062,0,0,1-.883,3.109A2.829,2.829,0,0,1,38.523.156,3.1,3.1,0,0,1,36.1-.82V3.25H34.656v-11.7h1.32l.07.938A2.977,2.977,0,0,1,38.5-8.609a2.882,2.882,0,0,1,2.41,1.148,5.117,5.117,0,0,1,.887,3.2ZM40.352-4.3a3.735,3.735,0,0,0-.609-2.258,1.963,1.963,0,0,0-1.672-.828A2.125,2.125,0,0,0,36.1-6.219V-2.18a2.129,2.129,0,0,0,1.984,1.156,1.954,1.954,0,0,0,1.652-.824A4.077,4.077,0,0,0,40.352-4.3ZM45.2,0H43.758V-8.453H45.2ZM43.641-10.7a.863.863,0,0,1,.215-.594.807.807,0,0,1,.637-.242.819.819,0,0,1,.641.242.854.854,0,0,1,.219.594.826.826,0,0,1-.219.586.834.834,0,0,1-.641.234.821.821,0,0,1-.637-.234A.834.834,0,0,1,43.641-10.7ZM49.086,0H47.641V-12h1.445Zm7.531,0a3.036,3.036,0,0,1-.2-.891A3.225,3.225,0,0,1,54.008.156a2.984,2.984,0,0,1-2.051-.707,2.287,2.287,0,0,1-.8-1.793,2.39,2.39,0,0,1,1-2.051,4.733,4.733,0,0,1,2.824-.73h1.406v-.664A1.623,1.623,0,0,0,55.938-7,1.821,1.821,0,0,0,54.6-7.445a2.107,2.107,0,0,0-1.3.391,1.151,1.151,0,0,0-.523.945H51.328a2,2,0,0,1,.449-1.223A3.066,3.066,0,0,1,53-8.266a4.1,4.1,0,0,1,1.691-.344,3.342,3.342,0,0,1,2.289.73,2.635,2.635,0,0,1,.859,2.012v3.891a4.757,4.757,0,0,0,.3,1.852V0Zm-2.4-1.1a2.54,2.54,0,0,0,1.289-.352,2.127,2.127,0,0,0,.883-.914V-4.1H55.258Q52.6-4.1,52.6-2.547a1.316,1.316,0,0,0,.453,1.063A1.742,1.742,0,0,0,54.219-1.1Zm9.273.078a2.082,2.082,0,0,0,1.352-.469,1.649,1.649,0,0,0,.641-1.172h1.367a2.621,2.621,0,0,1-.5,1.383,3.293,3.293,0,0,1-1.23,1.047,3.55,3.55,0,0,1-1.629.391A3.482,3.482,0,0,1,60.746-1a4.59,4.59,0,0,1-1.02-3.152v-.242a5.089,5.089,0,0,1,.453-2.2,3.451,3.451,0,0,1,1.3-1.492,3.7,3.7,0,0,1,2-.531,3.39,3.39,0,0,1,2.363.852,3.043,3.043,0,0,1,1,2.211H65.484a1.992,1.992,0,0,0-.621-1.348,1.932,1.932,0,0,0-1.379-.527,2.023,2.023,0,0,0-1.707.793,3.724,3.724,0,0,0-.605,2.293v.273a3.65,3.65,0,0,0,.6,2.25A2.033,2.033,0,0,0,63.492-1.023ZM70.047,0H68.6V-8.453h1.445ZM68.484-10.7a.863.863,0,0,1,.215-.594.807.807,0,0,1,.637-.242.819.819,0,0,1,.641.242.854.854,0,0,1,.219.594.826.826,0,0,1-.219.586.834.834,0,0,1-.641.234.821.821,0,0,1-.637-.234A.834.834,0,0,1,68.484-10.7ZM71.977-4.3a4.993,4.993,0,0,1,.488-2.234A3.643,3.643,0,0,1,73.824-8.07a3.7,3.7,0,0,1,1.988-.539,3.565,3.565,0,0,1,2.793,1.2,4.6,4.6,0,0,1,1.066,3.18v.1A5.036,5.036,0,0,1,79.2-1.918,3.589,3.589,0,0,1,77.848-.391a3.743,3.743,0,0,1-2.02.547,3.556,3.556,0,0,1-2.785-1.2A4.575,4.575,0,0,1,71.977-4.2Zm1.453.172a3.616,3.616,0,0,0,.652,2.258,2.088,2.088,0,0,0,1.746.852,2.075,2.075,0,0,0,1.75-.863A3.955,3.955,0,0,0,78.227-4.3a3.61,3.61,0,0,0-.66-2.254,2.1,2.1,0,0,0-1.754-.863,2.075,2.075,0,0,0-1.727.852A3.925,3.925,0,0,0,73.43-4.133ZM76.469-12h1.75L76.125-9.7H74.961Zm6.383,3.547L82.9-7.391A3.08,3.08,0,0,1,85.43-8.609q2.68,0,2.7,3.023V0H86.688V-5.594a1.946,1.946,0,0,0-.418-1.352,1.675,1.675,0,0,0-1.277-.437,2.086,2.086,0,0,0-1.234.375,2.546,2.546,0,0,0-.828.984V0H81.484V-8.453Z" transform="translate(798 7956.264)" fill="#12263f"/>
    <path id="Trazado_172842" data-name="Trazado 172842" d="M13,0H180a13,13,0,0,1,13,13V65a13,13,0,0,1-13,13H13A13,13,0,0,1,0,65V13A13,13,0,0,1,13,0Z" transform="translate(928 7913)" fill="#607b82"/>
    <path id="Trazado_172843" data-name="Trazado 172843" d="M2.82-4.453V0H1.32V-11.375h4.2a4.215,4.215,0,0,1,2.926.953A3.231,3.231,0,0,1,9.5-7.9,3.189,3.189,0,0,1,8.465-5.348,4.4,4.4,0,0,1,5.5-4.453Zm0-1.227h2.7a2.7,2.7,0,0,0,1.844-.566A2.069,2.069,0,0,0,8-7.883a2.138,2.138,0,0,0-.641-1.625A2.528,2.528,0,0,0,5.6-10.141H2.82ZM15.273-7.156a4.331,4.331,0,0,0-.711-.055A1.9,1.9,0,0,0,12.633-6V0H11.188V-8.453h1.406l.023.977a2.251,2.251,0,0,1,2.016-1.133,1.477,1.477,0,0,1,.641.109ZM16.063-4.3a4.993,4.993,0,0,1,.488-2.234A3.643,3.643,0,0,1,17.91-8.07,3.7,3.7,0,0,1,19.9-8.609a3.565,3.565,0,0,1,2.793,1.2,4.6,4.6,0,0,1,1.066,3.18v.1a5.036,5.036,0,0,1-.473,2.215A3.589,3.589,0,0,1,21.934-.391a3.743,3.743,0,0,1-2.02.547,3.556,3.556,0,0,1-2.785-1.2A4.575,4.575,0,0,1,16.063-4.2Zm1.453.172a3.616,3.616,0,0,0,.652,2.258,2.088,2.088,0,0,0,1.746.852,2.075,2.075,0,0,0,1.75-.863A3.955,3.955,0,0,0,22.313-4.3a3.61,3.61,0,0,0-.66-2.254A2.1,2.1,0,0,0,19.9-7.422a2.075,2.075,0,0,0-1.727.852A3.925,3.925,0,0,0,17.516-4.133ZM25.227-4.3a4.968,4.968,0,0,1,.914-3.145,2.923,2.923,0,0,1,2.422-1.168,2.908,2.908,0,0,1,2.414,1.094l.07-.937h1.32V-.2a3.439,3.439,0,0,1-.973,2.586,3.589,3.589,0,0,1-2.613.945,4.348,4.348,0,0,1-1.789-.391,3.08,3.08,0,0,1-1.336-1.07L26.406,1A2.826,2.826,0,0,0,28.68,2.148a2.214,2.214,0,0,0,1.645-.594,2.269,2.269,0,0,0,.59-1.672V-.844a2.971,2.971,0,0,1-2.367,1,2.887,2.887,0,0,1-2.4-1.2A5.224,5.224,0,0,1,25.227-4.3Zm1.453.164a3.79,3.79,0,0,0,.586,2.246,1.9,1.9,0,0,0,1.641.816,2.117,2.117,0,0,0,2.008-1.242V-6.172a2.142,2.142,0,0,0-1.992-1.211,1.921,1.921,0,0,0-1.648.82A4.128,4.128,0,0,0,26.68-4.133ZM38.633-7.156a4.331,4.331,0,0,0-.711-.055A1.9,1.9,0,0,0,35.992-6V0H34.547V-8.453h1.406l.023.977a2.251,2.251,0,0,1,2.016-1.133,1.477,1.477,0,0,1,.641.109ZM44.867,0a3.036,3.036,0,0,1-.2-.891A3.225,3.225,0,0,1,42.258.156a2.984,2.984,0,0,1-2.051-.707,2.287,2.287,0,0,1-.8-1.793,2.39,2.39,0,0,1,1-2.051,4.733,4.733,0,0,1,2.824-.73h1.406v-.664A1.623,1.623,0,0,0,44.188-7a1.821,1.821,0,0,0-1.336-.449,2.107,2.107,0,0,0-1.3.391,1.151,1.151,0,0,0-.523.945H39.578a2,2,0,0,1,.449-1.223,3.066,3.066,0,0,1,1.219-.934,4.1,4.1,0,0,1,1.691-.344,3.342,3.342,0,0,1,2.289.73,2.635,2.635,0,0,1,.859,2.012v3.891a4.757,4.757,0,0,0,.3,1.852V0Zm-2.4-1.1a2.54,2.54,0,0,0,1.289-.352,2.127,2.127,0,0,0,.883-.914V-4.1H43.508q-2.656,0-2.656,1.555A1.316,1.316,0,0,0,41.3-1.484,1.742,1.742,0,0,0,42.469-1.1Zm7.242-7.352.039.938a3.122,3.122,0,0,1,2.508-1.094A2.417,2.417,0,0,1,54.672-7.25a3.2,3.2,0,0,1,1.1-.984,3.242,3.242,0,0,1,1.6-.375q2.781,0,2.828,2.945V0H58.75V-5.578a1.941,1.941,0,0,0-.414-1.355,1.823,1.823,0,0,0-1.391-.449,1.916,1.916,0,0,0-1.336.48,1.949,1.949,0,0,0-.617,1.293V0H53.539V-5.539a1.613,1.613,0,0,0-1.8-1.844,1.934,1.934,0,0,0-1.945,1.211V0H48.344V-8.453ZM67.594,0a3.036,3.036,0,0,1-.2-.891A3.225,3.225,0,0,1,64.984.156a2.984,2.984,0,0,1-2.051-.707,2.287,2.287,0,0,1-.8-1.793,2.39,2.39,0,0,1,1-2.051,4.733,4.733,0,0,1,2.824-.73h1.406v-.664A1.623,1.623,0,0,0,66.914-7a1.821,1.821,0,0,0-1.336-.449,2.108,2.108,0,0,0-1.3.391,1.151,1.151,0,0,0-.523.945H62.3a2,2,0,0,1,.449-1.223,3.066,3.066,0,0,1,1.219-.934,4.1,4.1,0,0,1,1.691-.344,3.342,3.342,0,0,1,2.289.73,2.635,2.635,0,0,1,.859,2.012v3.891a4.757,4.757,0,0,0,.3,1.852V0ZM65.2-1.1a2.54,2.54,0,0,0,1.289-.352,2.127,2.127,0,0,0,.883-.914V-4.1H66.234q-2.656,0-2.656,1.555a1.316,1.316,0,0,0,.453,1.063A1.742,1.742,0,0,0,65.2-1.1Zm5.914.344a.905.905,0,0,1,.223-.625A.848.848,0,0,1,72-1.633a.874.874,0,0,1,.676.25.887.887,0,0,1,.23.625.839.839,0,0,1-.23.6A.89.89,0,0,1,72,.086a.863.863,0,0,1-.668-.242A.855.855,0,0,1,71.109-.758ZM78.8.156A3.693,3.693,0,0,1,76-.973a4.19,4.19,0,0,1-1.078-3.02v-.266A5.073,5.073,0,0,1,75.4-6.5a3.748,3.748,0,0,1,1.344-1.547,3.378,3.378,0,0,1,1.871-.559A3.166,3.166,0,0,1,81.18-7.523a4.7,4.7,0,0,1,.914,3.109v.6H76.367a3,3,0,0,0,.73,2.02,2.3,2.3,0,0,0,1.777.77,2.517,2.517,0,0,0,1.3-.312,3.259,3.259,0,0,0,.93-.828l.883.688A3.55,3.55,0,0,1,78.8.156Zm-.18-7.578a1.928,1.928,0,0,0-1.469.637A3.1,3.1,0,0,0,76.414-5h4.234v-.109a2.753,2.753,0,0,0-.594-1.707A1.815,1.815,0,0,0,78.617-7.422ZM86.6-5.367l1.875-3.086h1.688L87.4-4.273,90.25,0H88.578L86.625-3.164,84.672,0h-1.68l2.852-4.273-2.766-4.18H84.75ZM95.047.156a3.693,3.693,0,0,1-2.8-1.129,4.19,4.19,0,0,1-1.078-3.02v-.266a5.073,5.073,0,0,1,.48-2.246A3.748,3.748,0,0,1,93-8.051a3.378,3.378,0,0,1,1.871-.559A3.166,3.166,0,0,1,97.43-7.523a4.7,4.7,0,0,1,.914,3.109v.6H92.617a3,3,0,0,0,.73,2.02,2.3,2.3,0,0,0,1.777.77,2.517,2.517,0,0,0,1.3-.312,3.259,3.259,0,0,0,.93-.828l.883.688A3.55,3.55,0,0,1,95.047.156Zm-.18-7.578a1.928,1.928,0,0,0-1.469.637A3.1,3.1,0,0,0,92.664-5H96.9v-.109A2.753,2.753,0,0,0,96.3-6.816,1.815,1.815,0,0,0,94.867-7.422Z" transform="translate(970 7956.264)" fill="#fff"/>
    <path id="Trazado_163726" data-name="Trazado 163726" d="M-8729.426-3589.073l-113.461-64.858-97.56,64.823-1.107-1.666,98.589-65.505.535.306,114,65.164Z" transform="translate(9516 11703)" fill="#26cb99"/>
    <path id="Trazado_172844" data-name="Trazado 172844" d="M6,0H127a6,6,0,0,1,6,6V49a6,6,0,0,1-6,6H6a6,6,0,0,1-6-6V6A6,6,0,0,1,6,0Z" transform="translate(479 8113)" fill="#607b82"/>
    <path id="Trazado_172845" data-name="Trazado 172845" d="M3.258-11.375,6.977-2.094,10.7-11.375h1.945V0h-1.5V-4.43l.141-4.781L7.547,0H6.4L2.672-9.187,2.82-4.43V0H1.32V-11.375ZM14.68-4.3a4.993,4.993,0,0,1,.488-2.234A3.643,3.643,0,0,1,16.527-8.07a3.7,3.7,0,0,1,1.988-.539,3.565,3.565,0,0,1,2.793,1.2,4.6,4.6,0,0,1,1.066,3.18v.1A5.036,5.036,0,0,1,21.9-1.918,3.589,3.589,0,0,1,20.551-.391a3.743,3.743,0,0,1-2.02.547,3.556,3.556,0,0,1-2.785-1.2A4.575,4.575,0,0,1,14.68-4.2Zm1.453.172a3.616,3.616,0,0,0,.652,2.258,2.088,2.088,0,0,0,1.746.852,2.075,2.075,0,0,0,1.75-.863A3.955,3.955,0,0,0,20.93-4.3a3.61,3.61,0,0,0-.66-2.254,2.1,2.1,0,0,0-1.754-.863,2.075,2.075,0,0,0-1.727.852A3.925,3.925,0,0,0,16.133-4.133ZM19.172-12h1.75L18.828-9.7H17.664Zm4.664,7.7a4.952,4.952,0,0,1,.922-3.129,2.915,2.915,0,0,1,2.414-1.184,2.932,2.932,0,0,1,2.352,1.016V-12h1.445V0H29.641l-.07-.906A2.943,2.943,0,0,1,27.156.156a2.887,2.887,0,0,1-2.395-1.2,5.008,5.008,0,0,1-.926-3.141Zm1.445.164a3.749,3.749,0,0,0,.594,2.25,1.92,1.92,0,0,0,1.641.813A2.108,2.108,0,0,0,29.523-2.3V-6.187a2.125,2.125,0,0,0-1.992-1.2,1.929,1.929,0,0,0-1.656.82A4.128,4.128,0,0,0,25.281-4.133ZM38.43-.836a3.07,3.07,0,0,1-2.477.992,2.628,2.628,0,0,1-2.059-.785,3.4,3.4,0,0,1-.715-2.324v-5.5h1.445v5.461q0,1.922,1.563,1.922a2.163,2.163,0,0,0,2.2-1.234V-8.453h1.445V0H38.461ZM43.6,0H42.156V-12H43.6Zm1.93-4.3a4.993,4.993,0,0,1,.488-2.234A3.643,3.643,0,0,1,47.379-8.07a3.7,3.7,0,0,1,1.988-.539,3.565,3.565,0,0,1,2.793,1.2,4.6,4.6,0,0,1,1.066,3.18v.1a5.036,5.036,0,0,1-.473,2.215A3.589,3.589,0,0,1,51.4-.391a3.743,3.743,0,0,1-2.02.547,3.556,3.556,0,0,1-2.785-1.2A4.575,4.575,0,0,1,45.531-4.2Zm1.453.172a3.616,3.616,0,0,0,.652,2.258,2.088,2.088,0,0,0,1.746.852,2.075,2.075,0,0,0,1.75-.863A3.955,3.955,0,0,0,51.781-4.3a3.61,3.61,0,0,0-.66-2.254,2.1,2.1,0,0,0-1.754-.863,2.075,2.075,0,0,0-1.727.852A3.925,3.925,0,0,0,46.984-4.133ZM65.508-2.969H60.742L59.672,0H58.125l4.344-11.375h1.313L68.133,0H66.594ZM61.2-4.2h3.867l-1.937-5.32Z" transform="translate(493 8146)" fill="#fff"/>
    <path id="Trazado_172846" data-name="Trazado 172846" d="M6,0H127a6,6,0,0,1,6,6V49a6,6,0,0,1-6,6H6a6,6,0,0,1-6-6V6A6,6,0,0,1,6,0Z" transform="translate(619 8113)" fill="#607b82"/>
    <path id="Trazado_172847" data-name="Trazado 172847" d="M3.258-11.375,6.977-2.094,10.7-11.375h1.945V0h-1.5V-4.43l.141-4.781L7.547,0H6.4L2.672-9.187,2.82-4.43V0H1.32V-11.375ZM14.68-4.3a4.993,4.993,0,0,1,.488-2.234A3.643,3.643,0,0,1,16.527-8.07a3.7,3.7,0,0,1,1.988-.539,3.565,3.565,0,0,1,2.793,1.2,4.6,4.6,0,0,1,1.066,3.18v.1A5.036,5.036,0,0,1,21.9-1.918,3.589,3.589,0,0,1,20.551-.391a3.743,3.743,0,0,1-2.02.547,3.556,3.556,0,0,1-2.785-1.2A4.575,4.575,0,0,1,14.68-4.2Zm1.453.172a3.616,3.616,0,0,0,.652,2.258,2.088,2.088,0,0,0,1.746.852,2.075,2.075,0,0,0,1.75-.863A3.955,3.955,0,0,0,20.93-4.3a3.61,3.61,0,0,0-.66-2.254,2.1,2.1,0,0,0-1.754-.863,2.075,2.075,0,0,0-1.727.852A3.925,3.925,0,0,0,16.133-4.133ZM19.172-12h1.75L18.828-9.7H17.664Zm4.664,7.7a4.952,4.952,0,0,1,.922-3.129,2.915,2.915,0,0,1,2.414-1.184,2.932,2.932,0,0,1,2.352,1.016V-12h1.445V0H29.641l-.07-.906A2.943,2.943,0,0,1,27.156.156a2.887,2.887,0,0,1-2.395-1.2,5.008,5.008,0,0,1-.926-3.141Zm1.445.164a3.749,3.749,0,0,0,.594,2.25,1.92,1.92,0,0,0,1.641.813A2.108,2.108,0,0,0,29.523-2.3V-6.187a2.125,2.125,0,0,0-1.992-1.2,1.929,1.929,0,0,0-1.656.82A4.128,4.128,0,0,0,25.281-4.133ZM38.43-.836a3.07,3.07,0,0,1-2.477.992,2.628,2.628,0,0,1-2.059-.785,3.4,3.4,0,0,1-.715-2.324v-5.5h1.445v5.461q0,1.922,1.563,1.922a2.163,2.163,0,0,0,2.2-1.234V-8.453h1.445V0H38.461ZM43.6,0H42.156V-12H43.6Zm1.93-4.3a4.993,4.993,0,0,1,.488-2.234A3.643,3.643,0,0,1,47.379-8.07a3.7,3.7,0,0,1,1.988-.539,3.565,3.565,0,0,1,2.793,1.2,4.6,4.6,0,0,1,1.066,3.18v.1a5.036,5.036,0,0,1-.473,2.215A3.589,3.589,0,0,1,51.4-.391a3.743,3.743,0,0,1-2.02.547,3.556,3.556,0,0,1-2.785-1.2A4.575,4.575,0,0,1,45.531-4.2Zm1.453.172a3.616,3.616,0,0,0,.652,2.258,2.088,2.088,0,0,0,1.746.852,2.075,2.075,0,0,0,1.75-.863A3.955,3.955,0,0,0,51.781-4.3a3.61,3.61,0,0,0-.66-2.254,2.1,2.1,0,0,0-1.754-.863,2.075,2.075,0,0,0-1.727.852A3.925,3.925,0,0,0,46.984-4.133ZM59.227,0V-11.375h3.719a4.317,4.317,0,0,1,2.785.766,2.759,2.759,0,0,1,.934,2.266,2.31,2.31,0,0,1-.453,1.41,2.938,2.938,0,0,1-1.234.949A2.638,2.638,0,0,1,66.434-5a2.814,2.814,0,0,1,.535,1.723,3.042,3.042,0,0,1-.992,2.406,4.1,4.1,0,0,1-2.8.875Zm1.5-5.32v4.094H63.2a2.385,2.385,0,0,0,1.652-.543,1.907,1.907,0,0,0,.605-1.5q0-2.055-2.234-2.055Zm0-1.2h2.266a2.378,2.378,0,0,0,1.574-.492,1.649,1.649,0,0,0,.59-1.336,1.621,1.621,0,0,0-.547-1.363,2.69,2.69,0,0,0-1.664-.426H60.727Z" transform="translate(633 8146)" fill="#fff"/>
    <path id="Trazado_172848" data-name="Trazado 172848" d="M6,0H127a6,6,0,0,1,6,6V49a6,6,0,0,1-6,6H6a6,6,0,0,1-6-6V6A6,6,0,0,1,6,0Z" transform="translate(759 8113)" fill="#607b82"/>
    <path id="Trazado_172849" data-name="Trazado 172849" d="M3.258-11.375,6.977-2.094,10.7-11.375h1.945V0h-1.5V-4.43l.141-4.781L7.547,0H6.4L2.672-9.187,2.82-4.43V0H1.32V-11.375ZM14.68-4.3a4.993,4.993,0,0,1,.488-2.234A3.643,3.643,0,0,1,16.527-8.07a3.7,3.7,0,0,1,1.988-.539,3.565,3.565,0,0,1,2.793,1.2,4.6,4.6,0,0,1,1.066,3.18v.1A5.036,5.036,0,0,1,21.9-1.918,3.589,3.589,0,0,1,20.551-.391a3.743,3.743,0,0,1-2.02.547,3.556,3.556,0,0,1-2.785-1.2A4.575,4.575,0,0,1,14.68-4.2Zm1.453.172a3.616,3.616,0,0,0,.652,2.258,2.088,2.088,0,0,0,1.746.852,2.075,2.075,0,0,0,1.75-.863A3.955,3.955,0,0,0,20.93-4.3a3.61,3.61,0,0,0-.66-2.254,2.1,2.1,0,0,0-1.754-.863,2.075,2.075,0,0,0-1.727.852A3.925,3.925,0,0,0,16.133-4.133ZM19.172-12h1.75L18.828-9.7H17.664Zm4.664,7.7a4.952,4.952,0,0,1,.922-3.129,2.915,2.915,0,0,1,2.414-1.184,2.932,2.932,0,0,1,2.352,1.016V-12h1.445V0H29.641l-.07-.906A2.943,2.943,0,0,1,27.156.156a2.887,2.887,0,0,1-2.395-1.2,5.008,5.008,0,0,1-.926-3.141Zm1.445.164a3.749,3.749,0,0,0,.594,2.25,1.92,1.92,0,0,0,1.641.813A2.108,2.108,0,0,0,29.523-2.3V-6.187a2.125,2.125,0,0,0-1.992-1.2,1.929,1.929,0,0,0-1.656.82A4.128,4.128,0,0,0,25.281-4.133ZM38.43-.836a3.07,3.07,0,0,1-2.477.992,2.628,2.628,0,0,1-2.059-.785,3.4,3.4,0,0,1-.715-2.324v-5.5h1.445v5.461q0,1.922,1.563,1.922a2.163,2.163,0,0,0,2.2-1.234V-8.453h1.445V0H38.461ZM43.6,0H42.156V-12H43.6Zm1.93-4.3a4.993,4.993,0,0,1,.488-2.234A3.643,3.643,0,0,1,47.379-8.07a3.7,3.7,0,0,1,1.988-.539,3.565,3.565,0,0,1,2.793,1.2,4.6,4.6,0,0,1,1.066,3.18v.1a5.036,5.036,0,0,1-.473,2.215A3.589,3.589,0,0,1,51.4-.391a3.743,3.743,0,0,1-2.02.547,3.556,3.556,0,0,1-2.785-1.2A4.575,4.575,0,0,1,45.531-4.2Zm1.453.172a3.616,3.616,0,0,0,.652,2.258,2.088,2.088,0,0,0,1.746.852,2.075,2.075,0,0,0,1.75-.863A3.955,3.955,0,0,0,51.781-4.3a3.61,3.61,0,0,0-.66-2.254,2.1,2.1,0,0,0-1.754-.863,2.075,2.075,0,0,0-1.727.852A3.925,3.925,0,0,0,46.984-4.133Zm20.609.523A4.185,4.185,0,0,1,66.262-.824a4.365,4.365,0,0,1-2.98.98,4.008,4.008,0,0,1-3.23-1.445,5.815,5.815,0,0,1-1.215-3.867V-6.25A6.481,6.481,0,0,1,59.4-9.039a4.231,4.231,0,0,1,1.605-1.848,4.47,4.47,0,0,1,2.406-.645A4.11,4.11,0,0,1,66.32-10.52a4.235,4.235,0,0,1,1.273,2.8H66.086a3.254,3.254,0,0,0-.848-1.969,2.569,2.569,0,0,0-1.824-.609A2.685,2.685,0,0,0,61.16-9.234a4.875,4.875,0,0,0-.816,3.023v1.1a5.011,5.011,0,0,0,.773,2.945A2.5,2.5,0,0,0,63.281-1.07,2.886,2.886,0,0,0,65.2-1.637a3.143,3.143,0,0,0,.887-1.973Z" transform="translate(773 8146)" fill="#fff"/>
    <g id="Grupo_75851" data-name="Grupo 75851" transform="translate(170 3)">
      <g id="Grupo_75850" data-name="Grupo 75850">
        <rect id="Rectángulo_7230" data-name="Rectángulo 7230" width="21" height="28" transform="translate(409 8122)" fill="#fff"/>
        <path id="Rectángulo_7230_-_Contorno" data-name="Rectángulo 7230 - Contorno" d="M1,1V27H20V1H1M0,0H21V28H0Z" transform="translate(409 8122)" fill="#26cb99"/>
        <rect id="Rectángulo_7232" data-name="Rectángulo 7232" width="6" height="6" transform="translate(406 8138)" fill="#fff"/>
        <path id="Rectángulo_7232_-_Contorno" data-name="Rectángulo 7232 - Contorno" d="M1,1V5H5V1H1M0,0H6V6H0Z" transform="translate(406 8138)" fill="#26cb99"/>
      </g>
      <rect id="Rectángulo_7231" data-name="Rectángulo 7231" width="6" height="6" transform="translate(406 8128)" fill="#fff"/>
      <path id="Rectángulo_7231_-_Contorno" data-name="Rectángulo 7231 - Contorno" d="M1,1V5H5V1H1M0,0H6V6H0Z" transform="translate(406 8128)" fill="#26cb99"/>
    </g>
    <g id="Grupo_75852" data-name="Grupo 75852" transform="translate(303 3)">
      <g id="Grupo_75850-2" data-name="Grupo 75850">
        <rect id="Rectángulo_7230-2" data-name="Rectángulo 7230" width="21" height="28" transform="translate(409 8122)" fill="#fff"/>
        <path id="Rectángulo_7230_-_Contorno-2" data-name="Rectángulo 7230 - Contorno" d="M1,1V27H20V1H1M0,0H21V28H0Z" transform="translate(409 8122)" fill="#26cb99"/>
        <rect id="Rectángulo_7232-2" data-name="Rectángulo 7232" width="6" height="6" transform="translate(406 8138)" fill="#fff"/>
        <path id="Rectángulo_7232_-_Contorno-2" data-name="Rectángulo 7232 - Contorno" d="M1,1V5H5V1H1M0,0H6V6H0Z" transform="translate(406 8138)" fill="#26cb99"/>
      </g>
      <rect id="Rectángulo_7231-2" data-name="Rectángulo 7231" width="6" height="6" transform="translate(406 8128)" fill="#fff"/>
      <path id="Rectángulo_7231_-_Contorno-2" data-name="Rectángulo 7231 - Contorno" d="M1,1V5H5V1H1M0,0H6V6H0Z" transform="translate(406 8128)" fill="#26cb99"/>
    </g>
    <g id="Grupo_75853" data-name="Grupo 75853" transform="translate(446 3)">
      <g id="Grupo_75850-3" data-name="Grupo 75850">
        <rect id="Rectángulo_7230-3" data-name="Rectángulo 7230" width="21" height="28" transform="translate(409 8122)" fill="#fff"/>
        <path id="Rectángulo_7230_-_Contorno-3" data-name="Rectángulo 7230 - Contorno" d="M1,1V27H20V1H1M0,0H21V28H0Z" transform="translate(409 8122)" fill="#26cb99"/>
        <rect id="Rectángulo_7232-3" data-name="Rectángulo 7232" width="6" height="6" transform="translate(406 8138)" fill="#fff"/>
        <path id="Rectángulo_7232_-_Contorno-3" data-name="Rectángulo 7232 - Contorno" d="M1,1V5H5V1H1M0,0H6V6H0Z" transform="translate(406 8138)" fill="#26cb99"/>
      </g>
      <rect id="Rectángulo_7231-3" data-name="Rectángulo 7231" width="6" height="6" transform="translate(406 8128)" fill="#fff"/>
      <path id="Rectángulo_7231_-_Contorno-3" data-name="Rectángulo 7231 - Contorno" d="M1,1V5H5V1H1M0,0H6V6H0Z" transform="translate(406 8128)" fill="#26cb99"/>
    </g>
    <path id="Trazado_172850" data-name="Trazado 172850" d="M2.93,0H1.43V-11.375h1.5ZM6.8-8.453l.039.938A3.122,3.122,0,0,1,9.352-8.609,2.417,2.417,0,0,1,11.766-7.25a3.2,3.2,0,0,1,1.1-.984,3.242,3.242,0,0,1,1.6-.375q2.781,0,2.828,2.945V0H15.844V-5.578a1.941,1.941,0,0,0-.414-1.355,1.823,1.823,0,0,0-1.391-.449A1.916,1.916,0,0,0,12.7-6.9a1.949,1.949,0,0,0-.617,1.293V0H10.633V-5.539a1.613,1.613,0,0,0-1.8-1.844A1.934,1.934,0,0,0,6.883-6.172V0H5.438V-8.453Zm19.8,4.32a5.062,5.062,0,0,1-.883,3.109A2.829,2.829,0,0,1,23.336.156,3.1,3.1,0,0,1,20.914-.82V3.25H19.469v-11.7h1.32l.07.938a2.977,2.977,0,0,1,2.453-1.094,2.882,2.882,0,0,1,2.41,1.148,5.117,5.117,0,0,1,.887,3.2ZM25.164-4.3a3.735,3.735,0,0,0-.609-2.258,1.963,1.963,0,0,0-1.672-.828,2.125,2.125,0,0,0-1.969,1.164V-2.18A2.129,2.129,0,0,0,22.9-1.023a1.954,1.954,0,0,0,1.652-.824A4.077,4.077,0,0,0,25.164-4.3Zm2.9-.008a4.993,4.993,0,0,1,.488-2.234A3.643,3.643,0,0,1,29.91-8.07,3.7,3.7,0,0,1,31.9-8.609a3.565,3.565,0,0,1,2.793,1.2,4.6,4.6,0,0,1,1.066,3.18v.1a5.036,5.036,0,0,1-.473,2.215A3.589,3.589,0,0,1,33.934-.391a3.743,3.743,0,0,1-2.02.547,3.556,3.556,0,0,1-2.785-1.2A4.575,4.575,0,0,1,28.063-4.2Zm1.453.172a3.616,3.616,0,0,0,.652,2.258,2.088,2.088,0,0,0,1.746.852,2.075,2.075,0,0,0,1.75-.863A3.955,3.955,0,0,0,34.313-4.3a3.61,3.61,0,0,0-.66-2.254A2.1,2.1,0,0,0,31.9-7.422a2.075,2.075,0,0,0-1.727.852A3.925,3.925,0,0,0,29.516-4.133ZM41.656-7.156a4.331,4.331,0,0,0-.711-.055A1.9,1.9,0,0,0,39.016-6V0H37.57V-8.453h1.406L39-7.477a2.251,2.251,0,0,1,2.016-1.133,1.477,1.477,0,0,1,.641.109Zm3.68-3.344v2.047h1.578v1.117H45.336v5.242a1.171,1.171,0,0,0,.211.762.888.888,0,0,0,.719.254,3.5,3.5,0,0,0,.688-.094V0a4.19,4.19,0,0,1-1.109.156A1.8,1.8,0,0,1,44.383-.43a2.517,2.517,0,0,1-.492-1.664V-7.336H42.352V-8.453h1.539V-10.5ZM53.82,0a3.036,3.036,0,0,1-.2-.891A3.225,3.225,0,0,1,51.211.156,2.984,2.984,0,0,1,49.16-.551a2.287,2.287,0,0,1-.8-1.793,2.39,2.39,0,0,1,1-2.051,4.733,4.733,0,0,1,2.824-.73h1.406v-.664A1.623,1.623,0,0,0,53.141-7,1.821,1.821,0,0,0,51.8-7.445a2.107,2.107,0,0,0-1.3.391,1.151,1.151,0,0,0-.523.945H48.531a2,2,0,0,1,.449-1.223A3.066,3.066,0,0,1,50.2-8.266a4.1,4.1,0,0,1,1.691-.344,3.342,3.342,0,0,1,2.289.73,2.635,2.635,0,0,1,.859,2.012v3.891a4.757,4.757,0,0,0,.3,1.852V0Zm-2.4-1.1a2.54,2.54,0,0,0,1.289-.352,2.127,2.127,0,0,0,.883-.914V-4.1H52.461Q49.8-4.1,49.8-2.547a1.316,1.316,0,0,0,.453,1.063A1.742,1.742,0,0,0,51.422-1.1Zm9.969-6.055a4.331,4.331,0,0,0-.711-.055A1.9,1.9,0,0,0,58.75-6V0H57.3V-8.453h1.406l.023.977A2.251,2.251,0,0,1,60.75-8.609a1.477,1.477,0,0,1,.641.109Z" transform="translate(479 8084.801)" fill="#12263f"/>
    <g id="Grupo_75854" data-name="Grupo 75854" transform="translate(327 -243)">
      <g id="Grupo_75850-4" data-name="Grupo 75850">
        <rect id="Rectángulo_7230-4" data-name="Rectángulo 7230" width="21" height="28" transform="translate(409 8122)" fill="#fff"/>
        <path id="Rectángulo_7230_-_Contorno-4" data-name="Rectángulo 7230 - Contorno" d="M1,1V27H20V1H1M0,0H21V28H0Z" transform="translate(409 8122)" fill="#26cb99"/>
        <rect id="Rectángulo_7232-4" data-name="Rectángulo 7232" width="6" height="6" transform="translate(406 8138)" fill="#fff"/>
        <path id="Rectángulo_7232_-_Contorno-4" data-name="Rectángulo 7232 - Contorno" d="M1,1V5H5V1H1M0,0H6V6H0Z" transform="translate(406 8138)" fill="#26cb99"/>
      </g>
      <rect id="Rectángulo_7231-4" data-name="Rectángulo 7231" width="6" height="6" transform="translate(406 8128)" fill="#fff"/>
      <path id="Rectángulo_7231_-_Contorno-4" data-name="Rectángulo 7231 - Contorno" d="M1,1V5H5V1H1M0,0H6V6H0Z" transform="translate(406 8128)" fill="#26cb99"/>
    </g>
  </g>
</svg>
