<svg xmlns="http://www.w3.org/2000/svg" xmlns:xlink="http://www.w3.org/1999/xlink" width="1240" height="307.496" viewBox="0 0 1240 307.496">
  <defs>
    <linearGradient id="linear-gradient" x1="-0.255" y1="0.523" x2="1.192" y2="0.521" gradientUnits="objectBoundingBox">
      <stop offset="0" stop-color="#eb9595"/>
      <stop offset="1" stop-color="#fff"/>
    </linearGradient>
    <linearGradient id="linear-gradient-2" x1="-0.255" y1="0.523" x2="1.192" y2="0.521" gradientUnits="objectBoundingBox">
      <stop offset="0" stop-color="#26cb99"/>
      <stop offset="1" stop-color="#fff"/>
    </linearGradient>
    <linearGradient id="linear-gradient-3" x1="-0.255" y1="0.523" x2="1.192" y2="0.521" gradientUnits="objectBoundingBox">
      <stop offset="0" stop-color="#d8d245"/>
      <stop offset="1" stop-color="#fff"/>
    </linearGradient>
    <linearGradient id="linear-gradient-4" x1="-0.255" y1="0.523" x2="1.192" y2="0.521" gradientUnits="objectBoundingBox">
      <stop offset="0" stop-color="#c28dde"/>
      <stop offset="1" stop-color="#fff"/>
    </linearGradient>
    <linearGradient id="linear-gradient-5" x1="-0.255" y1="0.523" x2="1.192" y2="0.521" gradientUnits="objectBoundingBox">
      <stop offset="0" stop-color="#607b82"/>
      <stop offset="1" stop-color="#fff"/>
    </linearGradient>
  </defs>
  <g id="Grupo_89743" data-name="Grupo 89743" transform="translate(-180 -19549)">
    <g id="Grupo_88815" data-name="Grupo 88815">
      <g id="Grupo_88778" data-name="Grupo 88778" transform="translate(229.823 19606.717)">
        <path id="Trazado_193990" data-name="Trazado 193990" d="M461.251,992.81l.125,2.9c2.662-.115,5.351-.321,7.993-.612l-.318-2.887C466.473,992.5,463.849,992.7,461.251,992.81Z" transform="translate(-425.791 -757.639)" fill="#b1b8ba"/>
        <path id="Trazado_193991" data-name="Trazado 193991" d="M462.369,262.4c2.6.12,5.222.328,7.8.62l.327-2.886c-2.64-.3-5.328-.513-7.991-.636Z" transform="translate(-426.551 -259.474)" fill="#b1b8ba"/>
        <path id="Trazado_193992" data-name="Trazado 193992" d="M403.277,995.016c2.642.3,5.332.508,7.995.629l.131-2.9c-2.6-.117-5.223-.324-7.8-.614Z" transform="translate(-386.375 -757.582)" fill="#b1b8ba"/>
        <path id="Trazado_193993" data-name="Trazado 193993" d="M404.406,260.038l.316,2.887c2.578-.283,5.2-.481,7.8-.592l-.123-2.9C409.739,259.545,407.048,259.749,404.406,260.038Z" transform="translate(-387.143 -259.432)" fill="#b1b8ba"/>
        <path id="Trazado_193994" data-name="Trazado 193994" d="M518.9,269.572c2.545.524,5.1,1.141,7.6,1.835l.776-2.8c-2.563-.711-5.185-1.344-7.795-1.881Z" transform="translate(-464.983 -264.392)" fill="#b1b8ba"/>
        <path id="Trazado_193995" data-name="Trazado 193995" d="M572.567,965.167l1.017,2.721c2.5-.933,4.993-1.965,7.421-3.066l-1.2-2.645C577.437,963.25,575,964.256,572.567,965.167Z" transform="translate(-501.473 -737.218)" fill="#b1b8ba"/>
        <path id="Trazado_193996" data-name="Trazado 193996" d="M517.8,983.349l.576,2.847c2.609-.528,5.233-1.153,7.8-1.855l-.768-2.8C522.906,982.224,520.346,982.833,517.8,983.349Z" transform="translate(-464.238 -750.382)" fill="#b1b8ba"/>
        <path id="Trazado_193997" data-name="Trazado 193997" d="M806.891,598.321l2.9-.124c-.114-2.663-.319-5.352-.609-7.993l-2.887.317C806.58,593.1,806.78,595.723,806.891,598.321Z" transform="translate(-660.383 -484.319)" fill="#b1b8ba"/>
        <path id="Trazado_193998" data-name="Trazado 193998" d="M800.3,540.642c-.527-2.611-1.151-5.235-1.852-7.8l-2.8.766c.685,2.5,1.293,5.063,1.807,7.61Z" transform="translate(-653.141 -445.319)" fill="#b1b8ba"/>
        <path id="Trazado_193999" data-name="Trazado 193999" d="M350.477,984.9c2.1.551,4.224,1.052,6.341,1.486l.583-2.846c-2.315-.474-4.639-1.029-6.924-1.646Z" transform="translate(-350.477 -750.622)" fill="#b1b8ba"/>
        <path id="Trazado_194000" data-name="Trazado 194000" d="M806.178,655.946l2.886.326c.3-2.639.511-5.328.632-7.991l-2.9-.133C806.676,650.747,806.469,653.371,806.178,655.946Z" transform="translate(-660.302 -523.714)" fill="#b1b8ba"/>
        <path id="Trazado_194001" data-name="Trazado 194001" d="M748.772,428.316c1.431,2.171,2.805,4.417,4.086,6.677l2.527-1.432c-1.312-2.317-2.721-4.619-4.188-6.844Z" transform="translate(-621.272 -373.167)" fill="#b1b8ba"/>
        <path id="Trazado_194002" data-name="Trazado 194002" d="M775.867,766.612l2.642,1.206c1.1-2.419,2.14-4.906,3.078-7.393l-2.718-1.025C777.955,761.826,776.944,764.252,775.867,766.612Z" transform="translate(-639.694 -599.353)" fill="#b1b8ba"/>
        <path id="Trazado_194003" data-name="Trazado 194003" d="M748.214,817.577l2.421,1.605c1.47-2.217,2.884-4.513,4.2-6.823l-2.523-1.439C751.027,813.175,749.648,815.414,748.214,817.577Z" transform="translate(-620.893 -634.381)" fill="#b1b8ba"/>
        <path id="Trazado_194004" data-name="Trazado 194004" d="M795.352,712.283l2.8.775c.71-2.565,1.342-5.187,1.877-7.8l-2.845-.584C796.661,707.223,796.045,709.782,795.352,712.283Z" transform="translate(-652.941 -562.149)" fill="#b1b8ba"/>
        <path id="Trazado_194005" data-name="Trazado 194005" d="M776.3,479.072c1.073,2.37,2.079,4.805,2.988,7.24l2.721-1.016c-.932-2.5-1.963-4.993-3.063-7.422Z" transform="translate(-639.991 -407.948)" fill="#b1b8ba"/>
        <path id="Trazado_194006" data-name="Trazado 194006" d="M713.781,382.569c1.75,1.92,3.458,3.924,5.076,5.956l2.273-1.809c-1.658-2.083-3.409-4.137-5.2-6.1Z" transform="translate(-597.482 -341.821)" fill="#b1b8ba"/>
        <path id="Trazado_194007" data-name="Trazado 194007" d="M625.121,310.355c2.253,1.286,4.492,2.667,6.656,4.1l1.606-2.42c-2.217-1.472-4.512-2.886-6.822-4.2Z" transform="translate(-537.204 -292.339)" fill="#b1b8ba"/>
        <path id="Trazado_194008" data-name="Trazado 194008" d="M624.221,938.71l1.433,2.527c2.317-1.314,4.619-2.724,6.843-4.191l-1.6-2.424C628.728,936.052,626.482,937.428,624.221,938.71Z" transform="translate(-536.592 -718.483)" fill="#b1b8ba"/>
        <path id="Trazado_194009" data-name="Trazado 194009" d="M573.611,285.693c2.425.916,4.852,1.927,7.211,3.006l1.208-2.642c-2.419-1.105-4.905-2.142-7.392-3.081Z" transform="translate(-502.183 -275.439)" fill="#b1b8ba"/>
        <path id="Trazado_194010" data-name="Trazado 194010" d="M671.445,904.688l1.81,2.272c2.082-1.659,4.135-3.41,6.1-5.205l-1.958-2.146C675.48,901.36,673.477,903.069,671.445,904.688Z" transform="translate(-568.699 -694.679)" fill="#b1b8ba"/>
        <path id="Trazado_194011" data-name="Trazado 194011" d="M672.224,342.926c2.027,1.624,4.025,3.337,5.938,5.092l1.963-2.14c-1.961-1.8-4.009-3.555-6.085-5.219Z" transform="translate(-569.228 -314.657)" fill="#b1b8ba"/>
        <path id="Trazado_194012" data-name="Trazado 194012" d="M713.112,863.978l2.141,1.963c1.8-1.962,3.553-4.01,5.216-6.087l-2.267-1.815C716.579,860.065,714.867,862.064,713.112,863.978Z" transform="translate(-597.027 -666.416)" fill="#b1b8ba"/>
        <path id="Trazado_194013" data-name="Trazado 194013" d="M357.174,266.449c-2.238.451-4.484.976-6.7,1.558v3c2.4-.647,4.839-1.224,7.271-1.715Z" transform="translate(-350.477 -264.203)" fill="#b1b8ba"/>
      </g>
      <path id="Trazado_194116" data-name="Trazado 194116" d="M194.834,376.817v27.557h20.5V539.737h29.321V376.817Z" transform="translate(-14.834 19267.477)" fill="#eb9595"/>
      <path id="Trazado_194548" data-name="Trazado 194548" d="M-970.821-247.1V60.4c-4.491,0-8.131-68.835-8.131-153.748S-975.312-247.1-970.821-247.1Z" transform="translate(1200.821 19796.096)" fill="url(#linear-gradient)"/>
      <g id="Grupo_88810" data-name="Grupo 88810">
        <circle id="Elipse_6620" data-name="Elipse 6620" cx="29.5" cy="29.5" r="29.5" transform="translate(252 19695)" fill="#eb9595"/>
        <g id="Grupo_88806" data-name="Grupo 88806" transform="translate(256.979 19692.662)">
          <path id="Trazado_194535" data-name="Trazado 194535" d="M53.117,17.5H26.041a1.041,1.041,0,1,0,0,2.083H53.117a1.041,1.041,0,1,0,0-2.083Z" transform="translate(-11.669)" fill="#fff"/>
          <path id="Trazado_194536" data-name="Trazado 194536" d="M26.041,29.583H44.786a1.041,1.041,0,0,0,0-2.083H26.041a1.041,1.041,0,1,0,0,2.083Z" transform="translate(-11.669 -5.835)" fill="#fff"/>
          <path id="Trazado_194537" data-name="Trazado 194537" d="M53.117,42.5H26.041a1.041,1.041,0,1,0,0,2.083H53.117a1.041,1.041,0,1,0,0-2.083Z" transform="translate(-11.669 -14.586)" fill="#fff"/>
          <path id="Trazado_194538" data-name="Trazado 194538" d="M26.041,54.583h22.91a1.041,1.041,0,1,0,0-2.083H26.041a1.041,1.041,0,1,0,0,2.083Z" transform="translate(-11.669 -20.421)" fill="#fff"/>
          <path id="Trazado_194539" data-name="Trazado 194539" d="M53.117,67.5H26.041a1.041,1.041,0,1,0,0,2.083H53.117a1.041,1.041,0,1,0,0-2.083Z" transform="translate(-11.669 -29.173)" fill="#fff"/>
          <path id="Trazado_194540" data-name="Trazado 194540" d="M44.786,79.583a1.041,1.041,0,0,0,0-2.083H26.041a1.041,1.041,0,1,0,0,2.083Z" transform="translate(-11.669 -35.007)" fill="#fff"/>
          <path id="Trazado_194541" data-name="Trazado 194541" d="M8.124,23.748A3.124,3.124,0,1,0,5,20.624,3.127,3.127,0,0,0,8.124,23.748Zm0-4.165a1.041,1.041,0,1,1-1.041,1.041A1.043,1.043,0,0,1,8.124,19.583Z" fill="#fff"/>
          <path id="Trazado_194542" data-name="Trazado 194542" d="M8.124,48.748A3.124,3.124,0,1,0,5,45.624,3.127,3.127,0,0,0,8.124,48.748Zm0-4.165a1.041,1.041,0,1,1-1.041,1.041A1.043,1.043,0,0,1,8.124,44.583Z" transform="translate(0 -14.586)" fill="#fff"/>
          <path id="Trazado_194543" data-name="Trazado 194543" d="M8.124,73.748A3.124,3.124,0,1,0,5,70.624,3.127,3.127,0,0,0,8.124,73.748Zm0-4.165a1.041,1.041,0,1,1-1.041,1.041A1.043,1.043,0,0,1,8.124,69.583Z" transform="translate(0 -29.173)" fill="#fff"/>
        </g>
      </g>
    </g>
    <g id="Grupo_88816" data-name="Grupo 88816">
      <g id="Grupo_88779" data-name="Grupo 88779" transform="translate(496.624 19606.717)">
        <path id="Trazado_194014" data-name="Trazado 194014" d="M1294.707,992.81l.125,2.9c2.662-.115,5.351-.321,7.993-.612l-.318-2.887C1299.929,992.5,1297.3,992.7,1294.707,992.81Z" transform="translate(-1259.246 -757.639)" fill="#26cb99"/>
        <path id="Trazado_194015" data-name="Trazado 194015" d="M1295.824,262.4c2.6.12,5.222.328,7.8.62l.327-2.886c-2.64-.3-5.328-.513-7.991-.636Z" transform="translate(-1260.006 -259.474)" fill="#26cb99"/>
        <path id="Trazado_194016" data-name="Trazado 194016" d="M1236.732,995.016c2.642.3,5.332.508,8,.629l.131-2.9c-2.6-.117-5.223-.324-7.8-.614Z" transform="translate(-1219.83 -757.582)" fill="#26cb99"/>
        <path id="Trazado_194017" data-name="Trazado 194017" d="M1237.862,260.038l.316,2.887c2.578-.283,5.2-.481,7.8-.592l-.122-2.9C1243.195,259.545,1240.5,259.749,1237.862,260.038Z" transform="translate(-1220.598 -259.432)" fill="#26cb99"/>
        <path id="Trazado_194018" data-name="Trazado 194018" d="M1352.352,269.572c2.545.524,5.1,1.141,7.6,1.835l.777-2.8c-2.563-.711-5.186-1.344-7.8-1.881Z" transform="translate(-1298.438 -264.392)" fill="#26cb99"/>
        <path id="Trazado_194019" data-name="Trazado 194019" d="M1406.023,965.167l1.017,2.721c2.5-.933,4.993-1.965,7.421-3.066l-1.2-2.645C1410.893,963.25,1408.458,964.256,1406.023,965.167Z" transform="translate(-1334.928 -737.218)" fill="#26cb99"/>
        <path id="Trazado_194020" data-name="Trazado 194020" d="M1351.256,983.349l.576,2.847c2.609-.528,5.233-1.153,7.8-1.855l-.768-2.8C1356.361,982.224,1353.8,982.833,1351.256,983.349Z" transform="translate(-1297.693 -750.382)" fill="#26cb99"/>
        <path id="Trazado_194021" data-name="Trazado 194021" d="M1640.346,598.321l2.9-.124c-.113-2.663-.318-5.352-.608-7.993l-2.887.317C1640.035,593.1,1640.235,595.723,1640.346,598.321Z" transform="translate(-1493.837 -484.319)" fill="#26cb99"/>
        <path id="Trazado_194022" data-name="Trazado 194022" d="M1633.756,540.642c-.527-2.611-1.151-5.235-1.853-7.8l-2.8.766c.685,2.5,1.292,5.063,1.807,7.61Z" transform="translate(-1486.597 -445.319)" fill="#26cb99"/>
        <path id="Trazado_194023" data-name="Trazado 194023" d="M1183.932,984.9c2.1.551,4.224,1.052,6.342,1.486l.583-2.846c-2.315-.474-4.639-1.029-6.925-1.646Z" transform="translate(-1183.932 -750.622)" fill="#26cb99"/>
        <path id="Trazado_194024" data-name="Trazado 194024" d="M1639.634,655.946l2.886.326c.3-2.639.511-5.328.632-7.991l-2.9-.133C1640.132,650.747,1639.925,653.371,1639.634,655.946Z" transform="translate(-1493.758 -523.714)" fill="#26cb99"/>
        <path id="Trazado_194025" data-name="Trazado 194025" d="M1582.228,428.316c1.431,2.171,2.806,4.417,4.086,6.677l2.527-1.432c-1.312-2.317-2.721-4.619-4.188-6.844Z" transform="translate(-1454.728 -373.167)" fill="#26cb99"/>
        <path id="Trazado_194026" data-name="Trazado 194026" d="M1609.323,766.612l2.642,1.206c1.1-2.419,2.14-4.906,3.078-7.393l-2.718-1.025C1611.41,761.826,1610.4,764.252,1609.323,766.612Z" transform="translate(-1473.15 -599.353)" fill="#26cb99"/>
        <path id="Trazado_194027" data-name="Trazado 194027" d="M1581.67,817.577l2.421,1.605c1.47-2.217,2.884-4.513,4.2-6.823l-2.523-1.439C1584.483,813.175,1583.1,815.414,1581.67,817.577Z" transform="translate(-1454.349 -634.381)" fill="#26cb99"/>
        <path id="Trazado_194028" data-name="Trazado 194028" d="M1628.808,712.283l2.8.775c.711-2.565,1.342-5.187,1.877-7.8l-2.845-.584C1630.117,707.223,1629.5,709.782,1628.808,712.283Z" transform="translate(-1486.397 -562.149)" fill="#26cb99"/>
        <path id="Trazado_194029" data-name="Trazado 194029" d="M1609.761,479.072c1.073,2.37,2.079,4.805,2.988,7.24l2.721-1.016c-.932-2.5-1.963-4.993-3.063-7.422Z" transform="translate(-1473.447 -407.948)" fill="#26cb99"/>
        <path id="Trazado_194030" data-name="Trazado 194030" d="M1547.236,382.569c1.75,1.92,3.458,3.924,5.076,5.956l2.273-1.809c-1.658-2.083-3.408-4.137-5.2-6.1Z" transform="translate(-1430.938 -341.821)" fill="#26cb99"/>
        <path id="Trazado_194031" data-name="Trazado 194031" d="M1458.577,310.355c2.253,1.286,4.492,2.667,6.656,4.1l1.606-2.42c-2.217-1.472-4.512-2.886-6.821-4.2Z" transform="translate(-1370.659 -292.339)" fill="#26cb99"/>
        <path id="Trazado_194032" data-name="Trazado 194032" d="M1457.677,938.71l1.433,2.527c2.317-1.314,4.62-2.724,6.843-4.191l-1.6-2.424C1462.184,936.052,1459.938,937.428,1457.677,938.71Z" transform="translate(-1370.047 -718.483)" fill="#26cb99"/>
        <path id="Trazado_194033" data-name="Trazado 194033" d="M1407.067,285.693c2.425.916,4.851,1.927,7.21,3.006l1.208-2.642c-2.419-1.105-4.905-2.142-7.392-3.081Z" transform="translate(-1335.638 -275.439)" fill="#26cb99"/>
        <path id="Trazado_194034" data-name="Trazado 194034" d="M1504.9,904.688l1.81,2.272c2.082-1.659,4.135-3.41,6.1-5.205l-1.958-2.146C1508.936,901.36,1506.933,903.069,1504.9,904.688Z" transform="translate(-1402.154 -694.679)" fill="#26cb99"/>
        <path id="Trazado_194035" data-name="Trazado 194035" d="M1505.68,342.926c2.026,1.624,4.024,3.337,5.938,5.092l1.963-2.14c-1.961-1.8-4.009-3.555-6.085-5.219Z" transform="translate(-1402.684 -314.657)" fill="#26cb99"/>
        <path id="Trazado_194036" data-name="Trazado 194036" d="M1546.568,863.978l2.141,1.963c1.8-1.962,3.553-4.01,5.216-6.087l-2.268-1.815C1550.035,860.065,1548.323,862.064,1546.568,863.978Z" transform="translate(-1430.483 -666.416)" fill="#26cb99"/>
        <path id="Trazado_194037" data-name="Trazado 194037" d="M1190.629,266.449c-2.238.451-4.484.976-6.7,1.558v3c2.4-.647,4.839-1.224,7.271-1.715Z" transform="translate(-1183.932 -264.203)" fill="#26cb99"/>
      </g>
      <path id="Trazado_194115" data-name="Trazado 194115" d="M970.519,506.092H949.526L965.063,492l17.753-16.107c5-4.509,9.268-8.63,12.9-12.5v-83.4q-1.161-.966-2.381-1.864a53.764,53.764,0,0,0-32.119-10.259c-31.305,0-54.012,21.605-54.012,59.083h28.88c0-19.4,10.141-32.187,25.352-32.187a22.6,22.6,0,0,1,14.7,5.3c5.481,4.6,8.89,11.845,8.89,20.276,0,10.582-5.512,20.062-18.739,32.629l-6.3,5.961L908.3,507.855v25.794h87.411V506.092Z" transform="translate(-499.16 19273.563)" fill="#26cb99"/>
      <path id="Trazado_194544" data-name="Trazado 194544" d="M-970.821-247.1V60.4c-4.491,0-8.131-68.835-8.131-153.748S-975.312-247.1-970.821-247.1Z" transform="translate(1467.821 19796.096)" fill="url(#linear-gradient-2)"/>
      <g id="Grupo_88811" data-name="Grupo 88811" transform="translate(281 -4)">
        <circle id="Elipse_6620-2" data-name="Elipse 6620" cx="29.5" cy="29.5" r="29.5" transform="translate(252 19695)" fill="#26cb99"/>
      </g>
      <path id="Trazado_194549" data-name="Trazado 194549" d="M58.116,44.379a.975.975,0,0,0-.089-.339A90.1,90.1,0,0,0,51.36,32.2c-.008-.012-.018-.021-.025-.032a3.256,3.256,0,0,0-5.637-.05,3.49,3.49,0,0,0-4.715,1.151,3.5,3.5,0,0,0-3.57-.042,3.46,3.46,0,0,0-1.151,1.1L35,32.136a7.943,7.943,0,1,0-6.5,3.41c.216,0,.432-.01.649-.027l3.929,6.806-1.744,4.521-.057.14a3.624,3.624,0,0,0,.259,3.073,3.568,3.568,0,0,0,1.222,1.263l9.008,6.35a5.113,5.113,0,0,0,1.562.854,11.028,11.028,0,0,0,1.8.654,1.01,1.01,0,0,0,.254.033.978.978,0,0,0,.489-.131L58.123,52a.97.97,0,0,0,.456-.594A10.994,10.994,0,0,0,58.116,44.379ZM23.291,30.6a5.989,5.989,0,1,1,10.576-.425L31.4,25.912a3.381,3.381,0,0,0-5.857,3.381l2.469,4.277A6.016,6.016,0,0,1,23.291,30.6ZM56.783,50.518,45.244,57.182a8.881,8.881,0,0,1-1.134-.445c-.031-.014-.064-.028-.1-.038a3.806,3.806,0,0,1-.713-.327,3.679,3.679,0,0,1-.374-.267l-9.073-6.4L33.8,49.67a1.639,1.639,0,0,1-.574-.588,1.658,1.658,0,0,1-.131-1.386l1.235-3.2,1.884,3.263a.978.978,0,0,0,1.694-.978l-7.414-12.84,0-.007-3.246-5.624a1.426,1.426,0,0,1,2.47-1.426l6.421,11.122h0L37.225,39.9a.978.978,0,1,0,1.694-.978l-1.093-1.893A1.545,1.545,0,0,1,40.5,35.487l.032.064c0,.008.011.013.014.02s.013.033.022.049L42,38.1a.978.978,0,0,0,.848.489.968.968,0,0,0,.488-.131.978.978,0,0,0,.358-1.336l-1.269-2.2a1.533,1.533,0,0,1,2.854-.546.891.891,0,0,1,.064.133c0,.008.01.013.013.021a.9.9,0,0,0,.055.12l1.27,2.2a.978.978,0,1,0,1.694-.978l-1.154-2a1.3,1.3,0,0,1,.695-1.258,1.312,1.312,0,0,1,1.759.57c.009.018.022.032.032.048s.014.032.024.047a88.738,88.738,0,0,1,6.378,11.271.975.975,0,0,0,.083.3A9.018,9.018,0,0,1,56.783,50.518Z" transform="translate(525.545 19681.75)" fill="#fff"/>
    </g>
    <g id="Grupo_88817" data-name="Grupo 88817">
      <g id="Grupo_88780" data-name="Grupo 88780" transform="translate(749.084 19606.717)">
        <path id="Trazado_194038" data-name="Trazado 194038" d="M2083.362,992.81l.125,2.9c2.662-.115,5.351-.321,7.992-.612l-.318-2.887C2088.583,992.5,2085.959,992.7,2083.362,992.81Z" transform="translate(-2047.901 -757.639)" fill="#d8d245"/>
        <path id="Trazado_194039" data-name="Trazado 194039" d="M2084.48,262.4c2.6.12,5.222.328,7.8.62l.327-2.886c-2.64-.3-5.329-.513-7.991-.636Z" transform="translate(-2048.662 -259.474)" fill="#d8d245"/>
        <path id="Trazado_194040" data-name="Trazado 194040" d="M2025.388,995.016c2.643.3,5.333.508,8,.629l.131-2.9c-2.6-.117-5.223-.324-7.8-.614Z" transform="translate(-2008.486 -757.582)" fill="#d8d245"/>
        <path id="Trazado_194041" data-name="Trazado 194041" d="M2026.518,260.038l.316,2.887c2.578-.283,5.2-.481,7.8-.592l-.123-2.9C2031.851,259.545,2029.16,259.749,2026.518,260.038Z" transform="translate(-2009.254 -259.432)" fill="#d8d245"/>
        <path id="Trazado_194042" data-name="Trazado 194042" d="M2141.007,269.572c2.545.524,5.1,1.141,7.6,1.835l.777-2.8c-2.562-.711-5.185-1.344-7.795-1.881Z" transform="translate(-2087.094 -264.392)" fill="#d8d245"/>
        <path id="Trazado_194043" data-name="Trazado 194043" d="M2194.678,965.167l1.017,2.721c2.5-.933,4.993-1.965,7.421-3.066l-1.2-2.645C2199.548,963.25,2197.113,964.256,2194.678,965.167Z" transform="translate(-2123.584 -737.218)" fill="#d8d245"/>
        <path id="Trazado_194044" data-name="Trazado 194044" d="M2139.912,983.349l.576,2.847c2.609-.528,5.233-1.153,7.8-1.855l-.768-2.8C2145.016,982.224,2142.457,982.833,2139.912,983.349Z" transform="translate(-2086.349 -750.382)" fill="#d8d245"/>
        <path id="Trazado_194045" data-name="Trazado 194045" d="M2429,598.321l2.9-.124c-.113-2.663-.318-5.352-.608-7.993l-2.888.317C2428.691,593.1,2428.891,595.723,2429,598.321Z" transform="translate(-2282.494 -484.319)" fill="#d8d245"/>
        <path id="Trazado_194046" data-name="Trazado 194046" d="M2422.411,540.642c-.527-2.611-1.15-5.235-1.852-7.8l-2.8.766c.685,2.5,1.292,5.063,1.807,7.61Z" transform="translate(-2275.252 -445.319)" fill="#d8d245"/>
        <path id="Trazado_194047" data-name="Trazado 194047" d="M1972.588,984.9c2.1.551,4.224,1.052,6.342,1.486l.583-2.846c-2.315-.474-4.64-1.029-6.925-1.646Z" transform="translate(-1972.588 -750.622)" fill="#d8d245"/>
        <path id="Trazado_194048" data-name="Trazado 194048" d="M2428.29,655.946l2.886.326c.3-2.639.511-5.328.633-7.991l-2.9-.133C2428.789,650.747,2428.581,653.371,2428.29,655.946Z" transform="translate(-2282.414 -523.714)" fill="#d8d245"/>
        <path id="Trazado_194049" data-name="Trazado 194049" d="M2370.883,428.316c1.431,2.171,2.806,4.417,4.086,6.677l2.527-1.432c-1.312-2.317-2.722-4.619-4.188-6.844Z" transform="translate(-2243.383 -373.167)" fill="#d8d245"/>
        <path id="Trazado_194050" data-name="Trazado 194050" d="M2397.979,766.612l2.642,1.206c1.1-2.419,2.14-4.906,3.078-7.393l-2.718-1.025C2400.066,761.826,2399.056,764.252,2397.979,766.612Z" transform="translate(-2261.805 -599.353)" fill="#d8d245"/>
        <path id="Trazado_194051" data-name="Trazado 194051" d="M2370.325,817.577l2.421,1.605c1.47-2.217,2.884-4.513,4.2-6.823l-2.522-1.439C2373.139,813.175,2371.759,815.414,2370.325,817.577Z" transform="translate(-2243.003 -634.381)" fill="#d8d245"/>
        <path id="Trazado_194052" data-name="Trazado 194052" d="M2417.463,712.283l2.8.775c.711-2.565,1.342-5.187,1.877-7.8l-2.845-.584C2418.772,707.223,2418.156,709.782,2417.463,712.283Z" transform="translate(-2275.052 -562.149)" fill="#d8d245"/>
        <path id="Trazado_194053" data-name="Trazado 194053" d="M2398.416,479.072c1.073,2.37,2.078,4.805,2.988,7.24l2.721-1.016c-.932-2.5-1.962-4.993-3.063-7.422Z" transform="translate(-2262.102 -407.948)" fill="#d8d245"/>
        <path id="Trazado_194054" data-name="Trazado 194054" d="M2335.892,382.569c1.75,1.92,3.458,3.924,5.076,5.956l2.272-1.809c-1.658-2.083-3.408-4.137-5.2-6.1Z" transform="translate(-2219.594 -341.821)" fill="#d8d245"/>
        <path id="Trazado_194055" data-name="Trazado 194055" d="M2247.232,310.355c2.253,1.286,4.492,2.667,6.656,4.1l1.606-2.42c-2.217-1.472-4.512-2.886-6.822-4.2Z" transform="translate(-2159.315 -292.339)" fill="#d8d245"/>
        <path id="Trazado_194056" data-name="Trazado 194056" d="M2246.332,938.71l1.433,2.527c2.316-1.314,4.619-2.724,6.843-4.191l-1.6-2.424C2250.839,936.052,2248.593,937.428,2246.332,938.71Z" transform="translate(-2158.703 -718.483)" fill="#d8d245"/>
        <path id="Trazado_194057" data-name="Trazado 194057" d="M2195.722,285.693c2.426.916,4.852,1.927,7.211,3.006l1.208-2.642c-2.418-1.105-4.905-2.142-7.392-3.081Z" transform="translate(-2124.293 -275.439)" fill="#d8d245"/>
        <path id="Trazado_194058" data-name="Trazado 194058" d="M2293.557,904.688l1.81,2.272c2.083-1.659,4.135-3.41,6.1-5.205l-1.958-2.146C2297.592,901.36,2295.589,903.069,2293.557,904.688Z" transform="translate(-2190.81 -694.679)" fill="#d8d245"/>
        <path id="Trazado_194059" data-name="Trazado 194059" d="M2294.335,342.926c2.027,1.624,4.025,3.337,5.938,5.092l1.963-2.14c-1.961-1.8-4.008-3.555-6.085-5.219Z" transform="translate(-2191.339 -314.657)" fill="#d8d245"/>
        <path id="Trazado_194060" data-name="Trazado 194060" d="M2335.224,863.978l2.141,1.963c1.8-1.962,3.553-4.01,5.216-6.087l-2.268-1.815C2338.691,860.065,2336.979,862.064,2335.224,863.978Z" transform="translate(-2219.139 -666.416)" fill="#d8d245"/>
        <path id="Trazado_194061" data-name="Trazado 194061" d="M1979.285,266.449c-2.238.451-4.484.976-6.7,1.558v3c2.4-.647,4.839-1.224,7.271-1.715Z" transform="translate(-1972.588 -264.203)" fill="#d8d245"/>
      </g>
      <g id="Grupo_88785" data-name="Grupo 88785" transform="translate(671.75 19643.824)">
        <path id="Trazado_194113" data-name="Trazado 194113" d="M1812.313,402.251c8.377,0,14.33,6.393,14.33,15.432a23.966,23.966,0,0,1-.16,2.814,13.774,13.774,0,0,1-2.568,6.872c-3.453,4.564-10.443,6.784-22.405,7.069v28.219h4.85a43.677,43.677,0,0,1,11.69,1.5c7,1.946,12.479,5.72,15.966,10.9V380.8a45.327,45.327,0,0,0-21.925-5.447c-22.707,0-41.005,14.11-43.21,41.667h29.762C1799.968,406.881,1804.377,402.251,1812.313,402.251Z" transform="translate(-1756.758 -375.355)" fill="#d8d245"/>
        <path id="Trazado_194114" data-name="Trazado 194114" d="M1808.265,752.848A24.58,24.58,0,0,1,1787,764.337c-14.109,0-24.471-9.92-26.455-25.353h-29.541c1.763,30.644,24.912,52.249,56.217,52.249a58.37,58.37,0,0,0,21.043-3.8Z" transform="translate(-1731.005 -622.581)" fill="#d8d245"/>
      </g>
      <path id="Trazado_194545" data-name="Trazado 194545" d="M-970.821-247.1V60.4c-4.491,0-8.131-68.835-8.131-153.748S-975.312-247.1-970.821-247.1Z" transform="translate(1719.821 19796.096)" fill="url(#linear-gradient-3)"/>
      <g id="Grupo_88812" data-name="Grupo 88812" transform="translate(527 -4)">
        <circle id="Elipse_6620-3" data-name="Elipse 6620" cx="29.5" cy="29.5" r="29.5" transform="translate(252 19695)" fill="#d8d245"/>
      </g>
      <g id="Grupo_88807" data-name="Grupo 88807" transform="translate(779.31 19683.152)">
        <path id="Trazado_194550" data-name="Trazado 194550" d="M41.743,19.595A7.121,7.121,0,0,0,37.6,32.508a11.164,11.164,0,0,0-6.723,7.937,14.62,14.62,0,0,0-5.442-3.378,9.244,9.244,0,1,0-9.6,0A14.657,14.657,0,0,0,6,50.9a1.065,1.065,0,1,0,2.13.03V50.9A12.488,12.488,0,0,1,20.111,38.4c.173.01.357.017.532.017s.343-.007.516-.017A12.485,12.485,0,0,1,33.14,50.9a1.065,1.065,0,1,0,2.13.03V50.9a14.541,14.541,0,0,0-2.513-8.187,8.973,8.973,0,0,1,8.636-8.869c.116.006.232,0,.349,0s.234.006.349,0a8.963,8.963,0,0,1,8.636,8.969,1.065,1.065,0,0,0,2.13.03v-.03a11.122,11.122,0,0,0-6.955-10.3,7.121,7.121,0,0,0-4.16-12.913Zm-21.1,2.43a7.131,7.131,0,0,1,.482,14.244c-.165-.005-.316-.017-.482-.017s-.334.011-.5.017a7.131,7.131,0,0,1,.5-14.244Z" transform="translate(0)" fill="#fff" fill-rule="evenodd"/>
      </g>
    </g>
    <g id="Grupo_88818" data-name="Grupo 88818">
      <g id="Grupo_88782" data-name="Grupo 88782" transform="translate(1018.782 19606.717)">
        <g id="Grupo_88781" data-name="Grupo 88781" transform="translate(0 0)">
          <path id="Trazado_194062" data-name="Trazado 194062" d="M2925.87,992.81l.125,2.9c2.662-.115,5.352-.321,7.993-.612l-.318-2.887C2931.092,992.5,2928.467,992.7,2925.87,992.81Z" transform="translate(-2890.409 -757.639)" fill="#c28dde"/>
          <path id="Trazado_194063" data-name="Trazado 194063" d="M2926.988,262.4c2.6.12,5.222.328,7.8.62l.327-2.886c-2.64-.3-5.328-.513-7.99-.636Z" transform="translate(-2891.17 -259.474)" fill="#c28dde"/>
          <path id="Trazado_194064" data-name="Trazado 194064" d="M2867.9,995.016c2.643.3,5.333.508,8,.629l.131-2.9c-2.6-.117-5.223-.324-7.8-.614Z" transform="translate(-2850.994 -757.582)" fill="#c28dde"/>
          <path id="Trazado_194065" data-name="Trazado 194065" d="M2869.026,260.038l.317,2.887c2.578-.283,5.2-.481,7.8-.592l-.123-2.9C2874.359,259.545,2871.668,259.749,2869.026,260.038Z" transform="translate(-2851.762 -259.432)" fill="#c28dde"/>
          <path id="Trazado_194066" data-name="Trazado 194066" d="M2983.515,269.572c2.545.524,5.1,1.141,7.6,1.835l.776-2.8c-2.563-.711-5.185-1.344-7.794-1.881Z" transform="translate(-2929.602 -264.392)" fill="#c28dde"/>
          <path id="Trazado_194067" data-name="Trazado 194067" d="M3037.186,965.167l1.017,2.721c2.5-.933,4.993-1.965,7.421-3.066l-1.2-2.645C3042.056,963.25,3039.621,964.256,3037.186,965.167Z" transform="translate(-2966.092 -737.218)" fill="#c28dde"/>
          <path id="Trazado_194068" data-name="Trazado 194068" d="M2982.42,983.349,2983,986.2c2.608-.528,5.233-1.153,7.8-1.855l-.767-2.8C2987.525,982.224,2984.965,982.833,2982.42,983.349Z" transform="translate(-2928.857 -750.382)" fill="#c28dde"/>
          <path id="Trazado_194069" data-name="Trazado 194069" d="M3271.51,598.321l2.9-.124c-.114-2.663-.318-5.352-.608-7.993l-2.887.317C3271.2,593.1,3271.4,595.723,3271.51,598.321Z" transform="translate(-3125.002 -484.319)" fill="#c28dde"/>
          <path id="Trazado_194070" data-name="Trazado 194070" d="M3264.919,540.642c-.527-2.611-1.15-5.235-1.853-7.8l-2.8.766c.686,2.5,1.293,5.063,1.808,7.61Z" transform="translate(-3117.759 -445.319)" fill="#c28dde"/>
          <path id="Trazado_194071" data-name="Trazado 194071" d="M2815.1,984.9c2.1.551,4.224,1.052,6.342,1.486l.583-2.846c-2.315-.474-4.64-1.029-6.925-1.646Z" transform="translate(-2815.096 -750.622)" fill="#c28dde"/>
          <path id="Trazado_194072" data-name="Trazado 194072" d="M3270.8,655.946l2.886.326c.3-2.639.511-5.328.632-7.991l-2.9-.133C3271.3,650.747,3271.089,653.371,3270.8,655.946Z" transform="translate(-3124.921 -523.714)" fill="#c28dde"/>
          <path id="Trazado_194073" data-name="Trazado 194073" d="M3213.391,428.316c1.431,2.171,2.806,4.417,4.086,6.677l2.527-1.432c-1.312-2.317-2.722-4.619-4.188-6.844Z" transform="translate(-3085.892 -373.167)" fill="#c28dde"/>
          <path id="Trazado_194074" data-name="Trazado 194074" d="M3240.487,766.612l2.642,1.206c1.1-2.419,2.14-4.906,3.078-7.393l-2.717-1.025C3242.574,761.826,3241.564,764.252,3240.487,766.612Z" transform="translate(-3104.313 -599.353)" fill="#c28dde"/>
          <path id="Trazado_194075" data-name="Trazado 194075" d="M3212.834,817.577l2.421,1.605c1.47-2.217,2.884-4.513,4.2-6.823l-2.523-1.439C3215.647,813.175,3214.269,815.414,3212.834,817.577Z" transform="translate(-3085.512 -634.381)" fill="#c28dde"/>
          <path id="Trazado_194076" data-name="Trazado 194076" d="M3259.971,712.283l2.8.775c.71-2.565,1.342-5.187,1.878-7.8l-2.845-.584C3261.28,707.223,3260.664,709.782,3259.971,712.283Z" transform="translate(-3117.56 -562.149)" fill="#c28dde"/>
          <path id="Trazado_194077" data-name="Trazado 194077" d="M3240.925,479.072c1.073,2.37,2.078,4.805,2.987,7.24l2.721-1.016c-.932-2.5-1.962-4.993-3.063-7.422Z" transform="translate(-3104.611 -407.948)" fill="#c28dde"/>
          <path id="Trazado_194078" data-name="Trazado 194078" d="M3178.4,382.569c1.75,1.92,3.458,3.924,5.075,5.956l2.273-1.809c-1.659-2.083-3.408-4.137-5.2-6.1Z" transform="translate(-3062.102 -341.821)" fill="#c28dde"/>
          <path id="Trazado_194079" data-name="Trazado 194079" d="M3089.74,310.355c2.253,1.286,4.492,2.667,6.656,4.1l1.606-2.42c-2.217-1.472-4.512-2.886-6.821-4.2Z" transform="translate(-3001.823 -292.339)" fill="#c28dde"/>
          <path id="Trazado_194080" data-name="Trazado 194080" d="M3088.84,938.71l1.433,2.527c2.317-1.314,4.62-2.724,6.843-4.191l-1.6-2.424C3093.346,936.052,3091.1,937.428,3088.84,938.71Z" transform="translate(-3001.211 -718.483)" fill="#c28dde"/>
          <path id="Trazado_194081" data-name="Trazado 194081" d="M3038.23,285.693c2.426.916,4.852,1.927,7.211,3.006l1.208-2.642c-2.419-1.105-4.905-2.142-7.392-3.081Z" transform="translate(-2966.802 -275.439)" fill="#c28dde"/>
          <path id="Trazado_194082" data-name="Trazado 194082" d="M3136.065,904.688l1.811,2.272c2.082-1.659,4.135-3.41,6.1-5.205l-1.958-2.146C3140.1,901.36,3138.1,903.069,3136.065,904.688Z" transform="translate(-3033.318 -694.679)" fill="#c28dde"/>
          <path id="Trazado_194083" data-name="Trazado 194083" d="M3136.843,342.926c2.026,1.624,4.024,3.337,5.938,5.092l1.963-2.14c-1.961-1.8-4.009-3.555-6.085-5.219Z" transform="translate(-3033.847 -314.657)" fill="#c28dde"/>
          <path id="Trazado_194084" data-name="Trazado 194084" d="M3177.732,863.978l2.141,1.963c1.8-1.962,3.554-4.01,5.216-6.087l-2.267-1.815C3181.2,860.065,3179.487,862.064,3177.732,863.978Z" transform="translate(-3061.647 -666.416)" fill="#c28dde"/>
          <path id="Trazado_194085" data-name="Trazado 194085" d="M2821.792,266.449c-2.237.451-4.483.976-6.7,1.558v3c2.4-.647,4.84-1.224,7.271-1.715Z" transform="translate(-2815.096 -264.203)" fill="#c28dde"/>
        </g>
      </g>
      <path id="Trazado_194112" data-name="Trazado 194112" d="M2603.71,488.206h-.1V375.992h-24.692L2503.96,490.631V514.44h70.327v24.471h29.321V514.44h.1Zm-29.423,0h-40.565l34.856-53.988,5.709-8.842Z" transform="translate(-1584.776 19268.037)" fill="#c28dde"/>
      <path id="Trazado_194546" data-name="Trazado 194546" d="M-970.821-247.1V60.4c-4.491,0-8.131-68.835-8.131-153.748S-975.312-247.1-970.821-247.1Z" transform="translate(1989.821 19796.096)" fill="url(#linear-gradient-4)"/>
      <g id="Grupo_88813" data-name="Grupo 88813" transform="translate(796 -4)">
        <circle id="Elipse_6620-4" data-name="Elipse 6620" cx="29.5" cy="29.5" r="29.5" transform="translate(252 19695)" fill="#c28dde"/>
      </g>
      <g id="Grupo_88809" data-name="Grupo 88809" transform="translate(1020.655 19686.748)">
        <path id="Trazado_194557" data-name="Trazado 194557" d="M69.491,16H45.2a1.737,1.737,0,0,0-1.735,1.735v26.6H40.578a.578.578,0,0,0-.578.578V47.8a2.9,2.9,0,0,0,2.891,2.891H68.334A2.9,2.9,0,0,0,71.225,47.8V17.735A1.737,1.737,0,0,0,69.491,16Zm-26.6,33.538A1.737,1.737,0,0,1,41.156,47.8V45.491H65.443V47.8a2.877,2.877,0,0,0,.58,1.735ZM70.069,47.8a1.735,1.735,0,1,1-3.469,0V44.912a.578.578,0,0,0-.578-.578h-21.4v-26.6a.579.579,0,0,1,.578-.578H69.491a.579.579,0,0,1,.578.578Z" transform="translate(0)" fill="#fff"/>
        <path id="Trazado_194558" data-name="Trazado 194558" d="M132.048,312h-3.469a.578.578,0,0,0-.578.578v3.469a.578.578,0,0,0,.578.578h3.469a.578.578,0,0,0,.578-.578v-3.469A.578.578,0,0,0,132.048,312Zm-.578,3.469h-2.313v-2.313h2.313Z" transform="translate(-81.639 -274.605)" fill="#fff"/>
        <path id="Trazado_194559" data-name="Trazado 194559" d="M372.048,96h-3.469a.578.578,0,0,0-.578.578v3.469a.578.578,0,0,0,.578.578h3.469a.578.578,0,0,0,.578-.578V96.578A.578.578,0,0,0,372.048,96Zm-.578,3.469h-2.313V97.156h2.313Z" transform="translate(-304.292 -74.217)" fill="#fff"/>
        <path id="Trazado_194560" data-name="Trazado 194560" d="M218.408,121.156V120h-2.891a3.473,3.473,0,0,0-3.469,3.469v9.83a2.316,2.316,0,0,1-2.313,2.313H208v1.156h1.735A3.473,3.473,0,0,0,213.2,133.3v-9.83a2.316,2.316,0,0,1,2.313-2.313Z" transform="translate(-155.857 -96.483)" fill="#fff"/>
        <path id="Trazado_194561" data-name="Trazado 194561" d="M173.812,218.343l-1.326,1.326-1.326-1.326-.818.818,1.326,1.326-1.326,1.326.818.818,1.326-1.326,1.326,1.326.818-.818-1.326-1.326,1.326-1.326Z" transform="translate(-120.922 -187.717)" fill="#fff"/>
        <path id="Trazado_194562" data-name="Trazado 194562" d="M309.813,298.343l-1.326,1.326-1.326-1.326-.818.818,1.326,1.326-1.326,1.326.818.818,1.326-1.326,1.326,1.326.818-.818-1.326-1.326,1.326-1.326Z" transform="translate(-247.091 -261.935)" fill="#fff"/>
        <rect id="Rectángulo_7745" data-name="Rectángulo 7745" width="2.438" height="1.045" transform="translate(65.43 40.941)" fill="#fff"/>
        <rect id="Rectángulo_7746" data-name="Rectángulo 7746" width="1.742" height="1.393" transform="translate(56.024 21.085)" fill="#fff"/>
        <rect id="Rectángulo_7747" data-name="Rectángulo 7747" width="2.438" height="1.045" transform="translate(46.967 25.962)" fill="#fff"/>
        <path id="Trazado_194563" data-name="Trazado 194563" d="M146.41,68.369a.578.578,0,0,0,.962,0l2.313-3.469a.578.578,0,0,0-.481-.9h-4.626a.578.578,0,0,0-.481.9Zm1.714-3.212-1.233,1.849-1.233-1.849Z" transform="translate(-96.483 -44.531)" fill="#fff"/>
        <path id="Trazado_194564" data-name="Trazado 194564" d="M348.626,194.313a2.313,2.313,0,1,0-2.313,2.313A2.313,2.313,0,0,0,348.626,194.313Zm-2.313,1.156a1.156,1.156,0,1,1,1.157-1.156A1.156,1.156,0,0,1,346.313,195.469Z" transform="translate(-282.027 -163.279)" fill="#fff"/>
      </g>
    </g>
    <g id="Grupo_88819" data-name="Grupo 88819">
      <g id="Grupo_88783" data-name="Grupo 88783" transform="translate(1270.59 19606.717)">
        <path id="Trazado_194086" data-name="Trazado 194086" d="M3712.489,992.81l.125,2.9c2.662-.115,5.351-.321,7.993-.612l-.318-2.887C3717.711,992.5,3715.086,992.7,3712.489,992.81Z" transform="translate(-3677.029 -757.639)" fill="#607b82"/>
        <path id="Trazado_194087" data-name="Trazado 194087" d="M3713.607,262.4c2.6.12,5.222.328,7.8.62l.327-2.886c-2.64-.3-5.329-.513-7.991-.636Z" transform="translate(-3677.789 -259.474)" fill="#607b82"/>
        <path id="Trazado_194088" data-name="Trazado 194088" d="M3654.515,995.016c2.642.3,5.332.508,7.995.629l.131-2.9c-2.6-.117-5.223-.324-7.8-.614Z" transform="translate(-3637.613 -757.582)" fill="#607b82"/>
        <path id="Trazado_194089" data-name="Trazado 194089" d="M3655.645,260.038l.316,2.887c2.579-.283,5.2-.481,7.8-.592l-.123-2.9C3660.978,259.545,3658.287,259.749,3655.645,260.038Z" transform="translate(-3638.381 -259.432)" fill="#607b82"/>
        <path id="Trazado_194090" data-name="Trazado 194090" d="M3770.135,269.572c2.544.524,5.1,1.141,7.6,1.835l.777-2.8c-2.563-.711-5.186-1.344-7.794-1.881Z" transform="translate(-3716.222 -264.392)" fill="#607b82"/>
        <path id="Trazado_194091" data-name="Trazado 194091" d="M3823.806,965.167l1.017,2.721c2.5-.933,4.993-1.965,7.421-3.066l-1.2-2.645C3828.675,963.25,3826.24,964.256,3823.806,965.167Z" transform="translate(-3752.712 -737.218)" fill="#607b82"/>
        <path id="Trazado_194092" data-name="Trazado 194092" d="M3769.039,983.349l.577,2.847c2.608-.528,5.232-1.153,7.8-1.855l-.768-2.8C3774.144,982.224,3771.584,982.833,3769.039,983.349Z" transform="translate(-3715.477 -750.382)" fill="#607b82"/>
        <path id="Trazado_194093" data-name="Trazado 194093" d="M4058.128,598.321l2.9-.124c-.114-2.663-.318-5.352-.608-7.993l-2.887.317C4057.817,593.1,4058.018,595.723,4058.128,598.321Z" transform="translate(-3911.621 -484.319)" fill="#607b82"/>
        <path id="Trazado_194094" data-name="Trazado 194094" d="M4051.539,540.642c-.527-2.611-1.15-5.235-1.853-7.8l-2.8.766c.685,2.5,1.292,5.063,1.807,7.61Z" transform="translate(-3904.38 -445.319)" fill="#607b82"/>
        <path id="Trazado_194095" data-name="Trazado 194095" d="M3601.715,984.9c2.1.551,4.224,1.052,6.342,1.486l.583-2.846c-2.315-.474-4.64-1.029-6.925-1.646Z" transform="translate(-3601.715 -750.622)" fill="#607b82"/>
        <path id="Trazado_194096" data-name="Trazado 194096" d="M4057.417,655.946l2.886.326c.3-2.639.511-5.328.632-7.991l-2.9-.133C4057.916,650.747,4057.708,653.371,4057.417,655.946Z" transform="translate(-3911.541 -523.714)" fill="#607b82"/>
        <path id="Trazado_194097" data-name="Trazado 194097" d="M4000.011,428.316c1.431,2.171,2.806,4.417,4.086,6.677l2.527-1.432c-1.312-2.317-2.721-4.619-4.188-6.844Z" transform="translate(-3872.51 -373.167)" fill="#607b82"/>
        <path id="Trazado_194098" data-name="Trazado 194098" d="M4027.106,766.612l2.642,1.206c1.1-2.419,2.14-4.906,3.077-7.393l-2.717-1.025C4029.193,761.826,4028.183,764.252,4027.106,766.612Z" transform="translate(-3890.933 -599.353)" fill="#607b82"/>
        <path id="Trazado_194099" data-name="Trazado 194099" d="M3999.452,817.577l2.421,1.605c1.47-2.217,2.884-4.513,4.2-6.823l-2.523-1.439C4002.266,813.175,4000.887,815.414,3999.452,817.577Z" transform="translate(-3872.131 -634.381)" fill="#607b82"/>
        <path id="Trazado_194100" data-name="Trazado 194100" d="M4046.591,712.283l2.8.775c.711-2.565,1.342-5.187,1.878-7.8l-2.845-.584C4047.9,707.223,4047.283,709.782,4046.591,712.283Z" transform="translate(-3904.18 -562.149)" fill="#607b82"/>
        <path id="Trazado_194101" data-name="Trazado 194101" d="M4027.544,479.072c1.074,2.37,2.079,4.805,2.988,7.24l2.721-1.016c-.933-2.5-1.963-4.993-3.063-7.422Z" transform="translate(-3891.23 -407.948)" fill="#607b82"/>
        <path id="Trazado_194102" data-name="Trazado 194102" d="M3965.019,382.569c1.75,1.92,3.458,3.924,5.076,5.956l2.272-1.809c-1.658-2.083-3.408-4.137-5.2-6.1Z" transform="translate(-3848.721 -341.821)" fill="#607b82"/>
        <path id="Trazado_194103" data-name="Trazado 194103" d="M3876.359,310.355c2.253,1.286,4.492,2.667,6.656,4.1l1.606-2.42c-2.217-1.472-4.512-2.886-6.822-4.2Z" transform="translate(-3788.442 -292.339)" fill="#607b82"/>
        <path id="Trazado_194104" data-name="Trazado 194104" d="M3875.46,938.71l1.433,2.527c2.317-1.314,4.62-2.724,6.843-4.191l-1.6-2.424C3879.966,936.052,3877.72,937.428,3875.46,938.71Z" transform="translate(-3787.83 -718.483)" fill="#607b82"/>
        <path id="Trazado_194105" data-name="Trazado 194105" d="M3824.85,285.693c2.426.916,4.851,1.927,7.211,3.006l1.207-2.642c-2.418-1.105-4.906-2.142-7.392-3.081Z" transform="translate(-3753.421 -275.439)" fill="#607b82"/>
        <path id="Trazado_194106" data-name="Trazado 194106" d="M3922.684,904.688l1.81,2.272c2.082-1.659,4.135-3.41,6.1-5.205l-1.958-2.146C3926.719,901.36,3924.716,903.069,3922.684,904.688Z" transform="translate(-3819.937 -694.679)" fill="#607b82"/>
        <path id="Trazado_194107" data-name="Trazado 194107" d="M3923.462,342.926c2.026,1.624,4.024,3.337,5.938,5.092l1.964-2.14c-1.961-1.8-4.009-3.555-6.085-5.219Z" transform="translate(-3820.467 -314.657)" fill="#607b82"/>
        <path id="Trazado_194108" data-name="Trazado 194108" d="M3964.351,863.978l2.141,1.963c1.8-1.962,3.553-4.01,5.216-6.087l-2.268-1.815C3967.818,860.065,3966.105,862.064,3964.351,863.978Z" transform="translate(-3848.266 -666.416)" fill="#607b82"/>
        <path id="Trazado_194109" data-name="Trazado 194109" d="M3608.412,266.449c-2.238.451-4.484.976-6.7,1.558v3c2.4-.647,4.84-1.224,7.272-1.715Z" transform="translate(-3601.715 -264.203)" fill="#607b82"/>
      </g>
      <g id="Grupo_88784" data-name="Grupo 88784" transform="translate(1197.033 19644.293)">
        <path id="Trazado_194110" data-name="Trazado 194110" d="M3444.065,456.623a26.1,26.1,0,0,1,3.588.254,25.082,25.082,0,0,1,13.662,6.5V431.337a51.959,51.959,0,0,0-8.55-1.422c-1.483-.122-2.986-.187-4.512-.187-7.5,0-12.566,1.1-20.943,4.63l5.291-29.982h28.714V376.817h-50.76l-15.212,85.1,26.015,7.055C3428.633,459.93,3434.806,456.623,3444.065,456.623Z" transform="translate(-3387.848 -376.817)" fill="#607b82"/>
        <path id="Trazado_194111" data-name="Trazado 194111" d="M3445.4,751.595a24.7,24.7,0,0,1-3.563,2.73,26.206,26.206,0,0,1-14.128,3.925c-14.109,0-23.589-8.818-26.456-24.691h-29.321c1.543,29.983,27.778,51.587,56.658,51.587a56.811,56.811,0,0,0,16.809-2.5Z" transform="translate(-3371.929 -619.36)" fill="#607b82"/>
      </g>
      <path id="Trazado_194547" data-name="Trazado 194547" d="M-970.821-247.1V60.4c-4.491,0-8.131-68.835-8.131-153.748S-975.312-247.1-970.821-247.1Z" transform="translate(2242.821 19796.096)" fill="url(#linear-gradient-5)"/>
      <g id="Grupo_88814" data-name="Grupo 88814" transform="translate(1059 -4)">
        <circle id="Elipse_6620-5" data-name="Elipse 6620" cx="29.5" cy="29.5" r="29.5" transform="translate(252 19695)" fill="#607b82"/>
      </g>
      <g id="Grupo_88808" data-name="Grupo 88808" transform="translate(1321.173 19700.789)">
        <path id="Trazado_194551" data-name="Trazado 194551" d="M9.321,28a5.321,5.321,0,1,0,5.321,5.321A5.327,5.327,0,0,0,9.321,28Zm0,9.459a4.138,4.138,0,1,1,4.138-4.138A4.143,4.143,0,0,1,9.321,37.459Z" transform="translate(-1.635 -11.447)" fill="#fff"/>
        <ellipse id="Elipse_6618" data-name="Elipse 6618" cy="0.56" ry="0.56" transform="translate(14.956 7.436)" fill="#fff"/>
        <path id="Trazado_194552" data-name="Trazado 194552" d="M29.648,18.206l.062-.125-1.058-.529-.062.125a1.322,1.322,0,0,1-2.365,0l-.062-.125-1.058.529.062.124a2.5,2.5,0,0,0,4.48,0Z" transform="translate(-10.264 -7.175)" fill="#fff"/>
        <path id="Trazado_194553" data-name="Trazado 194553" d="M35.7,3.985c-.028-.072-.059-.144-.09-.216l.45-.9L33.785.594l-.9.45c-.072-.032-.144-.062-.216-.09L32.35,0H29.134l-.318.954c-.072.028-.144.059-.216.09l-.9-.45L25.425,2.869l.45.9c-.032.072-.061.144-.09.216L24.83,4.3V7.52l.954.318c.024.061.05.122.076.183a1.757,1.757,0,0,0-1.03-.336h-.591V7.094a7.094,7.094,0,0,0-14.188,0v.591H9.459A1.776,1.776,0,0,0,7.685,9.459v4.729A7.685,7.685,0,0,0,5.363,29.2a2.256,2.256,0,0,0-.043.361v4.729a2.365,2.365,0,0,0,4.729,0V29.559a2.256,2.256,0,0,0-.043-.361,7.673,7.673,0,0,0,4.987-9.69h.08l1.241,1.655A1.774,1.774,0,0,0,19.509,20.1v-.591H24.83A1.776,1.776,0,0,0,26.6,17.736v-7.6l1.1,1.1.9-.45c.072.032.144.062.216.09l.318.954H32.35l.318-.954c.072-.028.144-.059.216-.09l.9.45,2.275-2.275-.45-.9c.032-.072.061-.144.09-.216l.955-.318V4.3ZM11.233,7.094a5.912,5.912,0,1,1,11.824,0v7.094a2.942,2.942,0,0,1-1.466,2.543,4.746,4.746,0,0,0-1.759-2.291,3.55,3.55,0,0,0,2.042-3.208V5.912h-.591a5.082,5.082,0,0,1-3.619-1.5l-.519-.517-.52.518a5.081,5.081,0,0,1-3.619,1.5h-.591v5.321a3.549,3.549,0,0,0,2.038,3.205A4.707,4.707,0,0,0,12.9,16.245a7.727,7.727,0,0,0-1.491-1.088,2.9,2.9,0,0,1-.176-.968Zm4.729,6.5A2.367,2.367,0,0,1,13.6,11.233V7.067a6.24,6.24,0,0,0,3.547-1.522,6.238,6.238,0,0,0,3.547,1.522v4.166A2.367,2.367,0,0,1,18.327,13.6Zm1.182,1.182a3.524,3.524,0,0,1,1.162.2,1.173,1.173,0,0,1-2.316-.007A3.567,3.567,0,0,1,17.144,14.78ZM8.868,9.459a.592.592,0,0,1,.591-.591h.591v5.321c0,.129.007.256.019.383a7.707,7.707,0,0,0-1.2-.283Zm0,20.1v4.729a1.182,1.182,0,1,1-2.365,0V29.559c0-.033.009-.066.012-.1a7.721,7.721,0,0,0,1.171.1,7.721,7.721,0,0,0,1.171-.1C8.859,29.494,8.868,29.526,8.868,29.559ZM7.685,28.377a6.5,6.5,0,1,1,6.5-6.5A6.511,6.511,0,0,1,7.685,28.377Zm10.641-10.05V20.1a.591.591,0,0,1-1.064.355l-1.6-2.128H14.5a7.648,7.648,0,0,0-.71-1.107,3.529,3.529,0,0,1,1.136-1.657,2.351,2.351,0,0,0,4.442,0,3.542,3.542,0,0,1,1.327,2.762Zm7.094-.591a.592.592,0,0,1-.591.591H21.874c0-.135-.009-.269-.02-.4a4.121,4.121,0,0,0,2.385-3.737V8.868h.591a.592.592,0,0,1,.591.591ZM35.471,6.668l-.7.234-.092.284a4.078,4.078,0,0,1-.253.6l-.137.267.333.664L33.552,9.79l-.664-.331-.266.136a4.149,4.149,0,0,1-.6.252l-.284.092-.235.7H29.985l-.234-.7-.284-.092a4.016,4.016,0,0,1-.6-.253L28.6,9.459l-.664.332L26.862,8.721l.333-.664-.137-.267a4.143,4.143,0,0,1-.253-.6L26.713,6.9l-.7-.234V5.156l.7-.234.092-.284a4.02,4.02,0,0,1,.253-.6l.137-.267L26.862,3.1l1.069-1.069.664.331.266-.136a4.149,4.149,0,0,1,.6-.252l.284-.092.235-.7H31.5l.234.7.284.092a4.1,4.1,0,0,1,.6.252l.266.136.664-.332L34.621,3.1l-.333.664.137.267a4.142,4.142,0,0,1,.253.6l.092.284.7.235Z" transform="translate(0 0)" fill="#fff"/>
        <path id="Trazado_194554" data-name="Trazado 194554" d="M49.956,5a2.956,2.956,0,1,0,2.956,2.956A2.959,2.959,0,0,0,49.956,5Zm0,4.729a1.774,1.774,0,1,1,1.774-1.774A1.776,1.776,0,0,1,49.956,9.729Z" transform="translate(-19.214 -2.044)" fill="#fff"/>
        <path id="Trazado_194555" data-name="Trazado 194555" d="M46.918,39.956h-4.9a4.136,4.136,0,0,0-7.928,0h-4.9A1.184,1.184,0,0,0,28,41.138v1.182A1.184,1.184,0,0,0,29.182,43.5h.078l.417,2.916L28.52,47.57a1.763,1.763,0,0,0,1.767,2.944,1.781,1.781,0,0,0,1.694,1.266H44.119a1.78,1.78,0,0,0,1.694-1.266,1.769,1.769,0,0,0,1.768-2.944l-1.157-1.157.416-2.91h.078A1.184,1.184,0,0,0,48.1,42.321V41.138A1.184,1.184,0,0,0,46.918,39.956ZM38.05,38.182a2.956,2.956,0,1,1-2.956,2.956A2.959,2.959,0,0,1,38.05,38.182Zm-8.868,2.956h4.729a4.129,4.129,0,0,0,.115.954l-.229.228H29.182ZM30.455,43.5h2.154l-1.886,1.875Zm-1.1,5.739a.591.591,0,0,1,0-.836l5.062-5.062.087-.082a4.168,4.168,0,0,0,.749.918l-5.062,5.062A.6.6,0,0,1,29.356,49.242ZM44.119,50.6h-.748V48.824H42.188V50.6H41.006V47.641H39.824V50.6H38.641V46.459H37.459V50.6H36.277V47.641H35.094V50.6H33.912V48.824H32.729V50.6h-.748a.593.593,0,0,1-.585-.508l-.048-.333,4.9-4.9a4.089,4.089,0,0,0,3.606,0l4.9,4.9-.048.333A.592.592,0,0,1,44.119,50.6Zm2.8-1.774a.581.581,0,0,1-.173.418.6.6,0,0,1-.836,0l-5.062-5.062a4.155,4.155,0,0,0,.743-.909l5.155,5.135A.582.582,0,0,1,46.918,48.824Zm-1.539-3.456L43.514,43.5h2.131Zm1.539-3.047H42.326l-.249-.241a4.123,4.123,0,0,0,.112-.942h4.729Z" transform="translate(-11.447 -15.126)" fill="#fff"/>
        <path id="Trazado_194556" data-name="Trazado 194556" d="M43.774,44.547A1.774,1.774,0,1,0,42,42.774,1.776,1.776,0,0,0,43.774,44.547Zm0-2.365a.591.591,0,1,1-.591.591A.592.592,0,0,1,43.774,42.182Z" transform="translate(-17.17 -16.761)" fill="#fff"/>
        <rect id="Rectángulo_7738" data-name="Rectángulo 7738" width="1.12" height="2.239" transform="translate(29.511 13.034)" fill="#fff"/>
        <rect id="Rectángulo_7739" data-name="Rectángulo 7739" width="1.12" height="2.239" transform="translate(27.272 13.034)" fill="#fff"/>
        <rect id="Rectángulo_7740" data-name="Rectángulo 7740" width="2.239" height="2.239" transform="translate(31.751 13.034)" fill="#fff"/>
        <rect id="Rectángulo_7741" data-name="Rectángulo 7741" width="6.718" height="2.239" transform="translate(27.272 15.274)" fill="#fff"/>
        <rect id="Rectángulo_7742" data-name="Rectángulo 7742" width="1.12" height="1.12" transform="translate(7.118 20.872)" fill="#fff"/>
        <rect id="Rectángulo_7743" data-name="Rectángulo 7743" height="1.12" transform="translate(10.477 20.872)" fill="#fff"/>
        <rect id="Rectángulo_7744" data-name="Rectángulo 7744" width="1.12" height="1.12" transform="translate(4.879 20.872)" fill="#fff"/>
      </g>
    </g>
  </g>
</svg>
