<svg xmlns="http://www.w3.org/2000/svg" width="832" height="371" viewBox="0 0 832 371">
  <g id="Grupo_89739" data-name="Grupo 89739" transform="translate(-394 -16664)">
    <path id="Trazado_196220" data-name="Trazado 196220" d="M10,0H167a10,10,0,0,1,10,10V30a10,10,0,0,1-10,10H10A10,10,0,0,1,0,30V10A10,10,0,0,1,10,0Z" transform="translate(394 16703)" fill="#26cb99"/>
    <path id="Trazado_196221" data-name="Trazado 196221" d="M3.524-4.755V0H1.3V-12.8H6.2A4.954,4.954,0,0,1,9.6-11.681a3.751,3.751,0,0,1,1.261,2.953A3.627,3.627,0,0,1,9.628-5.8,5.194,5.194,0,0,1,6.17-4.755Zm0-1.784H6.2A2.632,2.632,0,0,0,8.007-7.1,2.051,2.051,0,0,0,8.631-8.71,2.213,2.213,0,0,0,8-10.367,2.439,2.439,0,0,0,6.258-11H3.524Zm14.054-1.02a5.285,5.285,0,0,0-.87-.07A1.959,1.959,0,0,0,14.73-6.5V0H12.595V-9.51h2.039l.053,1.063a2.406,2.406,0,0,1,2.145-1.239,2,2,0,0,1,.756.123Zm.633,2.716a5.607,5.607,0,0,1,.554-2.518A4.044,4.044,0,0,1,20.32-9.083a4.383,4.383,0,0,1,2.3-.6,4.154,4.154,0,0,1,3.125,1.239,4.874,4.874,0,0,1,1.3,3.287l.009.5a5.658,5.658,0,0,1-.541,2.514A4,4,0,0,1,24.965-.431a4.415,4.415,0,0,1-2.325.606,4.125,4.125,0,0,1-3.221-1.34,5.133,5.133,0,0,1-1.208-3.573Zm2.136.185a3.832,3.832,0,0,0,.606,2.3,1.971,1.971,0,0,0,1.688.831,1.95,1.95,0,0,0,1.683-.844,4.232,4.232,0,0,0,.6-2.47,3.782,3.782,0,0,0-.62-2.285,1.979,1.979,0,0,0-1.683-.844,1.96,1.96,0,0,0-1.661.831A4.152,4.152,0,0,0,20.347-4.658Zm8.112-.167a5.654,5.654,0,0,1,1.02-3.529,3.267,3.267,0,0,1,2.733-1.332,3.1,3.1,0,0,1,2.443,1.055V-13.5h2.136V0H34.857l-.105-.984A3.148,3.148,0,0,1,32.194.176a3.248,3.248,0,0,1-2.7-1.345A5.861,5.861,0,0,1,28.459-4.825Zm2.136.185a3.958,3.958,0,0,0,.558,2.263,1.811,1.811,0,0,0,1.586.813,2.017,2.017,0,0,0,1.916-1.169V-6.794a1.986,1.986,0,0,0-1.9-1.143,1.824,1.824,0,0,0-1.6.822A4.408,4.408,0,0,0,30.595-4.641ZM44.78-.932A3.312,3.312,0,0,1,42.108.176a2.952,2.952,0,0,1-2.342-.905,3.851,3.851,0,0,1-.8-2.619V-9.51h2.136v6.135q0,1.811,1.5,1.811a2.111,2.111,0,0,0,2.1-1.116V-9.51h2.136V0H44.833Zm8.147-.6A1.931,1.931,0,0,0,54.255-2a1.591,1.591,0,0,0,.563-1.151H56.83a3.137,3.137,0,0,1-.554,1.657A3.632,3.632,0,0,1,54.87-.272a4.191,4.191,0,0,1-1.916.448A4.055,4.055,0,0,1,49.79-1.116a5.124,5.124,0,0,1-1.169-3.568V-4.9a5.039,5.039,0,0,1,1.16-3.476,4.018,4.018,0,0,1,3.164-1.305,3.907,3.907,0,0,1,2.764.989A3.542,3.542,0,0,1,56.83-6.1H54.817a1.956,1.956,0,0,0-.558-1.345,1.8,1.8,0,0,0-1.332-.527,1.879,1.879,0,0,0-1.6.751,3.834,3.834,0,0,0-.571,2.281V-4.6a3.9,3.9,0,0,0,.558,2.307A1.878,1.878,0,0,0,52.928-1.529Zm8.191-10.292V-9.51H62.8v1.582H61.119v5.309a1.169,1.169,0,0,0,.215.787,1,1,0,0,0,.769.242,3.29,3.29,0,0,0,.747-.088V-.026a5.26,5.26,0,0,1-1.406.2q-2.461,0-2.461-2.716V-7.928H57.419V-9.51h1.564v-2.312Zm2.646,6.979a5.607,5.607,0,0,1,.554-2.518,4.044,4.044,0,0,1,1.556-1.723,4.383,4.383,0,0,1,2.3-.6A4.154,4.154,0,0,1,71.3-8.446a4.874,4.874,0,0,1,1.3,3.287l.009.5a5.658,5.658,0,0,1-.541,2.514A4,4,0,0,1,70.519-.431a4.415,4.415,0,0,1-2.325.606,4.125,4.125,0,0,1-3.221-1.34,5.133,5.133,0,0,1-1.208-3.573Zm2.136.185a3.832,3.832,0,0,0,.606,2.3,1.971,1.971,0,0,0,1.688.831,1.95,1.95,0,0,0,1.683-.844,4.232,4.232,0,0,0,.6-2.47,3.782,3.782,0,0,0-.62-2.285,1.979,1.979,0,0,0-1.683-.844,1.96,1.96,0,0,0-1.661.831A4.152,4.152,0,0,0,65.9-4.658Zm13.491-2.9a5.285,5.285,0,0,0-.87-.07A1.959,1.959,0,0,0,76.544-6.5V0H74.408V-9.51h2.039L76.5-8.446a2.406,2.406,0,0,1,2.145-1.239,2,2,0,0,1,.756.123Z" transform="translate(443 16729.5)" fill="#12263f"/>
    <path id="Trazado_196222" data-name="Trazado 196222" d="M10,0H167a10,10,0,0,1,10,10V30a10,10,0,0,1-10,10H10A10,10,0,0,1,0,30V10A10,10,0,0,1,10,0Z" transform="translate(592 16703)" fill="#26cb99"/>
    <path id="Trazado_196223" data-name="Trazado 196223" d="M3.524-4.755V0H1.3V-12.8H6.2A4.954,4.954,0,0,1,9.6-11.681a3.751,3.751,0,0,1,1.261,2.953A3.627,3.627,0,0,1,9.628-5.8,5.194,5.194,0,0,1,6.17-4.755Zm0-1.784H6.2A2.632,2.632,0,0,0,8.007-7.1,2.051,2.051,0,0,0,8.631-8.71,2.213,2.213,0,0,0,8-10.367,2.439,2.439,0,0,0,6.258-11H3.524Zm14.054-1.02a5.285,5.285,0,0,0-.87-.07A1.959,1.959,0,0,0,14.73-6.5V0H12.595V-9.51h2.039l.053,1.063a2.406,2.406,0,0,1,2.145-1.239,2,2,0,0,1,.756.123Zm.633,2.716a5.607,5.607,0,0,1,.554-2.518A4.044,4.044,0,0,1,20.32-9.083a4.383,4.383,0,0,1,2.3-.6,4.154,4.154,0,0,1,3.125,1.239,4.874,4.874,0,0,1,1.3,3.287l.009.5a5.658,5.658,0,0,1-.541,2.514A4,4,0,0,1,24.965-.431a4.415,4.415,0,0,1-2.325.606,4.125,4.125,0,0,1-3.221-1.34,5.133,5.133,0,0,1-1.208-3.573Zm2.136.185a3.832,3.832,0,0,0,.606,2.3,1.971,1.971,0,0,0,1.688.831,1.95,1.95,0,0,0,1.683-.844,4.232,4.232,0,0,0,.6-2.47,3.782,3.782,0,0,0-.62-2.285,1.979,1.979,0,0,0-1.683-.844,1.96,1.96,0,0,0-1.661.831A4.152,4.152,0,0,0,20.347-4.658Zm8.112-.167a5.654,5.654,0,0,1,1.02-3.529,3.267,3.267,0,0,1,2.733-1.332,3.1,3.1,0,0,1,2.443,1.055V-13.5h2.136V0H34.857l-.105-.984A3.148,3.148,0,0,1,32.194.176a3.248,3.248,0,0,1-2.7-1.345A5.861,5.861,0,0,1,28.459-4.825Zm2.136.185a3.958,3.958,0,0,0,.558,2.263,1.811,1.811,0,0,0,1.586.813,2.017,2.017,0,0,0,1.916-1.169V-6.794a1.986,1.986,0,0,0-1.9-1.143,1.824,1.824,0,0,0-1.6.822A4.408,4.408,0,0,0,30.595-4.641ZM44.78-.932A3.312,3.312,0,0,1,42.108.176a2.952,2.952,0,0,1-2.342-.905,3.851,3.851,0,0,1-.8-2.619V-9.51h2.136v6.135q0,1.811,1.5,1.811a2.111,2.111,0,0,0,2.1-1.116V-9.51h2.136V0H44.833Zm8.147-.6A1.931,1.931,0,0,0,54.255-2a1.591,1.591,0,0,0,.563-1.151H56.83a3.137,3.137,0,0,1-.554,1.657A3.632,3.632,0,0,1,54.87-.272a4.191,4.191,0,0,1-1.916.448A4.055,4.055,0,0,1,49.79-1.116a5.124,5.124,0,0,1-1.169-3.568V-4.9a5.039,5.039,0,0,1,1.16-3.476,4.018,4.018,0,0,1,3.164-1.305,3.907,3.907,0,0,1,2.764.989A3.542,3.542,0,0,1,56.83-6.1H54.817a1.956,1.956,0,0,0-.558-1.345,1.8,1.8,0,0,0-1.332-.527,1.879,1.879,0,0,0-1.6.751,3.834,3.834,0,0,0-.571,2.281V-4.6a3.9,3.9,0,0,0,.558,2.307A1.878,1.878,0,0,0,52.928-1.529Zm8.191-10.292V-9.51H62.8v1.582H61.119v5.309a1.169,1.169,0,0,0,.215.787,1,1,0,0,0,.769.242,3.29,3.29,0,0,0,.747-.088V-.026a5.26,5.26,0,0,1-1.406.2q-2.461,0-2.461-2.716V-7.928H57.419V-9.51h1.564v-2.312Zm2.646,6.979a5.607,5.607,0,0,1,.554-2.518,4.044,4.044,0,0,1,1.556-1.723,4.383,4.383,0,0,1,2.3-.6A4.154,4.154,0,0,1,71.3-8.446a4.874,4.874,0,0,1,1.3,3.287l.009.5a5.658,5.658,0,0,1-.541,2.514A4,4,0,0,1,70.519-.431a4.415,4.415,0,0,1-2.325.606,4.125,4.125,0,0,1-3.221-1.34,5.133,5.133,0,0,1-1.208-3.573Zm2.136.185a3.832,3.832,0,0,0,.606,2.3,1.971,1.971,0,0,0,1.688.831,1.95,1.95,0,0,0,1.683-.844,4.232,4.232,0,0,0,.6-2.47,3.782,3.782,0,0,0-.62-2.285,1.979,1.979,0,0,0-1.683-.844,1.96,1.96,0,0,0-1.661.831A4.152,4.152,0,0,0,65.9-4.658Zm13.491-2.9a5.285,5.285,0,0,0-.87-.07A1.959,1.959,0,0,0,76.544-6.5V0H74.408V-9.51h2.039L76.5-8.446a2.406,2.406,0,0,1,2.145-1.239,2,2,0,0,1,.756.123Z" transform="translate(640.5 16729.5)" fill="#12263f"/>
    <path id="Trazado_196224" data-name="Trazado 196224" d="M10,0H618a10,10,0,0,1,10,10V42a10,10,0,0,1-10,10H10A10,10,0,0,1,0,42V10A10,10,0,0,1,10,0Z" transform="translate(394 16824)" fill="#eb9595"/>
    <path id="Trazado_196225" data-name="Trazado 196225" d="M11.065-4.166A4.621,4.621,0,0,1,9.554-.971,5.154,5.154,0,0,1,6.047.176,4.99,4.99,0,0,1,3.353-.549a4.759,4.759,0,0,1-1.8-2.061A7.438,7.438,0,0,1,.9-5.713v-1.2a7.491,7.491,0,0,1,.642-3.19,4.835,4.835,0,0,1,1.841-2.127,5.136,5.136,0,0,1,2.773-.747,4.934,4.934,0,0,1,3.41,1.151,4.81,4.81,0,0,1,1.5,3.252H8.851a3.161,3.161,0,0,0-.8-1.991,2.658,2.658,0,0,0-1.894-.611,2.6,2.6,0,0,0-2.228,1.059A5.289,5.289,0,0,0,3.129-7v1.134a5.611,5.611,0,0,0,.743,3.164,2.465,2.465,0,0,0,2.175,1.09,2.875,2.875,0,0,0,1.969-.589,3.071,3.071,0,0,0,.835-1.96ZM18.527,0a3.3,3.3,0,0,1-.246-.888,3.325,3.325,0,0,1-2.5,1.063,3.355,3.355,0,0,1-2.338-.817,2.615,2.615,0,0,1-.905-2.021A2.7,2.7,0,0,1,13.671-5,5.473,5.473,0,0,1,16.9-5.81h1.31v-.624A1.666,1.666,0,0,0,17.8-7.616a1.638,1.638,0,0,0-1.257-.444,1.881,1.881,0,0,0-1.2.365,1.129,1.129,0,0,0-.466.927H12.744a2.37,2.37,0,0,1,.519-1.463A3.455,3.455,0,0,1,14.673-9.3a4.955,4.955,0,0,1,1.991-.387,3.99,3.99,0,0,1,2.663.839,2.993,2.993,0,0,1,1.02,2.36V-2.2a4.861,4.861,0,0,0,.36,2.048V0ZM16.181-1.538a2.429,2.429,0,0,0,1.191-.308,2.055,2.055,0,0,0,.839-.826V-4.465H17.06a3.148,3.148,0,0,0-1.784.413,1.338,1.338,0,0,0-.6,1.169,1.248,1.248,0,0,0,.409.98A1.583,1.583,0,0,0,16.181-1.538ZM24.565-9.51l.062,1.1A3.419,3.419,0,0,1,27.4-9.686q2.971,0,3.023,3.4V0H28.283V-6.161a1.958,1.958,0,0,0-.391-1.34,1.645,1.645,0,0,0-1.279-.435,2.058,2.058,0,0,0-1.925,1.169V0H22.553V-9.51ZM38.276,0a3.3,3.3,0,0,1-.246-.888,3.325,3.325,0,0,1-2.5,1.063A3.355,3.355,0,0,1,33.2-.642a2.615,2.615,0,0,1-.905-2.021A2.7,2.7,0,0,1,33.42-5a5.473,5.473,0,0,1,3.23-.813h1.31v-.624a1.666,1.666,0,0,0-.413-1.182A1.638,1.638,0,0,0,36.29-8.06a1.881,1.881,0,0,0-1.2.365,1.129,1.129,0,0,0-.466.927H32.493a2.37,2.37,0,0,1,.519-1.463A3.455,3.455,0,0,1,34.422-9.3a4.955,4.955,0,0,1,1.991-.387,3.99,3.99,0,0,1,2.663.839,2.993,2.993,0,0,1,1.02,2.36V-2.2a4.861,4.861,0,0,0,.36,2.048V0ZM35.93-1.538a2.429,2.429,0,0,0,1.191-.308,2.055,2.055,0,0,0,.839-.826V-4.465H36.809a3.148,3.148,0,0,0-1.784.413,1.338,1.338,0,0,0-.6,1.169,1.248,1.248,0,0,0,.409.98A1.583,1.583,0,0,0,35.93-1.538ZM44.6,0H42.469V-13.5H44.6Z" transform="translate(657.5 16856.5)" fill="#12263f"/>
    <path id="Trazado_196228" data-name="Trazado 196228" d="M10,0H167a10,10,0,0,1,10,10V30a10,10,0,0,1-10,10H10A10,10,0,0,1,0,30V10A10,10,0,0,1,10,0Z" transform="translate(394 16960)" fill="#26cb99"/>
    <path id="Trazado_196230" data-name="Trazado 196230" d="M3.524-4.755V0H1.3V-12.8H6.2A4.954,4.954,0,0,1,9.6-11.681a3.751,3.751,0,0,1,1.261,2.953A3.627,3.627,0,0,1,9.628-5.8,5.194,5.194,0,0,1,6.17-4.755Zm0-1.784H6.2A2.632,2.632,0,0,0,8.007-7.1,2.051,2.051,0,0,0,8.631-8.71,2.213,2.213,0,0,0,8-10.367,2.439,2.439,0,0,0,6.258-11H3.524Zm14.054-1.02a5.285,5.285,0,0,0-.87-.07A1.959,1.959,0,0,0,14.73-6.5V0H12.595V-9.51h2.039l.053,1.063a2.406,2.406,0,0,1,2.145-1.239,2,2,0,0,1,.756.123Zm.633,2.716a5.607,5.607,0,0,1,.554-2.518A4.044,4.044,0,0,1,20.32-9.083a4.383,4.383,0,0,1,2.3-.6,4.154,4.154,0,0,1,3.125,1.239,4.874,4.874,0,0,1,1.3,3.287l.009.5a5.658,5.658,0,0,1-.541,2.514A4,4,0,0,1,24.965-.431a4.415,4.415,0,0,1-2.325.606,4.125,4.125,0,0,1-3.221-1.34,5.133,5.133,0,0,1-1.208-3.573Zm2.136.185a3.832,3.832,0,0,0,.606,2.3,1.971,1.971,0,0,0,1.688.831,1.95,1.95,0,0,0,1.683-.844,4.232,4.232,0,0,0,.6-2.47,3.782,3.782,0,0,0-.62-2.285,1.979,1.979,0,0,0-1.683-.844,1.96,1.96,0,0,0-1.661.831A4.152,4.152,0,0,0,20.347-4.658Zm8.112-.167a5.654,5.654,0,0,1,1.02-3.529,3.267,3.267,0,0,1,2.733-1.332,3.1,3.1,0,0,1,2.443,1.055V-13.5h2.136V0H34.857l-.105-.984A3.148,3.148,0,0,1,32.194.176a3.248,3.248,0,0,1-2.7-1.345A5.861,5.861,0,0,1,28.459-4.825Zm2.136.185a3.958,3.958,0,0,0,.558,2.263,1.811,1.811,0,0,0,1.586.813,2.017,2.017,0,0,0,1.916-1.169V-6.794a1.986,1.986,0,0,0-1.9-1.143,1.824,1.824,0,0,0-1.6.822A4.408,4.408,0,0,0,30.595-4.641ZM44.78-.932A3.312,3.312,0,0,1,42.108.176a2.952,2.952,0,0,1-2.342-.905,3.851,3.851,0,0,1-.8-2.619V-9.51h2.136v6.135q0,1.811,1.5,1.811a2.111,2.111,0,0,0,2.1-1.116V-9.51h2.136V0H44.833Zm8.147-.6A1.931,1.931,0,0,0,54.255-2a1.591,1.591,0,0,0,.563-1.151H56.83a3.137,3.137,0,0,1-.554,1.657A3.632,3.632,0,0,1,54.87-.272a4.191,4.191,0,0,1-1.916.448A4.055,4.055,0,0,1,49.79-1.116a5.124,5.124,0,0,1-1.169-3.568V-4.9a5.039,5.039,0,0,1,1.16-3.476,4.018,4.018,0,0,1,3.164-1.305,3.907,3.907,0,0,1,2.764.989A3.542,3.542,0,0,1,56.83-6.1H54.817a1.956,1.956,0,0,0-.558-1.345,1.8,1.8,0,0,0-1.332-.527,1.879,1.879,0,0,0-1.6.751,3.834,3.834,0,0,0-.571,2.281V-4.6a3.9,3.9,0,0,0,.558,2.307A1.878,1.878,0,0,0,52.928-1.529Zm8.191-10.292V-9.51H62.8v1.582H61.119v5.309a1.169,1.169,0,0,0,.215.787,1,1,0,0,0,.769.242,3.29,3.29,0,0,0,.747-.088V-.026a5.26,5.26,0,0,1-1.406.2q-2.461,0-2.461-2.716V-7.928H57.419V-9.51h1.564v-2.312Zm2.646,6.979a5.607,5.607,0,0,1,.554-2.518,4.044,4.044,0,0,1,1.556-1.723,4.383,4.383,0,0,1,2.3-.6A4.154,4.154,0,0,1,71.3-8.446a4.874,4.874,0,0,1,1.3,3.287l.009.5a5.658,5.658,0,0,1-.541,2.514A4,4,0,0,1,70.519-.431a4.415,4.415,0,0,1-2.325.606,4.125,4.125,0,0,1-3.221-1.34,5.133,5.133,0,0,1-1.208-3.573Zm2.136.185a3.832,3.832,0,0,0,.606,2.3,1.971,1.971,0,0,0,1.688.831,1.95,1.95,0,0,0,1.683-.844,4.232,4.232,0,0,0,.6-2.47,3.782,3.782,0,0,0-.62-2.285,1.979,1.979,0,0,0-1.683-.844,1.96,1.96,0,0,0-1.661.831A4.152,4.152,0,0,0,65.9-4.658Zm13.491-2.9a5.285,5.285,0,0,0-.87-.07A1.959,1.959,0,0,0,76.544-6.5V0H74.408V-9.51h2.039L76.5-8.446a2.406,2.406,0,0,1,2.145-1.239,2,2,0,0,1,.756.123Z" transform="translate(443 16986.5)" fill="#12263f"/>
    <path id="Trazado_196229" data-name="Trazado 196229" d="M10,0H167a10,10,0,0,1,10,10V30a10,10,0,0,1-10,10H10A10,10,0,0,1,0,30V10A10,10,0,0,1,10,0Z" transform="translate(592 16960)" fill="#26cb99"/>
    <path id="Trazado_196231" data-name="Trazado 196231" d="M3.524-4.755V0H1.3V-12.8H6.2A4.954,4.954,0,0,1,9.6-11.681a3.751,3.751,0,0,1,1.261,2.953A3.627,3.627,0,0,1,9.628-5.8,5.194,5.194,0,0,1,6.17-4.755Zm0-1.784H6.2A2.632,2.632,0,0,0,8.007-7.1,2.051,2.051,0,0,0,8.631-8.71,2.213,2.213,0,0,0,8-10.367,2.439,2.439,0,0,0,6.258-11H3.524Zm14.054-1.02a5.285,5.285,0,0,0-.87-.07A1.959,1.959,0,0,0,14.73-6.5V0H12.595V-9.51h2.039l.053,1.063a2.406,2.406,0,0,1,2.145-1.239,2,2,0,0,1,.756.123Zm.633,2.716a5.607,5.607,0,0,1,.554-2.518A4.044,4.044,0,0,1,20.32-9.083a4.383,4.383,0,0,1,2.3-.6,4.154,4.154,0,0,1,3.125,1.239,4.874,4.874,0,0,1,1.3,3.287l.009.5a5.658,5.658,0,0,1-.541,2.514A4,4,0,0,1,24.965-.431a4.415,4.415,0,0,1-2.325.606,4.125,4.125,0,0,1-3.221-1.34,5.133,5.133,0,0,1-1.208-3.573Zm2.136.185a3.832,3.832,0,0,0,.606,2.3,1.971,1.971,0,0,0,1.688.831,1.95,1.95,0,0,0,1.683-.844,4.232,4.232,0,0,0,.6-2.47,3.782,3.782,0,0,0-.62-2.285,1.979,1.979,0,0,0-1.683-.844,1.96,1.96,0,0,0-1.661.831A4.152,4.152,0,0,0,20.347-4.658Zm8.112-.167a5.654,5.654,0,0,1,1.02-3.529,3.267,3.267,0,0,1,2.733-1.332,3.1,3.1,0,0,1,2.443,1.055V-13.5h2.136V0H34.857l-.105-.984A3.148,3.148,0,0,1,32.194.176a3.248,3.248,0,0,1-2.7-1.345A5.861,5.861,0,0,1,28.459-4.825Zm2.136.185a3.958,3.958,0,0,0,.558,2.263,1.811,1.811,0,0,0,1.586.813,2.017,2.017,0,0,0,1.916-1.169V-6.794a1.986,1.986,0,0,0-1.9-1.143,1.824,1.824,0,0,0-1.6.822A4.408,4.408,0,0,0,30.595-4.641ZM44.78-.932A3.312,3.312,0,0,1,42.108.176a2.952,2.952,0,0,1-2.342-.905,3.851,3.851,0,0,1-.8-2.619V-9.51h2.136v6.135q0,1.811,1.5,1.811a2.111,2.111,0,0,0,2.1-1.116V-9.51h2.136V0H44.833Zm8.147-.6A1.931,1.931,0,0,0,54.255-2a1.591,1.591,0,0,0,.563-1.151H56.83a3.137,3.137,0,0,1-.554,1.657A3.632,3.632,0,0,1,54.87-.272a4.191,4.191,0,0,1-1.916.448A4.055,4.055,0,0,1,49.79-1.116a5.124,5.124,0,0,1-1.169-3.568V-4.9a5.039,5.039,0,0,1,1.16-3.476,4.018,4.018,0,0,1,3.164-1.305,3.907,3.907,0,0,1,2.764.989A3.542,3.542,0,0,1,56.83-6.1H54.817a1.956,1.956,0,0,0-.558-1.345,1.8,1.8,0,0,0-1.332-.527,1.879,1.879,0,0,0-1.6.751,3.834,3.834,0,0,0-.571,2.281V-4.6a3.9,3.9,0,0,0,.558,2.307A1.878,1.878,0,0,0,52.928-1.529Zm8.191-10.292V-9.51H62.8v1.582H61.119v5.309a1.169,1.169,0,0,0,.215.787,1,1,0,0,0,.769.242,3.29,3.29,0,0,0,.747-.088V-.026a5.26,5.26,0,0,1-1.406.2q-2.461,0-2.461-2.716V-7.928H57.419V-9.51h1.564v-2.312Zm2.646,6.979a5.607,5.607,0,0,1,.554-2.518,4.044,4.044,0,0,1,1.556-1.723,4.383,4.383,0,0,1,2.3-.6A4.154,4.154,0,0,1,71.3-8.446a4.874,4.874,0,0,1,1.3,3.287l.009.5a5.658,5.658,0,0,1-.541,2.514A4,4,0,0,1,70.519-.431a4.415,4.415,0,0,1-2.325.606,4.125,4.125,0,0,1-3.221-1.34,5.133,5.133,0,0,1-1.208-3.573Zm2.136.185a3.832,3.832,0,0,0,.606,2.3,1.971,1.971,0,0,0,1.688.831,1.95,1.95,0,0,0,1.683-.844,4.232,4.232,0,0,0,.6-2.47,3.782,3.782,0,0,0-.62-2.285,1.979,1.979,0,0,0-1.683-.844,1.96,1.96,0,0,0-1.661.831A4.152,4.152,0,0,0,65.9-4.658Zm13.491-2.9a5.285,5.285,0,0,0-.87-.07A1.959,1.959,0,0,0,76.544-6.5V0H74.408V-9.51h2.039L76.5-8.446a2.406,2.406,0,0,1,2.145-1.239,2,2,0,0,1,.756.123Z" transform="translate(641 16986.5)" fill="#12263f"/>
    <g id="Grupo_84574" data-name="Grupo 84574">
      <rect id="Rectángulo_7670" data-name="Rectángulo 7670" width="5" height="56" transform="translate(476 16751)" fill="#607b82"/>
      <path id="Polígono_10" data-name="Polígono 10" d="M8,0l8,14H0Z" transform="translate(486 16812) rotate(180)" fill="#607b82"/>
    </g>
    <g id="Grupo_84575" data-name="Grupo 84575" transform="translate(203)">
      <rect id="Rectángulo_7670-2" data-name="Rectángulo 7670" width="5" height="56" transform="translate(476 16751)" fill="#607b82"/>
      <path id="Polígono_10-2" data-name="Polígono 10" d="M8,0l8,14H0Z" transform="translate(486 16812) rotate(180)" fill="#607b82"/>
    </g>
    <g id="Grupo_84576" data-name="Grupo 84576" transform="translate(470 16889)">
      <rect id="Rectángulo_7670-3" data-name="Rectángulo 7670" width="5" height="56" transform="translate(6 5)" fill="#607b82"/>
      <path id="Polígono_10-3" data-name="Polígono 10" d="M8,0l8,14H0Z" transform="translate(0)" fill="#607b82"/>
    </g>
    <g id="Grupo_84577" data-name="Grupo 84577" transform="translate(673 16889)">
      <rect id="Rectángulo_7670-4" data-name="Rectángulo 7670" width="5" height="56" transform="translate(6 5)" fill="#607b82"/>
      <path id="Polígono_10-4" data-name="Polígono 10" d="M8,0l8,14H0Z" transform="translate(0)" fill="#607b82"/>
    </g>
    <path id="Trazado_196226" data-name="Trazado 196226" d="M10,0H167a10,10,0,0,1,10,10V30a10,10,0,0,1-10,10H10A10,10,0,0,1,0,30V10A10,10,0,0,1,10,0Z" transform="translate(790 16673)" fill="#7c7c7c"/>
    <path id="Trazado_196227" data-name="Trazado 196227" d="M11.065-4.166A4.621,4.621,0,0,1,9.554-.971,5.154,5.154,0,0,1,6.047.176,4.99,4.99,0,0,1,3.353-.549a4.759,4.759,0,0,1-1.8-2.061A7.438,7.438,0,0,1,.9-5.713v-1.2a7.491,7.491,0,0,1,.642-3.19,4.835,4.835,0,0,1,1.841-2.127,5.136,5.136,0,0,1,2.773-.747,4.934,4.934,0,0,1,3.41,1.151,4.81,4.81,0,0,1,1.5,3.252H8.851a3.161,3.161,0,0,0-.8-1.991,2.658,2.658,0,0,0-1.894-.611,2.6,2.6,0,0,0-2.228,1.059A5.289,5.289,0,0,0,3.129-7v1.134a5.611,5.611,0,0,0,.743,3.164,2.465,2.465,0,0,0,2.175,1.09,2.875,2.875,0,0,0,1.969-.589,3.071,3.071,0,0,0,.835-1.96Zm12.2-1.9a7.851,7.851,0,0,1-.65,3.3,4.918,4.918,0,0,1-1.859,2.18,5.113,5.113,0,0,1-2.782.76A5.125,5.125,0,0,1,15.2-.584,4.993,4.993,0,0,1,13.32-2.751a7.606,7.606,0,0,1-.672-3.243v-.721a7.784,7.784,0,0,1,.664-3.3,4.987,4.987,0,0,1,1.872-2.193,5.1,5.1,0,0,1,2.773-.76,5.142,5.142,0,0,1,2.773.751A4.924,4.924,0,0,1,22.6-10.059a7.767,7.767,0,0,1,.668,3.283Zm-2.224-.668a5.594,5.594,0,0,0-.8-3.261,2.631,2.631,0,0,0-2.281-1.134A2.623,2.623,0,0,0,15.7-10,5.486,5.486,0,0,0,14.871-6.8v.738A5.552,5.552,0,0,0,15.693-2.8a2.646,2.646,0,0,0,2.281,1.151,2.615,2.615,0,0,0,2.272-1.125,5.671,5.671,0,0,0,.8-3.287ZM35.631,0H33.407L27.7-9.079V0H25.479V-12.8H27.7l5.722,9.114V-12.8h2.206Zm9.316-3.3a1.545,1.545,0,0,0-.593-1.3,7.138,7.138,0,0,0-2.14-.923,10.335,10.335,0,0,1-2.461-1.037A3.284,3.284,0,0,1,38-9.422a3.118,3.118,0,0,1,1.261-2.549,5.1,5.1,0,0,1,3.274-1,5.53,5.53,0,0,1,2.382.492,3.909,3.909,0,0,1,1.644,1.4,3.6,3.6,0,0,1,.6,2.017H44.947a2.005,2.005,0,0,0-.628-1.569,2.594,2.594,0,0,0-1.8-.567,2.709,2.709,0,0,0-1.692.466,1.551,1.551,0,0,0-.6,1.3,1.4,1.4,0,0,0,.65,1.173,7.493,7.493,0,0,0,2.145.914,9.865,9.865,0,0,1,2.4,1.011,3.816,3.816,0,0,1,1.327,1.3,3.388,3.388,0,0,1,.422,1.718A3.045,3.045,0,0,1,45.945-.769a5.318,5.318,0,0,1-3.327.945,6.251,6.251,0,0,1-2.553-.514,4.289,4.289,0,0,1-1.811-1.419,3.537,3.537,0,0,1-.646-2.109h2.224a2.07,2.07,0,0,0,.721,1.688,3.156,3.156,0,0,0,2.065.6,2.742,2.742,0,0,0,1.745-.47A1.517,1.517,0,0,0,44.947-3.3Zm13.535-9.5v8.552a4.156,4.156,0,0,1-1.305,3.23A4.958,4.958,0,0,1,53.7.176,4.993,4.993,0,0,1,50.212-1,4.176,4.176,0,0,1,48.92-4.254V-12.8h2.215v8.561a2.719,2.719,0,0,0,.65,1.96A2.537,2.537,0,0,0,53.7-1.6q2.566,0,2.566-2.707V-12.8Zm5.256,0L67.43-2.988,71.112-12.8h2.874V0H71.771V-4.219l.22-5.643L68.212,0H66.621L62.851-9.853l.22,5.634V0H60.855V-12.8ZM78.961,0H76.746V-12.8h2.215Zm2.733,0V-12.8h3.779a5.928,5.928,0,0,1,3.01.756A5.154,5.154,0,0,1,90.519-9.9a6.807,6.807,0,0,1,.721,3.182v.642a6.779,6.779,0,0,1-.725,3.2A5.092,5.092,0,0,1,88.449-.747,6.2,6.2,0,0,1,85.377,0Zm2.224-11v9.229h1.45A3.339,3.339,0,0,0,88.053-2.87a4.766,4.766,0,0,0,.954-3.142v-.712A4.891,4.891,0,0,0,88.1-9.905,3.209,3.209,0,0,0,85.474-11Zm19.749,4.939a7.851,7.851,0,0,1-.65,3.3,4.918,4.918,0,0,1-1.859,2.18,5.113,5.113,0,0,1-2.782.76A5.125,5.125,0,0,1,95.6-.584a4.993,4.993,0,0,1-1.881-2.167,7.606,7.606,0,0,1-.672-3.243v-.721a7.784,7.784,0,0,1,.664-3.3,4.987,4.987,0,0,1,1.872-2.193,5.1,5.1,0,0,1,2.773-.76,5.142,5.142,0,0,1,2.773.751A4.924,4.924,0,0,1,103-10.059a7.767,7.767,0,0,1,.668,3.283Zm-2.224-.668a5.594,5.594,0,0,0-.8-3.261,2.631,2.631,0,0,0-2.281-1.134A2.623,2.623,0,0,0,96.1-10,5.486,5.486,0,0,0,95.273-6.8v.738A5.552,5.552,0,0,0,96.1-2.8a2.646,2.646,0,0,0,2.281,1.151,2.615,2.615,0,0,0,2.272-1.125,5.671,5.671,0,0,0,.8-3.287Zm9.141,1.8h-2.479V0h-2.224V-12.8h4.5a5.238,5.238,0,0,1,3.419.993A3.512,3.512,0,0,1,115-8.93a3.6,3.6,0,0,1-.62,2.149,3.942,3.942,0,0,1-1.727,1.332l2.874,5.335V0H113.15Zm-2.479-1.784h2.285a2.541,2.541,0,0,0,1.758-.567,1.977,1.977,0,0,0,.633-1.551,2.1,2.1,0,0,0-.584-1.591,2.483,2.483,0,0,0-1.745-.58h-2.347Z" transform="translate(820.5 16699.5)" fill="#fff"/>
    <path id="Trazado_196232" data-name="Trazado 196232" d="M10,0H167a10,10,0,0,1,10,10V30a10,10,0,0,1-10,10H10A10,10,0,0,1,0,30V10A10,10,0,0,1,10,0Z" transform="translate(790 16980)" fill="#7c7c7c"/>
    <path id="Trazado_196233" data-name="Trazado 196233" d="M11.065-4.166A4.621,4.621,0,0,1,9.554-.971,5.154,5.154,0,0,1,6.047.176,4.99,4.99,0,0,1,3.353-.549a4.759,4.759,0,0,1-1.8-2.061A7.438,7.438,0,0,1,.9-5.713v-1.2a7.491,7.491,0,0,1,.642-3.19,4.835,4.835,0,0,1,1.841-2.127,5.136,5.136,0,0,1,2.773-.747,4.934,4.934,0,0,1,3.41,1.151,4.81,4.81,0,0,1,1.5,3.252H8.851a3.161,3.161,0,0,0-.8-1.991,2.658,2.658,0,0,0-1.894-.611,2.6,2.6,0,0,0-2.228,1.059A5.289,5.289,0,0,0,3.129-7v1.134a5.611,5.611,0,0,0,.743,3.164,2.465,2.465,0,0,0,2.175,1.09,2.875,2.875,0,0,0,1.969-.589,3.071,3.071,0,0,0,.835-1.96Zm12.2-1.9a7.851,7.851,0,0,1-.65,3.3,4.918,4.918,0,0,1-1.859,2.18,5.113,5.113,0,0,1-2.782.76A5.125,5.125,0,0,1,15.2-.584,4.993,4.993,0,0,1,13.32-2.751a7.606,7.606,0,0,1-.672-3.243v-.721a7.784,7.784,0,0,1,.664-3.3,4.987,4.987,0,0,1,1.872-2.193,5.1,5.1,0,0,1,2.773-.76,5.142,5.142,0,0,1,2.773.751A4.924,4.924,0,0,1,22.6-10.059a7.767,7.767,0,0,1,.668,3.283Zm-2.224-.668a5.594,5.594,0,0,0-.8-3.261,2.631,2.631,0,0,0-2.281-1.134A2.623,2.623,0,0,0,15.7-10,5.486,5.486,0,0,0,14.871-6.8v.738A5.552,5.552,0,0,0,15.693-2.8a2.646,2.646,0,0,0,2.281,1.151,2.615,2.615,0,0,0,2.272-1.125,5.671,5.671,0,0,0,.8-3.287ZM35.631,0H33.407L27.7-9.079V0H25.479V-12.8H27.7l5.722,9.114V-12.8h2.206Zm9.316-3.3a1.545,1.545,0,0,0-.593-1.3,7.138,7.138,0,0,0-2.14-.923,10.335,10.335,0,0,1-2.461-1.037A3.284,3.284,0,0,1,38-9.422a3.118,3.118,0,0,1,1.261-2.549,5.1,5.1,0,0,1,3.274-1,5.53,5.53,0,0,1,2.382.492,3.909,3.909,0,0,1,1.644,1.4,3.6,3.6,0,0,1,.6,2.017H44.947a2.005,2.005,0,0,0-.628-1.569,2.594,2.594,0,0,0-1.8-.567,2.709,2.709,0,0,0-1.692.466,1.551,1.551,0,0,0-.6,1.3,1.4,1.4,0,0,0,.65,1.173,7.493,7.493,0,0,0,2.145.914,9.865,9.865,0,0,1,2.4,1.011,3.816,3.816,0,0,1,1.327,1.3,3.388,3.388,0,0,1,.422,1.718A3.045,3.045,0,0,1,45.945-.769a5.318,5.318,0,0,1-3.327.945,6.251,6.251,0,0,1-2.553-.514,4.289,4.289,0,0,1-1.811-1.419,3.537,3.537,0,0,1-.646-2.109h2.224a2.07,2.07,0,0,0,.721,1.688,3.156,3.156,0,0,0,2.065.6,2.742,2.742,0,0,0,1.745-.47A1.517,1.517,0,0,0,44.947-3.3Zm13.535-9.5v8.552a4.156,4.156,0,0,1-1.305,3.23A4.958,4.958,0,0,1,53.7.176,4.993,4.993,0,0,1,50.212-1,4.176,4.176,0,0,1,48.92-4.254V-12.8h2.215v8.561a2.719,2.719,0,0,0,.65,1.96A2.537,2.537,0,0,0,53.7-1.6q2.566,0,2.566-2.707V-12.8Zm5.256,0L67.43-2.988,71.112-12.8h2.874V0H71.771V-4.219l.22-5.643L68.212,0H66.621L62.851-9.853l.22,5.634V0H60.855V-12.8ZM78.961,0H76.746V-12.8h2.215Zm2.733,0V-12.8h3.779a5.928,5.928,0,0,1,3.01.756A5.154,5.154,0,0,1,90.519-9.9a6.807,6.807,0,0,1,.721,3.182v.642a6.779,6.779,0,0,1-.725,3.2A5.092,5.092,0,0,1,88.449-.747,6.2,6.2,0,0,1,85.377,0Zm2.224-11v9.229h1.45A3.339,3.339,0,0,0,88.053-2.87a4.766,4.766,0,0,0,.954-3.142v-.712A4.891,4.891,0,0,0,88.1-9.905,3.209,3.209,0,0,0,85.474-11Zm19.749,4.939a7.851,7.851,0,0,1-.65,3.3,4.918,4.918,0,0,1-1.859,2.18,5.113,5.113,0,0,1-2.782.76A5.125,5.125,0,0,1,95.6-.584a4.993,4.993,0,0,1-1.881-2.167,7.606,7.606,0,0,1-.672-3.243v-.721a7.784,7.784,0,0,1,.664-3.3,4.987,4.987,0,0,1,1.872-2.193,5.1,5.1,0,0,1,2.773-.76,5.142,5.142,0,0,1,2.773.751A4.924,4.924,0,0,1,103-10.059a7.767,7.767,0,0,1,.668,3.283Zm-2.224-.668a5.594,5.594,0,0,0-.8-3.261,2.631,2.631,0,0,0-2.281-1.134A2.623,2.623,0,0,0,96.1-10,5.486,5.486,0,0,0,95.273-6.8v.738A5.552,5.552,0,0,0,96.1-2.8a2.646,2.646,0,0,0,2.281,1.151,2.615,2.615,0,0,0,2.272-1.125,5.671,5.671,0,0,0,.8-3.287Zm9.141,1.8h-2.479V0h-2.224V-12.8h4.5a5.238,5.238,0,0,1,3.419.993A3.512,3.512,0,0,1,115-8.93a3.6,3.6,0,0,1-.62,2.149,3.942,3.942,0,0,1-1.727,1.332l2.874,5.335V0H113.15Zm-2.479-1.784h2.285a2.541,2.541,0,0,0,1.758-.567,1.977,1.977,0,0,0,.633-1.551,2.1,2.1,0,0,0-.584-1.591,2.483,2.483,0,0,0-1.745-.58h-2.347Z" transform="translate(820.5 17006.5)" fill="#fff"/>
    <g id="Grupo_84578" data-name="Grupo 84578" transform="translate(829 16950) rotate(180)">
      <rect id="Rectángulo_7670-5" data-name="Rectángulo 7670" width="9" height="71" transform="translate(0 -10)" fill="#607b82"/>
      <path id="Polígono_10-5" data-name="Polígono 10" d="M9.5,0,19,17H0Z" transform="translate(-5 -24)" fill="#607b82"/>
    </g>
    <g id="Grupo_84579" data-name="Grupo 84579" transform="translate(834 16815) rotate(180)">
      <rect id="Rectángulo_7670-6" data-name="Rectángulo 7670" width="9" height="79" transform="translate(5)" fill="#607b82"/>
      <path id="Polígono_10-6" data-name="Polígono 10" d="M9.5,0,19,17H0Z" transform="translate(19 93) rotate(180)" fill="#607b82"/>
    </g>
    <g id="Grupo_84580" data-name="Grupo 84580" transform="translate(-15778.5 17171) rotate(-90)">
      <rect id="Rectángulo_7670-7" data-name="Rectángulo 7670" width="5" height="56" transform="translate(476 16751)" fill="#607b82"/>
      <path id="Polígono_10-7" data-name="Polígono 10" d="M8,0l8,14H0Z" transform="translate(486 16812) rotate(180)" fill="#607b82"/>
    </g>
    <g id="Trazado_196234" data-name="Trazado 196234" transform="translate(1049 16664)" fill="#fff">
      <path d="M 167 69.5 L 10 69.5 C 4.761682033538818 69.5 0.5 65.23831939697266 0.5 60 L 0.5 10 C 0.5 4.761682033538818 4.761682033538818 0.5 10 0.5 L 167 0.5 C 172.2383117675781 0.5 176.5 4.761682033538818 176.5 10 L 176.5 60 C 176.5 65.23831939697266 172.2383117675781 69.5 167 69.5 Z" stroke="none"/>
      <path d="M 10 1 C 5.037384033203125 1 1 5.037384033203125 1 10 L 1 60 C 1 64.96261596679688 5.037384033203125 69 10 69 L 167 69 C 171.9626159667969 69 176 64.96261596679688 176 60 L 176 10 C 176 5.037384033203125 171.9626159667969 1 167 1 L 10 1 M 10 0 L 167 0 C 172.5228424072266 0 177 4.477157592773438 177 10 L 177 60 C 177 65.52284240722656 172.5228424072266 70 167 70 L 10 70 C 4.477157592773438 70 0 65.52284240722656 0 60 L 0 10 C 0 4.477157592773438 4.477157592773438 0 10 0 Z" stroke="none" fill="#707070"/>
    </g>
    <path id="Trazado_196236" data-name="Trazado 196236" d="M8.464-2.979H3.507L2.47,0H.158L4.992-12.8h2L11.83,0H9.51ZM4.131-4.772H7.84L5.985-10.081Zm18.729.606A4.621,4.621,0,0,1,21.349-.971,5.154,5.154,0,0,1,17.842.176a4.99,4.99,0,0,1-2.694-.725,4.759,4.759,0,0,1-1.8-2.061,7.438,7.438,0,0,1-.659-3.1v-1.2a7.491,7.491,0,0,1,.642-3.19,4.835,4.835,0,0,1,1.841-2.127,5.136,5.136,0,0,1,2.773-.747,4.934,4.934,0,0,1,3.41,1.151,4.81,4.81,0,0,1,1.5,3.252H20.646a3.161,3.161,0,0,0-.8-1.991,2.658,2.658,0,0,0-1.894-.611,2.6,2.6,0,0,0-2.228,1.059A5.289,5.289,0,0,0,14.924-7v1.134a5.611,5.611,0,0,0,.743,3.164,2.465,2.465,0,0,0,2.175,1.09,2.875,2.875,0,0,0,1.969-.589,3.071,3.071,0,0,0,.835-1.96ZM33.838-11h-3.99V0H27.642V-11H23.687V-12.8H33.838ZM37.863,0H35.648V-12.8h2.215Zm7.242-2.786L48.357-12.8H50.8L46.2,0H44.042L39.454-12.8h2.435ZM54.589,0H52.374V-12.8h2.215Zm2.733,0V-12.8H61.1a5.928,5.928,0,0,1,3.01.756A5.154,5.154,0,0,1,66.146-9.9a6.807,6.807,0,0,1,.721,3.182v.642a6.779,6.779,0,0,1-.725,3.2A5.092,5.092,0,0,1,64.077-.747,6.2,6.2,0,0,1,61,0Zm2.224-11v9.229H61A3.339,3.339,0,0,0,63.681-2.87a4.766,4.766,0,0,0,.954-3.142v-.712a4.891,4.891,0,0,0-.905-3.182A3.209,3.209,0,0,0,61.1-11ZM76.061-2.979H71.1L70.066,0H67.755l4.834-12.8h2L79.427,0h-2.32ZM71.728-4.772h3.709l-1.854-5.309ZM80.877,0V-12.8h3.779a5.928,5.928,0,0,1,3.01.756A5.154,5.154,0,0,1,89.7-9.9a6.807,6.807,0,0,1,.721,3.182v.642a6.779,6.779,0,0,1-.725,3.2A5.092,5.092,0,0,1,87.631-.747,6.2,6.2,0,0,1,84.56,0ZM83.1-11v9.229h1.45A3.339,3.339,0,0,0,87.236-2.87a4.766,4.766,0,0,0,.954-3.142v-.712a4.891,4.891,0,0,0-.905-3.182A3.209,3.209,0,0,0,84.656-11Zm24.231,4.939a7.851,7.851,0,0,1-.65,3.3,4.918,4.918,0,0,1-1.859,2.18,5.113,5.113,0,0,1-2.782.76,5.125,5.125,0,0,1-2.773-.76,4.993,4.993,0,0,1-1.881-2.167,7.606,7.606,0,0,1-.672-3.243v-.721a7.784,7.784,0,0,1,.664-3.3,4.987,4.987,0,0,1,1.872-2.193,5.1,5.1,0,0,1,2.773-.76,5.142,5.142,0,0,1,2.773.751,4.924,4.924,0,0,1,1.868,2.162,7.767,7.767,0,0,1,.668,3.283Zm-2.224-.668a5.594,5.594,0,0,0-.8-3.261,2.631,2.631,0,0,0-2.281-1.134A2.623,2.623,0,0,0,99.769-10,5.486,5.486,0,0,0,98.938-6.8v.738A5.552,5.552,0,0,0,99.76-2.8a2.646,2.646,0,0,0,2.281,1.151,2.615,2.615,0,0,0,2.272-1.125,5.671,5.671,0,0,0,.8-3.287ZM5.81,22.214,9.062,12.2H11.5L6.9,25H4.746L.158,12.2H2.593ZM15.293,25H13.078V12.2h2.215Zm9.422-3.3a1.545,1.545,0,0,0-.593-1.3,7.138,7.138,0,0,0-2.14-.923,10.335,10.335,0,0,1-2.461-1.037,3.284,3.284,0,0,1-1.749-2.865,3.118,3.118,0,0,1,1.261-2.549,5.1,5.1,0,0,1,3.274-1,5.53,5.53,0,0,1,2.382.492,3.909,3.909,0,0,1,1.644,1.4,3.6,3.6,0,0,1,.6,2.017H24.715a2.005,2.005,0,0,0-.628-1.569,2.594,2.594,0,0,0-1.8-.567,2.709,2.709,0,0,0-1.692.466,1.551,1.551,0,0,0-.6,1.3,1.4,1.4,0,0,0,.65,1.173,7.493,7.493,0,0,0,2.145.914,9.865,9.865,0,0,1,2.4,1.011,3.816,3.816,0,0,1,1.327,1.3,3.388,3.388,0,0,1,.422,1.718,3.045,3.045,0,0,1-1.226,2.544,5.318,5.318,0,0,1-3.327.945,6.251,6.251,0,0,1-2.553-.514,4.289,4.289,0,0,1-1.811-1.419,3.537,3.537,0,0,1-.646-2.109H19.6a2.07,2.07,0,0,0,.721,1.688,3.156,3.156,0,0,0,2.065.6,2.742,2.742,0,0,0,1.745-.47A1.517,1.517,0,0,0,24.715,21.7ZM38.25,12.2v8.552a4.156,4.156,0,0,1-1.305,3.23,4.958,4.958,0,0,1-3.476,1.191A4.993,4.993,0,0,1,29.979,24a4.176,4.176,0,0,1-1.292-3.256V12.2H30.9v8.561a2.719,2.719,0,0,0,.65,1.96,2.537,2.537,0,0,0,1.916.677q2.566,0,2.566-2.707V12.2Zm9.343,9.817H42.636L41.6,25H39.287l4.834-12.8h2L50.959,25h-2.32ZM43.26,20.228h3.709l-1.854-5.309Zm11.373,3h5.81V25H52.409V12.2h2.224ZM64.494,25H62.279V12.2h2.215Zm4.825-1.775h6.838V25H66.63V23.559L73.248,14H66.674V12.2h9.272v1.406Zm16.022-1.2H80.385L79.348,25H77.036L81.87,12.2h2L88.708,25h-2.32Zm-4.333-1.793h3.709l-1.854-5.309Zm18.729.606a4.621,4.621,0,0,1-1.512,3.195,5.154,5.154,0,0,1-3.507,1.147,4.99,4.99,0,0,1-2.694-.725,4.759,4.759,0,0,1-1.8-2.061,7.438,7.438,0,0,1-.659-3.1v-1.2a7.491,7.491,0,0,1,.642-3.19,4.835,4.835,0,0,1,1.841-2.127,5.136,5.136,0,0,1,2.773-.747,4.934,4.934,0,0,1,3.41,1.151,4.81,4.81,0,0,1,1.5,3.252H97.523a3.161,3.161,0,0,0-.8-1.991,2.658,2.658,0,0,0-1.894-.611A2.6,2.6,0,0,0,92.6,14.888,5.289,5.289,0,0,0,91.8,18v1.134a5.611,5.611,0,0,0,.743,3.164,2.465,2.465,0,0,0,2.175,1.09,2.875,2.875,0,0,0,1.969-.589,3.071,3.071,0,0,0,.835-1.96ZM104.071,25h-2.215V12.2h2.215Zm12.946-6.064a7.851,7.851,0,0,1-.65,3.3,4.918,4.918,0,0,1-1.859,2.18,5.453,5.453,0,0,1-5.555,0,4.993,4.993,0,0,1-1.881-2.167,7.606,7.606,0,0,1-.672-3.243v-.721a7.784,7.784,0,0,1,.664-3.3,4.987,4.987,0,0,1,1.872-2.193,5.464,5.464,0,0,1,5.546-.009,4.924,4.924,0,0,1,1.868,2.162,7.767,7.767,0,0,1,.668,3.283Zm-2.224-.668a5.594,5.594,0,0,0-.8-3.261,2.838,2.838,0,0,0-4.535,0,5.486,5.486,0,0,0-.831,3.195v.738a5.552,5.552,0,0,0,.822,3.261,2.646,2.646,0,0,0,2.281,1.151A2.615,2.615,0,0,0,114,22.223a5.671,5.671,0,0,0,.8-3.287Zm-2.435-9.492h2.435l-2.435,2.663h-1.714ZM129.384,25H127.16l-5.7-9.079V25h-2.224V12.2h2.224l5.722,9.114V12.2h2.206Z" transform="translate(1079.5 16690.5)" fill="#607b82"/>
    <g id="Trazado_196235" data-name="Trazado 196235" transform="translate(1049 16965)" fill="#fff">
      <path d="M 167 69.5 L 10 69.5 C 4.761682033538818 69.5 0.5 65.23831939697266 0.5 60 L 0.5 10 C 0.5 4.761682033538818 4.761682033538818 0.5 10 0.5 L 167 0.5 C 172.2383117675781 0.5 176.5 4.761682033538818 176.5 10 L 176.5 60 C 176.5 65.23831939697266 172.2383117675781 69.5 167 69.5 Z" stroke="none"/>
      <path d="M 10 1 C 5.037384033203125 1 1 5.037384033203125 1 10 L 1 60 C 1 64.96261596679688 5.037384033203125 69 10 69 L 167 69 C 171.9626159667969 69 176 64.96261596679688 176 60 L 176 10 C 176 5.037384033203125 171.9626159667969 1 167 1 L 10 1 M 10 0 L 167 0 C 172.5228424072266 0 177 4.477157592773438 177 10 L 177 60 C 177 65.52284240722656 172.5228424072266 70 167 70 L 10 70 C 4.477157592773438 70 0 65.52284240722656 0 60 L 0 10 C 0 4.477157592773438 4.477157592773438 0 10 0 Z" stroke="none" fill="#707070"/>
    </g>
    <path id="Trazado_196237" data-name="Trazado 196237" d="M8.464-2.979H3.507L2.47,0H.158L4.992-12.8h2L11.83,0H9.51ZM4.131-4.772H7.84L5.985-10.081Zm18.729.606A4.621,4.621,0,0,1,21.349-.971,5.154,5.154,0,0,1,17.842.176a4.99,4.99,0,0,1-2.694-.725,4.759,4.759,0,0,1-1.8-2.061,7.438,7.438,0,0,1-.659-3.1v-1.2a7.491,7.491,0,0,1,.642-3.19,4.835,4.835,0,0,1,1.841-2.127,5.136,5.136,0,0,1,2.773-.747,4.934,4.934,0,0,1,3.41,1.151,4.81,4.81,0,0,1,1.5,3.252H20.646a3.161,3.161,0,0,0-.8-1.991,2.658,2.658,0,0,0-1.894-.611,2.6,2.6,0,0,0-2.228,1.059A5.289,5.289,0,0,0,14.924-7v1.134a5.611,5.611,0,0,0,.743,3.164,2.465,2.465,0,0,0,2.175,1.09,2.875,2.875,0,0,0,1.969-.589,3.071,3.071,0,0,0,.835-1.96ZM33.838-11h-3.99V0H27.642V-11H23.687V-12.8H33.838ZM37.863,0H35.648V-12.8h2.215Zm7.242-2.786L48.357-12.8H50.8L46.2,0H44.042L39.454-12.8h2.435ZM54.589,0H52.374V-12.8h2.215Zm2.733,0V-12.8H61.1a5.928,5.928,0,0,1,3.01.756A5.154,5.154,0,0,1,66.146-9.9a6.807,6.807,0,0,1,.721,3.182v.642a6.779,6.779,0,0,1-.725,3.2A5.092,5.092,0,0,1,64.077-.747,6.2,6.2,0,0,1,61,0Zm2.224-11v9.229H61A3.339,3.339,0,0,0,63.681-2.87a4.766,4.766,0,0,0,.954-3.142v-.712a4.891,4.891,0,0,0-.905-3.182A3.209,3.209,0,0,0,61.1-11ZM76.061-2.979H71.1L70.066,0H67.755l4.834-12.8h2L79.427,0h-2.32ZM71.728-4.772h3.709l-1.854-5.309ZM80.877,0V-12.8h3.779a5.928,5.928,0,0,1,3.01.756A5.154,5.154,0,0,1,89.7-9.9a6.807,6.807,0,0,1,.721,3.182v.642a6.779,6.779,0,0,1-.725,3.2A5.092,5.092,0,0,1,87.631-.747,6.2,6.2,0,0,1,84.56,0ZM83.1-11v9.229h1.45A3.339,3.339,0,0,0,87.236-2.87a4.766,4.766,0,0,0,.954-3.142v-.712a4.891,4.891,0,0,0-.905-3.182A3.209,3.209,0,0,0,84.656-11Zm24.231,4.939a7.851,7.851,0,0,1-.65,3.3,4.918,4.918,0,0,1-1.859,2.18,5.113,5.113,0,0,1-2.782.76,5.125,5.125,0,0,1-2.773-.76,4.993,4.993,0,0,1-1.881-2.167,7.606,7.606,0,0,1-.672-3.243v-.721a7.784,7.784,0,0,1,.664-3.3,4.987,4.987,0,0,1,1.872-2.193,5.1,5.1,0,0,1,2.773-.76,5.142,5.142,0,0,1,2.773.751,4.924,4.924,0,0,1,1.868,2.162,7.767,7.767,0,0,1,.668,3.283Zm-2.224-.668a5.594,5.594,0,0,0-.8-3.261,2.631,2.631,0,0,0-2.281-1.134A2.623,2.623,0,0,0,99.769-10,5.486,5.486,0,0,0,98.938-6.8v.738A5.552,5.552,0,0,0,99.76-2.8a2.646,2.646,0,0,0,2.281,1.151,2.615,2.615,0,0,0,2.272-1.125,5.671,5.671,0,0,0,.8-3.287ZM5.81,22.214,9.062,12.2H11.5L6.9,25H4.746L.158,12.2H2.593ZM15.293,25H13.078V12.2h2.215Zm9.422-3.3a1.545,1.545,0,0,0-.593-1.3,7.138,7.138,0,0,0-2.14-.923,10.335,10.335,0,0,1-2.461-1.037,3.284,3.284,0,0,1-1.749-2.865,3.118,3.118,0,0,1,1.261-2.549,5.1,5.1,0,0,1,3.274-1,5.53,5.53,0,0,1,2.382.492,3.909,3.909,0,0,1,1.644,1.4,3.6,3.6,0,0,1,.6,2.017H24.715a2.005,2.005,0,0,0-.628-1.569,2.594,2.594,0,0,0-1.8-.567,2.709,2.709,0,0,0-1.692.466,1.551,1.551,0,0,0-.6,1.3,1.4,1.4,0,0,0,.65,1.173,7.493,7.493,0,0,0,2.145.914,9.865,9.865,0,0,1,2.4,1.011,3.816,3.816,0,0,1,1.327,1.3,3.388,3.388,0,0,1,.422,1.718,3.045,3.045,0,0,1-1.226,2.544,5.318,5.318,0,0,1-3.327.945,6.251,6.251,0,0,1-2.553-.514,4.289,4.289,0,0,1-1.811-1.419,3.537,3.537,0,0,1-.646-2.109H19.6a2.07,2.07,0,0,0,.721,1.688,3.156,3.156,0,0,0,2.065.6,2.742,2.742,0,0,0,1.745-.47A1.517,1.517,0,0,0,24.715,21.7ZM38.25,12.2v8.552a4.156,4.156,0,0,1-1.305,3.23,4.958,4.958,0,0,1-3.476,1.191A4.993,4.993,0,0,1,29.979,24a4.176,4.176,0,0,1-1.292-3.256V12.2H30.9v8.561a2.719,2.719,0,0,0,.65,1.96,2.537,2.537,0,0,0,1.916.677q2.566,0,2.566-2.707V12.2Zm9.343,9.817H42.636L41.6,25H39.287l4.834-12.8h2L50.959,25h-2.32ZM43.26,20.228h3.709l-1.854-5.309Zm11.373,3h5.81V25H52.409V12.2h2.224ZM64.494,25H62.279V12.2h2.215Zm4.825-1.775h6.838V25H66.63V23.559L73.248,14H66.674V12.2h9.272v1.406Zm16.022-1.2H80.385L79.348,25H77.036L81.87,12.2h2L88.708,25h-2.32Zm-4.333-1.793h3.709l-1.854-5.309Zm18.729.606a4.621,4.621,0,0,1-1.512,3.195,5.154,5.154,0,0,1-3.507,1.147,4.99,4.99,0,0,1-2.694-.725,4.759,4.759,0,0,1-1.8-2.061,7.438,7.438,0,0,1-.659-3.1v-1.2a7.491,7.491,0,0,1,.642-3.19,4.835,4.835,0,0,1,1.841-2.127,5.136,5.136,0,0,1,2.773-.747,4.934,4.934,0,0,1,3.41,1.151,4.81,4.81,0,0,1,1.5,3.252H97.523a3.161,3.161,0,0,0-.8-1.991,2.658,2.658,0,0,0-1.894-.611A2.6,2.6,0,0,0,92.6,14.888,5.289,5.289,0,0,0,91.8,18v1.134a5.611,5.611,0,0,0,.743,3.164,2.465,2.465,0,0,0,2.175,1.09,2.875,2.875,0,0,0,1.969-.589,3.071,3.071,0,0,0,.835-1.96ZM104.071,25h-2.215V12.2h2.215Zm12.946-6.064a7.851,7.851,0,0,1-.65,3.3,4.918,4.918,0,0,1-1.859,2.18,5.453,5.453,0,0,1-5.555,0,4.993,4.993,0,0,1-1.881-2.167,7.606,7.606,0,0,1-.672-3.243v-.721a7.784,7.784,0,0,1,.664-3.3,4.987,4.987,0,0,1,1.872-2.193,5.464,5.464,0,0,1,5.546-.009,4.924,4.924,0,0,1,1.868,2.162,7.767,7.767,0,0,1,.668,3.283Zm-2.224-.668a5.594,5.594,0,0,0-.8-3.261,2.838,2.838,0,0,0-4.535,0,5.486,5.486,0,0,0-.831,3.195v.738a5.552,5.552,0,0,0,.822,3.261,2.646,2.646,0,0,0,2.281,1.151A2.615,2.615,0,0,0,114,22.223a5.671,5.671,0,0,0,.8-3.287Zm-2.435-9.492h2.435l-2.435,2.663h-1.714ZM129.384,25H127.16l-5.7-9.079V25h-2.224V12.2h2.224l5.722,9.114V12.2h2.206Z" transform="translate(1079.5 16991.5)" fill="#607b82"/>
    <g id="Grupo_84581" data-name="Grupo 84581" transform="translate(-15778.5 17476.5) rotate(-90)">
      <rect id="Rectángulo_7670-8" data-name="Rectángulo 7670" width="5" height="56" transform="translate(476 16751)" fill="#607b82"/>
      <path id="Polígono_10-8" data-name="Polígono 10" d="M8,0l8,14H0Z" transform="translate(486 16812) rotate(180)" fill="#607b82"/>
    </g>
  </g>
</svg>
