<svg xmlns="http://www.w3.org/2000/svg" width="524" height="318" viewBox="0 0 524 318">
  <g id="Grupo_88904" data-name="Grupo 88904" transform="translate(-500 -1153)">
    <g id="Grupo_88900" data-name="Grupo 88900" transform="translate(-49 -4)">
      <path id="Rectángulo_7944" data-name="Rectángulo 7944" d="M2,2V77H57V2H2M0,0H59V79H0Z" transform="translate(790 1157)" fill="#607b82"/>
      <text id="Inicio" transform="translate(800 1204)" fill="#12263f" font-size="16" font-family="SegoeUI, Segoe UI"><tspan x="0" y="0">Inicio</tspan></text>
      <path id="Trazado_194688" data-name="Trazado 194688" d="M-6828.957-10530.651l-10.689-10.689,1.414-1.414,10.689,10.689Z" transform="translate(7676 11700)" fill="#607b82"/>
    </g>
    <g id="Grupo_88901" data-name="Grupo 88901" transform="translate(-63 117)">
      <path id="Rectángulo_7944-2" data-name="Rectángulo 7944" d="M2,2V77H85V2H2M0,0H87V79H0Z" transform="translate(790 1157)" fill="#607b82"/>
      <text id="Nosotros" transform="translate(800 1204)" fill="#12263f" font-size="16" font-family="SegoeUI, Segoe UI"><tspan x="0" y="0">Nosotros</tspan></text>
      <path id="Trazado_194688-2" data-name="Trazado 194688" d="M-6828.957-10530.651l-10.689-10.689,1.414-1.414,10.689,10.689Z" transform="translate(7705.25 11700)" fill="#607b82"/>
    </g>
    <g id="Grupo_88902" data-name="Grupo 88902" transform="translate(-206 117)">
      <path id="Rectángulo_7944-3" data-name="Rectángulo 7944" d="M2,2V77H81V2H2M0,0H83V79H0Z" transform="translate(790 1157)" fill="#26cb99"/>
      <text id="Servicios" transform="translate(800 1204)" fill="#1c1c1c" font-size="16" font-family="SegoeUI, Segoe UI"><tspan x="0" y="0">Servicios</tspan></text>
      <path id="Trazado_194688-3" data-name="Trazado 194688" d="M-6828.957-10530.651l-10.689-10.689,1.414-1.414,10.689,10.689Z" transform="translate(7699.594 11700)" fill="#26cb99"/>
    </g>
    <path id="Trazado_194701" data-name="Trazado 194701" d="M2,2V77H57V2H2M0,0H59V79H0Z" transform="translate(500 1392)" fill="#26cb99"/>
    <path id="Trazado_194706" data-name="Trazado 194706" d="M7.1-2.93a1.374,1.374,0,0,0-.527-1.156,6.345,6.345,0,0,0-1.9-.82,9.186,9.186,0,0,1-2.187-.922A2.919,2.919,0,0,1,.93-8.375a2.772,2.772,0,0,1,1.121-2.266,4.538,4.538,0,0,1,2.91-.891,4.916,4.916,0,0,1,2.117.438A3.475,3.475,0,0,1,8.539-9.848,3.2,3.2,0,0,1,9.07-8.055H7.1a1.782,1.782,0,0,0-.559-1.395,2.305,2.305,0,0,0-1.6-.5,2.408,2.408,0,0,0-1.5.414,1.379,1.379,0,0,0-.535,1.156A1.247,1.247,0,0,0,3.484-7.34a6.66,6.66,0,0,0,1.906.813,8.768,8.768,0,0,1,2.133.9A3.392,3.392,0,0,1,8.7-4.473a3.011,3.011,0,0,1,.375,1.527A2.707,2.707,0,0,1,7.988-.684a4.727,4.727,0,0,1-2.957.84A5.557,5.557,0,0,1,2.762-.3,3.812,3.812,0,0,1,1.152-1.562,3.144,3.144,0,0,1,.578-3.437H2.555a1.84,1.84,0,0,0,.641,1.5,2.805,2.805,0,0,0,1.836.531,2.437,2.437,0,0,0,1.551-.418A1.349,1.349,0,0,0,7.1-2.93ZM17.461-5.078H12.789v3.5H18.25V0H10.813V-11.375H18.2v1.594H12.789v3.141h4.672Zm11.477-.312a6.979,6.979,0,0,1-.578,2.934A4.371,4.371,0,0,1,26.707-.52a4.545,4.545,0,0,1-2.473.676A4.556,4.556,0,0,1,21.77-.52,4.438,4.438,0,0,1,20.1-2.445a6.761,6.761,0,0,1-.6-2.883v-.641a6.919,6.919,0,0,1,.59-2.937,4.433,4.433,0,0,1,1.664-1.949,4.531,4.531,0,0,1,2.465-.676,4.57,4.57,0,0,1,2.465.668,4.377,4.377,0,0,1,1.66,1.922,6.9,6.9,0,0,1,.594,2.918Zm-1.977-.594a4.973,4.973,0,0,0-.715-2.9,2.339,2.339,0,0,0-2.027-1.008,2.332,2.332,0,0,0-2,1,4.876,4.876,0,0,0-.738,2.84v.656a4.935,4.935,0,0,0,.73,2.9,2.352,2.352,0,0,0,2.027,1.023,2.325,2.325,0,0,0,2.02-1,5.041,5.041,0,0,0,.707-2.922Z" transform="translate(515 1439)" fill="#12263f"/>
    <path id="Trazado_194688-4" data-name="Trazado 194688" d="M-6828.957-10530.651l-10.689-10.689,1.414-1.414,10.689,10.689Z" transform="translate(7386 11935)" fill="#26cb99"/>
    <path id="Trazado_194702" data-name="Trazado 194702" d="M2,2V77H57V2H2M0,0H59V79H0Z" transform="translate(594 1392)" fill="#26cb99"/>
    <path id="Trazado_194707" data-name="Trazado 194707" d="M7.1-2.93a1.374,1.374,0,0,0-.527-1.156,6.345,6.345,0,0,0-1.9-.82,9.186,9.186,0,0,1-2.187-.922A2.919,2.919,0,0,1,.93-8.375a2.772,2.772,0,0,1,1.121-2.266,4.538,4.538,0,0,1,2.91-.891,4.916,4.916,0,0,1,2.117.438A3.475,3.475,0,0,1,8.539-9.848,3.2,3.2,0,0,1,9.07-8.055H7.1a1.782,1.782,0,0,0-.559-1.395,2.305,2.305,0,0,0-1.6-.5,2.408,2.408,0,0,0-1.5.414,1.379,1.379,0,0,0-.535,1.156A1.247,1.247,0,0,0,3.484-7.34a6.66,6.66,0,0,0,1.906.813,8.768,8.768,0,0,1,2.133.9A3.392,3.392,0,0,1,8.7-4.473a3.011,3.011,0,0,1,.375,1.527A2.707,2.707,0,0,1,7.988-.684a4.727,4.727,0,0,1-2.957.84A5.557,5.557,0,0,1,2.762-.3,3.812,3.812,0,0,1,1.152-1.562,3.144,3.144,0,0,1,.578-3.437H2.555a1.84,1.84,0,0,0,.641,1.5,2.805,2.805,0,0,0,1.836.531,2.437,2.437,0,0,0,1.551-.418A1.349,1.349,0,0,0,7.1-2.93ZM17.461-5.078H12.789v3.5H18.25V0H10.813V-11.375H18.2v1.594H12.789v3.141h4.672Zm4.961-6.3L25.7-2.656l3.273-8.719h2.555V0H29.563V-3.75l.2-5.016L26.4,0H24.984L21.633-8.758l.2,5.008V0H19.859V-11.375Z" transform="translate(608 1439)" fill="#12263f"/>
    <path id="Trazado_194689" data-name="Trazado 194689" d="M-6828.957-10530.651l-10.689-10.689,1.414-1.414,10.689,10.689Z" transform="translate(7480 11935)" fill="#26cb99"/>
    <path id="Trazado_194703" data-name="Trazado 194703" d="M2,2V77H77V2H2M0,0H79V79H0Z" transform="translate(687 1392)" fill="#26cb99"/>
    <path id="Trazado_194708" data-name="Trazado 194708" d="M1.156,0V-11.375H4.516a5.269,5.269,0,0,1,2.676.672A4.581,4.581,0,0,1,9-8.8a6.051,6.051,0,0,1,.641,2.828v.57A6.026,6.026,0,0,1,9-2.555,4.526,4.526,0,0,1,7.16-.664,5.513,5.513,0,0,1,4.43,0ZM3.133-9.781v8.2H4.422a2.968,2.968,0,0,0,2.387-.973,4.237,4.237,0,0,0,.848-2.793v-.633a4.347,4.347,0,0,0-.8-2.828,2.853,2.853,0,0,0-2.336-.977ZM13.445,0h-1.9V-8.453h1.9ZM11.43-10.648a1.008,1.008,0,0,1,.277-.727,1.048,1.048,0,0,1,.793-.289,1.061,1.061,0,0,1,.8.289,1,1,0,0,1,.281.727.977.977,0,0,1-.281.715,1.069,1.069,0,0,1-.8.285,1.056,1.056,0,0,1-.793-.285A.984.984,0,0,1,11.43-10.648ZM20.25-2.3a.861.861,0,0,0-.418-.773,4.445,4.445,0,0,0-1.387-.469,7.129,7.129,0,0,1-1.617-.516,2.158,2.158,0,0,1-1.422-1.992,2.25,2.25,0,0,1,.922-1.828,3.644,3.644,0,0,1,2.344-.734,3.792,3.792,0,0,1,2.449.75,2.38,2.38,0,0,1,.934,1.945h-1.9a1.17,1.17,0,0,0-.406-.91,1.557,1.557,0,0,0-1.078-.363,1.682,1.682,0,0,0-1.02.289.911.911,0,0,0-.395.773.769.769,0,0,0,.367.68,5.049,5.049,0,0,0,1.484.488,7.027,7.027,0,0,1,1.754.586,2.484,2.484,0,0,1,.945.816A2.082,2.082,0,0,1,22.117-2.4a2.2,2.2,0,0,1-.945,1.848A4.031,4.031,0,0,1,18.7.156a4.371,4.371,0,0,1-1.852-.375A3.047,3.047,0,0,1,15.578-1.25a2.441,2.441,0,0,1-.453-1.414h1.844a1.338,1.338,0,0,0,.508,1.035,1.973,1.973,0,0,0,1.242.363,1.92,1.92,0,0,0,1.141-.285A.883.883,0,0,0,20.25-2.3ZM27.492.156A3.928,3.928,0,0,1,24.566-.98a4.124,4.124,0,0,1-1.121-3.027v-.234A5.072,5.072,0,0,1,23.934-6.5,3.716,3.716,0,0,1,25.3-8.055a3.625,3.625,0,0,1,1.969-.555,3.318,3.318,0,0,1,2.668,1.1,4.658,4.658,0,0,1,.941,3.117v.766H25.359a2.539,2.539,0,0,0,.7,1.656,2.1,2.1,0,0,0,1.543.609,2.571,2.571,0,0,0,2.125-1.055l1.023.977A3.418,3.418,0,0,1,29.395-.262,4.244,4.244,0,0,1,27.492.156Zm-.227-7.242A1.6,1.6,0,0,0,26-6.539a2.835,2.835,0,0,0-.613,1.523h3.617v-.141A2.307,2.307,0,0,0,28.5-6.6,1.586,1.586,0,0,0,27.266-7.086Zm6.852-1.367.055.977a3.039,3.039,0,0,1,2.461-1.133q2.641,0,2.688,3.023V0h-1.9V-5.477a1.741,1.741,0,0,0-.348-1.191,1.462,1.462,0,0,0-1.137-.387,1.829,1.829,0,0,0-1.711,1.039V0h-1.9V-8.453Zm4.609-3.375a2.1,2.1,0,0,1-.5,1.43,1.582,1.582,0,0,1-1.246.57,1.856,1.856,0,0,1-.527-.066,3.354,3.354,0,0,1-.633-.3,3.128,3.128,0,0,0-.578-.281,1.378,1.378,0,0,0-.371-.047.662.662,0,0,0-.5.223.821.821,0,0,0-.207.582L33-9.781a2.16,2.16,0,0,1,.5-1.445,1.557,1.557,0,0,1,1.238-.586,2.305,2.305,0,0,1,1.074.352,2.271,2.271,0,0,0,1.035.352.674.674,0,0,0,.508-.223.822.822,0,0,0,.211-.59ZM40.9-4.3a4.984,4.984,0,0,1,.492-2.238,3.6,3.6,0,0,1,1.383-1.531,3.9,3.9,0,0,1,2.047-.535,3.692,3.692,0,0,1,2.777,1.1A4.333,4.333,0,0,1,48.75-4.586l.008.445a5.029,5.029,0,0,1-.48,2.234A3.551,3.551,0,0,1,46.9-.383a3.925,3.925,0,0,1-2.066.539,3.667,3.667,0,0,1-2.863-1.191A4.563,4.563,0,0,1,40.9-4.211Zm1.9.164A3.406,3.406,0,0,0,43.336-2.1a1.752,1.752,0,0,0,1.5.738,1.733,1.733,0,0,0,1.5-.75,3.762,3.762,0,0,0,.535-2.2,3.362,3.362,0,0,0-.551-2.031,1.759,1.759,0,0,0-1.5-.75,1.743,1.743,0,0,0-1.477.738A3.691,3.691,0,0,0,42.8-4.141ZM10.078,17.188l1.75-8.562h1.961L11.164,20H9.273L7.109,11.7,4.9,20H3L.375,8.625H2.336L4.1,17.172,6.273,8.625H7.93Zm8.453,2.969a3.928,3.928,0,0,1-2.926-1.137,4.124,4.124,0,0,1-1.121-3.027v-.234a5.072,5.072,0,0,1,.488-2.262,3.716,3.716,0,0,1,1.371-1.551,3.625,3.625,0,0,1,1.969-.555,3.318,3.318,0,0,1,2.668,1.1,4.658,4.658,0,0,1,.941,3.117v.766H16.4a2.539,2.539,0,0,0,.7,1.656,2.1,2.1,0,0,0,1.543.609,2.571,2.571,0,0,0,2.125-1.055l1.023.977a3.418,3.418,0,0,1-1.355,1.176A4.244,4.244,0,0,1,18.531,20.156ZM18.3,12.914a1.6,1.6,0,0,0-1.262.547,2.835,2.835,0,0,0-.613,1.523h3.617v-.141a2.307,2.307,0,0,0-.508-1.441A1.586,1.586,0,0,0,18.3,12.914Zm12.508,2.945a5.078,5.078,0,0,1-.879,3.133,2.863,2.863,0,0,1-2.418,1.164,2.758,2.758,0,0,1-2.312-1.07L25.109,20H23.391V8h1.9v4.359a2.748,2.748,0,0,1,2.211-.969,2.9,2.9,0,0,1,2.43,1.148,5.162,5.162,0,0,1,.883,3.211Zm-1.9-.164a3.589,3.589,0,0,0-.484-2.062,1.613,1.613,0,0,0-1.406-.687,1.763,1.763,0,0,0-1.734,1.078v3.484a1.781,1.781,0,0,0,1.75,1.1,1.6,1.6,0,0,0,1.375-.664,3.477,3.477,0,0,0,.5-2.008Z" transform="translate(701 1431)" fill="#12263f"/>
    <path id="Trazado_194690" data-name="Trazado 194690" d="M-6828.957-10530.651l-10.689-10.689,1.414-1.414,10.689,10.689Z" transform="translate(7592.594 11935)" fill="#26cb99"/>
    <path id="Trazado_194691" data-name="Trazado 194691" d="M-7002.5-10321.408h-2V-10362h2Z" transform="translate(7627 11715)" fill="#26cb99"/>
    <path id="Trazado_194692" data-name="Trazado 194692" d="M-6983.38-10261.883h-21.12V-10362h2v98.117h19.12Z" transform="translate(-9737.5 8376.796) rotate(90)" fill="#26cb99"/>
    <path id="Trazado_194693" data-name="Trazado 194693" d="M1,99.117H-1V-1H20.12V1H1Z" transform="translate(723.617 1373.296) rotate(90)" fill="#26cb99"/>
    <g id="Grupo_88903" data-name="Grupo 88903" transform="translate(96 117)">
      <path id="Rectángulo_7944-4" data-name="Rectángulo 7944" d="M2,2V77H81V2H2M0,0H83V79H0Z" transform="translate(790 1157)" fill="#ce6666"/>
      <text id="Productos" transform="translate(796 1204)" fill="#1c1c1c" font-size="16" font-family="SegoeUI, Segoe UI"><tspan x="0" y="0">Productos</tspan></text>
      <path id="Trazado_194688-5" data-name="Trazado 194688" d="M-6828.957-10530.651l-10.689-10.689,1.414-1.414,10.689,10.689Z" transform="translate(7699.594 11700)" fill="#ce6666"/>
    </g>
    <path id="Trazado_194704" data-name="Trazado 194704" d="M2,2V77H57V2H2M0,0H59V79H0Z" transform="translate(851 1392)" fill="#ce6666"/>
    <path id="Trazado_194709" data-name="Trazado 194709" d="M10.078-2.812l1.75-8.562h1.961L11.164,0H9.273L7.109-8.3,4.9,0H3L.375-11.375H2.336L4.1-2.828l2.172-8.547H7.93ZM18.531.156A3.928,3.928,0,0,1,15.605-.98a4.124,4.124,0,0,1-1.121-3.027v-.234A5.072,5.072,0,0,1,14.973-6.5a3.716,3.716,0,0,1,1.371-1.551,3.625,3.625,0,0,1,1.969-.555,3.318,3.318,0,0,1,2.668,1.1,4.658,4.658,0,0,1,.941,3.117v.766H16.4a2.539,2.539,0,0,0,.7,1.656,2.1,2.1,0,0,0,1.543.609,2.571,2.571,0,0,0,2.125-1.055l1.023.977A3.418,3.418,0,0,1,20.434-.262,4.244,4.244,0,0,1,18.531.156ZM18.3-7.086a1.6,1.6,0,0,0-1.262.547,2.835,2.835,0,0,0-.613,1.523h3.617v-.141A2.307,2.307,0,0,0,19.539-6.6,1.586,1.586,0,0,0,18.3-7.086ZM30.813-4.141a5.078,5.078,0,0,1-.879,3.133A2.863,2.863,0,0,1,27.516.156,2.758,2.758,0,0,1,25.2-.914L25.109,0H23.391V-12h1.9v4.359A2.748,2.748,0,0,1,27.5-8.609a2.9,2.9,0,0,1,2.43,1.148,5.162,5.162,0,0,1,.883,3.211Zm-1.9-.164a3.589,3.589,0,0,0-.484-2.062,1.613,1.613,0,0,0-1.406-.687,1.763,1.763,0,0,0-1.734,1.078v3.484a1.781,1.781,0,0,0,1.75,1.1,1.6,1.6,0,0,0,1.375-.664,3.477,3.477,0,0,0,.5-2.008ZM9.375,10.219H5.828V20H3.867V10.219H.352V8.625H9.375Zm4.336,9.938a3.928,3.928,0,0,1-2.926-1.137,4.124,4.124,0,0,1-1.121-3.027v-.234a5.072,5.072,0,0,1,.488-2.262,3.716,3.716,0,0,1,1.371-1.551,3.625,3.625,0,0,1,1.969-.555,3.318,3.318,0,0,1,2.668,1.1,4.658,4.658,0,0,1,.941,3.117v.766H11.578a2.539,2.539,0,0,0,.7,1.656,2.1,2.1,0,0,0,1.543.609,2.571,2.571,0,0,0,2.125-1.055l1.023.977a3.418,3.418,0,0,1-1.355,1.176A4.244,4.244,0,0,1,13.711,20.156Zm-.227-7.242a1.6,1.6,0,0,0-1.262.547,2.835,2.835,0,0,0-.613,1.523h3.617v-.141a2.307,2.307,0,0,0-.508-1.441A1.586,1.586,0,0,0,13.484,12.914ZM23.313,17.7a.861.861,0,0,0-.418-.773,4.445,4.445,0,0,0-1.387-.469,7.129,7.129,0,0,1-1.617-.516,2.158,2.158,0,0,1-1.422-1.992,2.25,2.25,0,0,1,.922-1.828,3.644,3.644,0,0,1,2.344-.734,3.792,3.792,0,0,1,2.449.75,2.38,2.38,0,0,1,.934,1.945h-1.9a1.17,1.17,0,0,0-.406-.91,1.557,1.557,0,0,0-1.078-.363,1.682,1.682,0,0,0-1.02.289.911.911,0,0,0-.395.773.769.769,0,0,0,.367.68,5.049,5.049,0,0,0,1.484.488,7.027,7.027,0,0,1,1.754.586,2.484,2.484,0,0,1,.945.816A2.082,2.082,0,0,1,25.18,17.6a2.2,2.2,0,0,1-.945,1.848,4.031,4.031,0,0,1-2.477.707,4.371,4.371,0,0,1-1.852-.375,3.047,3.047,0,0,1-1.266-1.031,2.441,2.441,0,0,1-.453-1.414h1.844a1.338,1.338,0,0,0,.508,1.035,1.973,1.973,0,0,0,1.242.363,1.92,1.92,0,0,0,1.141-.285A.883.883,0,0,0,23.313,17.7Zm5.9-8.211v2.055H30.7v1.406H29.211v4.719a1.039,1.039,0,0,0,.191.7.888.888,0,0,0,.684.215,2.924,2.924,0,0,0,.664-.078v1.469a4.676,4.676,0,0,1-1.25.18q-2.188,0-2.187-2.414V12.953H25.922V11.547h1.391V9.492Zm6.664,10.664a3.928,3.928,0,0,1-2.926-1.137,4.124,4.124,0,0,1-1.121-3.027v-.234a5.072,5.072,0,0,1,.488-2.262,3.716,3.716,0,0,1,1.371-1.551,3.625,3.625,0,0,1,1.969-.555,3.318,3.318,0,0,1,2.668,1.1,4.658,4.658,0,0,1,.941,3.117v.766H33.742a2.539,2.539,0,0,0,.7,1.656,2.1,2.1,0,0,0,1.543.609,2.571,2.571,0,0,0,2.125-1.055l1.023.977a3.418,3.418,0,0,1-1.355,1.176A4.244,4.244,0,0,1,35.875,20.156Zm-.227-7.242a1.6,1.6,0,0,0-1.262.547,2.835,2.835,0,0,0-.613,1.523h3.617v-.141a2.307,2.307,0,0,0-.508-1.441A1.586,1.586,0,0,0,35.648,12.914Zm9.516.367a4.7,4.7,0,0,0-.773-.062,1.741,1.741,0,0,0-1.758,1V20h-1.9V11.547h1.813l.047.945a2.139,2.139,0,0,1,1.906-1.1,1.777,1.777,0,0,1,.672.109Z" transform="translate(859 1431)" fill="#12263f"/>
    <path id="Trazado_194694" data-name="Trazado 194694" d="M-6828.957-10530.651l-10.689-10.689,1.414-1.414,10.689,10.689Z" transform="translate(7737 11935)" fill="#ce6666"/>
    <path id="Trazado_194705" data-name="Trazado 194705" d="M2,2V77H77V2H2M0,0H79V79H0Z" transform="translate(945 1392)" fill="#ce6666"/>
    <path id="Trazado_194710" data-name="Trazado 194710" d="M9.375-9.781H5.828V0H3.867V-9.781H.352v-1.594H9.375ZM14.6-6.719a4.7,4.7,0,0,0-.773-.062,1.741,1.741,0,0,0-1.758,1V0h-1.9V-8.453h1.813l.047.945a2.139,2.139,0,0,1,1.906-1.1,1.777,1.777,0,0,1,.672.109ZM20.617,0A2.93,2.93,0,0,1,20.4-.789,2.955,2.955,0,0,1,18.18.156,2.982,2.982,0,0,1,16.1-.57a2.325,2.325,0,0,1-.8-1.8,2.4,2.4,0,0,1,1-2.074,4.865,4.865,0,0,1,2.871-.723h1.164v-.555a1.481,1.481,0,0,0-.367-1.051,1.456,1.456,0,0,0-1.117-.395,1.672,1.672,0,0,0-1.062.324,1,1,0,0,0-.414.824h-1.9a2.107,2.107,0,0,1,.461-1.3,3.071,3.071,0,0,1,1.254-.949,4.4,4.4,0,0,1,1.77-.344,3.547,3.547,0,0,1,2.367.746,2.661,2.661,0,0,1,.906,2.1v3.813a4.321,4.321,0,0,0,.32,1.82V0ZM18.531-1.367a2.159,2.159,0,0,0,1.059-.273,1.827,1.827,0,0,0,.746-.734V-3.969H19.313a2.8,2.8,0,0,0-1.586.367A1.189,1.189,0,0,0,17.2-2.562a1.109,1.109,0,0,0,.363.871A1.407,1.407,0,0,0,18.531-1.367ZM24.891,0V-7.047H23.6V-8.453h1.289v-.773a2.9,2.9,0,0,1,.781-2.172,2.993,2.993,0,0,1,2.188-.766,4.388,4.388,0,0,1,1.063.141l-.047,1.484a3.739,3.739,0,0,0-.727-.062,1.219,1.219,0,0,0-1.359,1.4v.75H29.7v-.578a3.382,3.382,0,0,1,.422-1.7,2.624,2.624,0,0,1,1.172-1.07,4.218,4.218,0,0,1,1.82-.359,5.306,5.306,0,0,1,1.2.133q.574.133,1.191.336l-.3,1.57a5.927,5.927,0,0,0-1.961-.375,1.759,1.759,0,0,0-1.258.379,1.516,1.516,0,0,0-.391,1.137v.531h1.664v1.406H31.594V0H29.7V-7.047H26.789V0ZM36.4,0H34.5V-8.453h1.9Zm5.57-1.359a1.716,1.716,0,0,0,1.18-.414,1.415,1.415,0,0,0,.5-1.023h1.789a2.789,2.789,0,0,1-.492,1.473A3.228,3.228,0,0,1,43.7-.242a3.725,3.725,0,0,1-1.7.4A3.6,3.6,0,0,1,39.18-.992a4.555,4.555,0,0,1-1.039-3.172v-.2a4.479,4.479,0,0,1,1.031-3.09,3.571,3.571,0,0,1,2.813-1.16,3.473,3.473,0,0,1,2.457.879,3.148,3.148,0,0,1,1,2.309H43.648a1.738,1.738,0,0,0-.5-1.2,1.6,1.6,0,0,0-1.184-.469,1.671,1.671,0,0,0-1.422.668,3.408,3.408,0,0,0-.508,2.027v.3a3.465,3.465,0,0,0,.5,2.051A1.669,1.669,0,0,0,41.969-1.359ZM7.523,17.352H3.117L2.2,20H.141l4.3-11.375H6.211L10.516,20H8.453ZM3.672,15.758h3.3L5.32,11.039Zm9.336-4.211.055.977a3.039,3.039,0,0,1,2.461-1.133q2.641,0,2.688,3.023V20h-1.9V14.523a1.741,1.741,0,0,0-.348-1.191,1.462,1.462,0,0,0-1.137-.387,1.829,1.829,0,0,0-1.711,1.039V20h-1.9V11.547ZM25.2,20a2.93,2.93,0,0,1-.219-.789,3.193,3.193,0,0,1-4.3.219,2.325,2.325,0,0,1-.8-1.8,2.4,2.4,0,0,1,1-2.074,4.865,4.865,0,0,1,2.871-.723h1.164v-.555a1.481,1.481,0,0,0-.367-1.051,1.456,1.456,0,0,0-1.117-.395,1.672,1.672,0,0,0-1.062.324,1,1,0,0,0-.414.824h-1.9a2.107,2.107,0,0,1,.461-1.3,3.071,3.071,0,0,1,1.254-.949,4.4,4.4,0,0,1,1.77-.344,3.547,3.547,0,0,1,2.367.746,2.661,2.661,0,0,1,.906,2.1v3.813a4.321,4.321,0,0,0,.32,1.82V20Zm-2.086-1.367a2.16,2.16,0,0,0,1.059-.273,1.827,1.827,0,0,0,.746-.734V16.031H23.891A2.8,2.8,0,0,0,22.3,16.4a1.189,1.189,0,0,0-.531,1.039,1.109,1.109,0,0,0,.363.871A1.407,1.407,0,0,0,23.109,18.633ZM30.82,20h-1.9V8h1.9Zm5.023-2.719,1.719-5.734h2.023l-3.359,9.734A2.73,2.73,0,0,1,33.6,23.414a3.4,3.4,0,0,1-.914-.141V21.8l.359.023a1.847,1.847,0,0,0,1.082-.262,1.735,1.735,0,0,0,.574-.879l.273-.727-2.969-8.414h2.047Zm6.859,1.2h4.5V20H40.344V18.758l4.289-5.68H40.422V11.547h6.617v1.2Zm9.617,1.672a3.928,3.928,0,0,1-2.926-1.137,4.124,4.124,0,0,1-1.121-3.027v-.234a5.072,5.072,0,0,1,.488-2.262,3.716,3.716,0,0,1,1.371-1.551,3.625,3.625,0,0,1,1.969-.555,3.318,3.318,0,0,1,2.668,1.1,4.658,4.658,0,0,1,.941,3.117v.766H50.188a2.539,2.539,0,0,0,.7,1.656,2.1,2.1,0,0,0,1.543.609,2.571,2.571,0,0,0,2.125-1.055l1.023.977a3.418,3.418,0,0,1-1.355,1.176A4.244,4.244,0,0,1,52.32,20.156Zm-.227-7.242a1.6,1.6,0,0,0-1.262.547,2.835,2.835,0,0,0-.613,1.523h3.617v-.141a2.307,2.307,0,0,0-.508-1.441A1.586,1.586,0,0,0,52.094,12.914Zm9.516.367a4.7,4.7,0,0,0-.773-.062,1.741,1.741,0,0,0-1.758,1V20h-1.9V11.547h1.813l.047.945a2.139,2.139,0,0,1,1.906-1.1,1.777,1.777,0,0,1,.672.109Z" transform="translate(954 1431)" fill="#12263f"/>
    <path id="Trazado_194695" data-name="Trazado 194695" d="M-6828.957-10530.651l-10.689-10.689,1.414-1.414,10.689,10.689Z" transform="translate(7851 11935)" fill="#ce6666"/>
    <path id="Trazado_194696" data-name="Trazado 194696" d="M-6733.288-10323.008h-2V-10362h2Z" transform="translate(7629 11715)" fill="#ce6666"/>
    <path id="Trazado_194697" data-name="Trazado 194697" d="M-6733.288-10323.008h-2V-10362h2Z" transform="translate(7690 11715)" fill="#ce6666"/>
    <path id="Trazado_194698" data-name="Trazado 194698" d="M-7002.5-10321.408h-2V-10362h2Z" transform="translate(7774 11594)" fill="#607b82"/>
    <path id="Trazado_194699" data-name="Trazado 194699" d="M-7047.727-10422.474h-2v-22.23H-6905.5v2h-142.227Z" transform="translate(7676 11696)" fill="#607b82"/>
    <path id="Trazado_194700" data-name="Trazado 194700" d="M-6904.5-10422.474h-2v-20.23h-142.227v-2H-6904.5Z" transform="translate(7819.227 11696)" fill="#607b82"/>
  </g>
</svg>
