<svg xmlns="http://www.w3.org/2000/svg" width="715.282" height="289.624" viewBox="0 0 715.282 289.624">
  <g id="Grupo_79413" data-name="Grupo 79413" transform="translate(-442.359 -10022.376)">
    <path id="Trazado_172811" data-name="Trazado 172811" d="M0,0H205.282V42.353H0Z" transform="translate(442.359 10040.646)" fill="#e8d43a"/>
    <path id="Trazado_166277" data-name="Trazado 166277" d="M316.772,392.089l26-21.176V331.466l-26,18.271Z" transform="translate(330.869 9690.91)" fill="#ebe5b2"/>
    <path id="Trazado_166278" data-name="Trazado 166278" d="M316.772,349.737H111.49l26-18.271H342.772Z" transform="translate(330.869 9690.91)" fill="#f0e489"/>
    <path id="Trazado_172812" data-name="Trazado 172812" d="M3.524-4.755V0H1.3V-12.8H6.2A4.954,4.954,0,0,1,9.6-11.681a3.751,3.751,0,0,1,1.261,2.953A3.627,3.627,0,0,1,9.628-5.8,5.194,5.194,0,0,1,6.17-4.755Zm0-1.784H6.2A2.632,2.632,0,0,0,8.007-7.1,2.051,2.051,0,0,0,8.631-8.71,2.213,2.213,0,0,0,8-10.367,2.439,2.439,0,0,0,6.258-11H3.524Zm14.054-1.02a5.285,5.285,0,0,0-.87-.07A1.959,1.959,0,0,0,14.73-6.5V0H12.595V-9.51h2.039l.053,1.063a2.406,2.406,0,0,1,2.145-1.239,2,2,0,0,1,.756.123Zm.633,2.716a5.607,5.607,0,0,1,.554-2.518A4.044,4.044,0,0,1,20.32-9.083a4.383,4.383,0,0,1,2.3-.6,4.154,4.154,0,0,1,3.125,1.239,4.874,4.874,0,0,1,1.3,3.287l.009.5a5.658,5.658,0,0,1-.541,2.514A4,4,0,0,1,24.965-.431a4.415,4.415,0,0,1-2.325.606,4.125,4.125,0,0,1-3.221-1.34,5.133,5.133,0,0,1-1.208-3.573Zm2.136.185a3.832,3.832,0,0,0,.606,2.3,1.971,1.971,0,0,0,1.688.831,1.95,1.95,0,0,0,1.683-.844,4.232,4.232,0,0,0,.6-2.47,3.782,3.782,0,0,0-.62-2.285,1.979,1.979,0,0,0-1.683-.844,1.96,1.96,0,0,0-1.661.831A4.152,4.152,0,0,0,20.347-4.658Zm8.112-.167a5.654,5.654,0,0,1,1.02-3.529,3.267,3.267,0,0,1,2.733-1.332,3.1,3.1,0,0,1,2.443,1.055V-13.5h2.136V0H34.857l-.105-.984A3.148,3.148,0,0,1,32.194.176a3.248,3.248,0,0,1-2.7-1.345A5.861,5.861,0,0,1,28.459-4.825Zm2.136.185a3.958,3.958,0,0,0,.558,2.263,1.811,1.811,0,0,0,1.586.813,2.017,2.017,0,0,0,1.916-1.169V-6.794a1.986,1.986,0,0,0-1.9-1.143,1.824,1.824,0,0,0-1.6.822A4.408,4.408,0,0,0,30.595-4.641ZM44.78-.932A3.312,3.312,0,0,1,42.108.176a2.952,2.952,0,0,1-2.342-.905,3.851,3.851,0,0,1-.8-2.619V-9.51h2.136v6.135q0,1.811,1.5,1.811a2.111,2.111,0,0,0,2.1-1.116V-9.51h2.136V0H44.833Zm8.147-.6A1.931,1.931,0,0,0,54.255-2a1.591,1.591,0,0,0,.563-1.151H56.83a3.137,3.137,0,0,1-.554,1.657A3.632,3.632,0,0,1,54.87-.272a4.191,4.191,0,0,1-1.916.448A4.055,4.055,0,0,1,49.79-1.116a5.124,5.124,0,0,1-1.169-3.568V-4.9a5.039,5.039,0,0,1,1.16-3.476,4.018,4.018,0,0,1,3.164-1.305,3.907,3.907,0,0,1,2.764.989A3.542,3.542,0,0,1,56.83-6.1H54.817a1.956,1.956,0,0,0-.558-1.345,1.8,1.8,0,0,0-1.332-.527,1.879,1.879,0,0,0-1.6.751,3.834,3.834,0,0,0-.571,2.281V-4.6a3.9,3.9,0,0,0,.558,2.307A1.878,1.878,0,0,0,52.928-1.529Zm9.422,0A1.931,1.931,0,0,0,63.677-2a1.591,1.591,0,0,0,.563-1.151h2.013A3.137,3.137,0,0,1,65.7-1.49,3.632,3.632,0,0,1,64.292-.272a4.191,4.191,0,0,1-1.916.448,4.055,4.055,0,0,1-3.164-1.292,5.124,5.124,0,0,1-1.169-3.568V-4.9A5.039,5.039,0,0,1,59.2-8.38a4.018,4.018,0,0,1,3.164-1.305,3.907,3.907,0,0,1,2.764.989,3.542,3.542,0,0,1,1.121,2.6H64.239a1.956,1.956,0,0,0-.558-1.345,1.8,1.8,0,0,0-1.332-.527,1.879,1.879,0,0,0-1.6.751,3.834,3.834,0,0,0-.571,2.281V-4.6a3.9,3.9,0,0,0,.558,2.307A1.878,1.878,0,0,0,62.35-1.529ZM70.137,0H68V-9.51h2.136ZM67.869-11.979a1.133,1.133,0,0,1,.312-.817,1.179,1.179,0,0,1,.892-.325,1.193,1.193,0,0,1,.9.325,1.125,1.125,0,0,1,.316.817,1.1,1.1,0,0,1-.316.8,1.2,1.2,0,0,1-.9.321,1.188,1.188,0,0,1-.892-.321A1.107,1.107,0,0,1,67.869-11.979Zm4.192,7.137a5.607,5.607,0,0,1,.554-2.518,4.044,4.044,0,0,1,1.556-1.723,4.383,4.383,0,0,1,2.3-.6A4.154,4.154,0,0,1,79.6-8.446a4.874,4.874,0,0,1,1.3,3.287l.009.5a5.658,5.658,0,0,1-.541,2.514A4,4,0,0,1,78.816-.431a4.415,4.415,0,0,1-2.325.606,4.125,4.125,0,0,1-3.221-1.34,5.133,5.133,0,0,1-1.208-3.573Zm2.136.185a3.832,3.832,0,0,0,.606,2.3,1.971,1.971,0,0,0,1.688.831,1.95,1.95,0,0,0,1.683-.844,4.232,4.232,0,0,0,.6-2.47,3.782,3.782,0,0,0-.62-2.285,1.979,1.979,0,0,0-1.683-.844,1.96,1.96,0,0,0-1.661.831A4.152,4.152,0,0,0,74.2-4.658ZM77.063-13.5H79.5l-2.435,2.663H75.349Zm7.629,3.99.062,1.1a3.419,3.419,0,0,1,2.769-1.274q2.971,0,3.023,3.4V0H88.409V-6.161a1.958,1.958,0,0,0-.391-1.34,1.645,1.645,0,0,0-1.279-.435,2.058,2.058,0,0,0-1.925,1.169V0H82.679V-9.51Z" transform="translate(499 10066.375)" fill="#12263f"/>
    <path id="Trazado_172814" data-name="Trazado 172814" d="M0,0H205.282V42.353H0Z" transform="translate(684.359 10040.646)" fill="#ce6666"/>
    <path id="Trazado_166279" data-name="Trazado 166279" d="M316.772,392.089l26-21.176V331.466l-26,18.271Z" transform="translate(572.869 9690.91)" fill="#d67575"/>
    <path id="Trazado_166280" data-name="Trazado 166280" d="M316.772,349.737H111.49l26-18.271H342.772Z" transform="translate(572.869 9690.91)" fill="#eb9595"/>
    <path id="Trazado_172815" data-name="Trazado 172815" d="M7.989-3.3A1.545,1.545,0,0,0,7.4-4.6a7.138,7.138,0,0,0-2.14-.923A10.335,10.335,0,0,1,2.795-6.557,3.284,3.284,0,0,1,1.046-9.422a3.118,3.118,0,0,1,1.261-2.549,5.1,5.1,0,0,1,3.274-1,5.53,5.53,0,0,1,2.382.492,3.909,3.909,0,0,1,1.644,1.4,3.6,3.6,0,0,1,.6,2.017H7.989a2.005,2.005,0,0,0-.628-1.569,2.594,2.594,0,0,0-1.8-.567,2.709,2.709,0,0,0-1.692.466,1.551,1.551,0,0,0-.6,1.3,1.4,1.4,0,0,0,.65,1.173,7.493,7.493,0,0,0,2.145.914,9.865,9.865,0,0,1,2.4,1.011,3.816,3.816,0,0,1,1.327,1.3,3.388,3.388,0,0,1,.422,1.718A3.045,3.045,0,0,1,8.987-.769,5.318,5.318,0,0,1,5.66.176,6.251,6.251,0,0,1,3.107-.338,4.289,4.289,0,0,1,1.3-1.758,3.537,3.537,0,0,1,.65-3.867H2.874A2.07,2.07,0,0,0,3.595-2.18a3.156,3.156,0,0,0,2.065.6A2.742,2.742,0,0,0,7.4-2.052,1.517,1.517,0,0,0,7.989-3.3ZM16.146.176A4.419,4.419,0,0,1,12.854-1.1a4.639,4.639,0,0,1-1.261-3.406v-.264a5.706,5.706,0,0,1,.549-2.544,4.181,4.181,0,0,1,1.542-1.745A4.078,4.078,0,0,1,15.9-9.686a3.733,3.733,0,0,1,3,1.239A5.24,5.24,0,0,1,19.96-4.939v.861H13.746a2.856,2.856,0,0,0,.787,1.863,2.362,2.362,0,0,0,1.736.686,2.892,2.892,0,0,0,2.391-1.187l1.151,1.1A3.845,3.845,0,0,1,18.286-.294,4.774,4.774,0,0,1,16.146.176Zm-.255-8.147a1.8,1.8,0,0,0-1.419.615,3.189,3.189,0,0,0-.69,1.714h4.069V-5.8a2.6,2.6,0,0,0-.571-1.622A1.785,1.785,0,0,0,15.891-7.972ZM26.6-7.559a5.285,5.285,0,0,0-.87-.07A1.959,1.959,0,0,0,23.748-6.5V0H21.612V-9.51h2.039L23.7-8.446a2.406,2.406,0,0,1,2.145-1.239,2,2,0,0,1,.756.123Zm4.86,4.852,2.013-6.8h2.206L32.379,0H30.524L27.2-9.51h2.215ZM39.278,0H37.143V-9.51h2.136ZM37.011-11.979a1.133,1.133,0,0,1,.312-.817,1.179,1.179,0,0,1,.892-.325,1.193,1.193,0,0,1,.9.325,1.125,1.125,0,0,1,.316.817,1.1,1.1,0,0,1-.316.8,1.2,1.2,0,0,1-.9.321,1.188,1.188,0,0,1-.892-.321A1.107,1.107,0,0,1,37.011-11.979Zm8.5,10.45A1.931,1.931,0,0,0,46.837-2,1.591,1.591,0,0,0,47.4-3.146h2.013a3.137,3.137,0,0,1-.554,1.657A3.632,3.632,0,0,1,47.452-.272a4.191,4.191,0,0,1-1.916.448,4.055,4.055,0,0,1-3.164-1.292A5.124,5.124,0,0,1,41.2-4.685V-4.9a5.039,5.039,0,0,1,1.16-3.476,4.018,4.018,0,0,1,3.164-1.305,3.907,3.907,0,0,1,2.764.989,3.542,3.542,0,0,1,1.121,2.6H47.4a1.956,1.956,0,0,0-.558-1.345,1.8,1.8,0,0,0-1.332-.527,1.879,1.879,0,0,0-1.6.751,3.834,3.834,0,0,0-.571,2.281V-4.6A3.9,3.9,0,0,0,43.9-2.29,1.878,1.878,0,0,0,45.51-1.529ZM53.3,0H51.161V-9.51H53.3ZM51.029-11.979a1.133,1.133,0,0,1,.312-.817,1.179,1.179,0,0,1,.892-.325,1.193,1.193,0,0,1,.9.325,1.125,1.125,0,0,1,.316.817,1.1,1.1,0,0,1-.316.8,1.2,1.2,0,0,1-.9.321,1.188,1.188,0,0,1-.892-.321A1.107,1.107,0,0,1,51.029-11.979Zm4.192,7.137a5.607,5.607,0,0,1,.554-2.518,4.044,4.044,0,0,1,1.556-1.723,4.383,4.383,0,0,1,2.3-.6,4.154,4.154,0,0,1,3.125,1.239,4.874,4.874,0,0,1,1.3,3.287l.009.5a5.658,5.658,0,0,1-.541,2.514A4,4,0,0,1,61.976-.431a4.415,4.415,0,0,1-2.325.606,4.125,4.125,0,0,1-3.221-1.34,5.133,5.133,0,0,1-1.208-3.573Zm2.136.185a3.832,3.832,0,0,0,.606,2.3,1.971,1.971,0,0,0,1.688.831,1.95,1.95,0,0,0,1.683-.844,4.232,4.232,0,0,0,.6-2.47,3.782,3.782,0,0,0-.62-2.285,1.979,1.979,0,0,0-1.683-.844,1.96,1.96,0,0,0-1.661.831A4.152,4.152,0,0,0,57.357-4.658ZM70.559,0V-12.8h3.779a5.928,5.928,0,0,1,3.01.756A5.154,5.154,0,0,1,79.383-9.9,6.807,6.807,0,0,1,80.1-6.715v.642a6.779,6.779,0,0,1-.725,3.2A5.092,5.092,0,0,1,77.313-.747,6.2,6.2,0,0,1,74.241,0Zm2.224-11v9.229h1.45A3.339,3.339,0,0,0,76.917-2.87a4.766,4.766,0,0,0,.954-3.142v-.712a4.891,4.891,0,0,0-.905-3.182A3.209,3.209,0,0,0,74.338-11ZM82.318,0V-12.8H86.7a5.354,5.354,0,0,1,3.3.87,3.065,3.065,0,0,1,1.134,2.593,2.763,2.763,0,0,1-.475,1.582,3.055,3.055,0,0,1-1.389,1.09,2.825,2.825,0,0,1,1.6,1.059,3.085,3.085,0,0,1,.567,1.868A3.407,3.407,0,0,1,90.294-.967,5.025,5.025,0,0,1,86.985,0Zm2.224-5.774v4h2.47a2.39,2.39,0,0,0,1.635-.519,1.82,1.82,0,0,0,.589-1.441A1.826,1.826,0,0,0,87.2-5.774Zm0-1.635h2.18a2.521,2.521,0,0,0,1.622-.47,1.611,1.611,0,0,0,.584-1.332,1.633,1.633,0,0,0-.541-1.371A2.73,2.73,0,0,0,86.7-11H84.542Z" transform="translate(741 10066.375)" fill="#12263f"/>
    <path id="Trazado_172825" data-name="Trazado 172825" d="M0,0H205.282V42.353H0Z" transform="translate(926.359 10040.646)" fill="#26cb99"/>
    <path id="Trazado_166281" data-name="Trazado 166281" d="M316.772,349.737H111.49l26-18.271H342.772Z" transform="translate(814.869 9690.91)" fill="#95ebd1"/>
    <path id="Trazado_172826" data-name="Trazado 172826" d="M8.464-2.979H3.507L2.47,0H.158L4.992-12.8h2L11.83,0H9.51ZM4.131-4.772H7.84L5.985-10.081Zm8.543-.053a5.654,5.654,0,0,1,1.02-3.529,3.267,3.267,0,0,1,2.733-1.332A3.1,3.1,0,0,1,18.87-8.631V-13.5h2.136V0H19.072l-.105-.984A3.148,3.148,0,0,1,16.409.176a3.248,3.248,0,0,1-2.7-1.345A5.861,5.861,0,0,1,12.674-4.825Zm2.136.185a3.958,3.958,0,0,0,.558,2.263,1.811,1.811,0,0,0,1.586.813A2.017,2.017,0,0,0,18.87-2.733V-6.794a1.986,1.986,0,0,0-1.9-1.143,1.824,1.824,0,0,0-1.6.822A4.408,4.408,0,0,0,14.81-4.641ZM25.242-9.51l.062.993a3.422,3.422,0,0,1,2.742-1.169,2.629,2.629,0,0,1,2.61,1.459,3.373,3.373,0,0,1,2.918-1.459,2.965,2.965,0,0,1,2.342.87A3.831,3.831,0,0,1,36.7-6.249V0H34.567V-6.187a1.891,1.891,0,0,0-.4-1.327,1.731,1.731,0,0,0-1.31-.422,1.778,1.778,0,0,0-1.191.391,2.063,2.063,0,0,0-.646,1.024L31.034,0H28.9V-6.258a1.523,1.523,0,0,0-1.714-1.679,1.88,1.88,0,0,0-1.819,1.046V0H23.229V-9.51ZM41.168,0H39.032V-9.51h2.136ZM38.9-11.979a1.133,1.133,0,0,1,.312-.817,1.179,1.179,0,0,1,.892-.325,1.193,1.193,0,0,1,.9.325,1.125,1.125,0,0,1,.316.817,1.1,1.1,0,0,1-.316.8,1.2,1.2,0,0,1-.9.321,1.188,1.188,0,0,1-.892-.321A1.107,1.107,0,0,1,38.9-11.979Zm6.574,2.47.062,1.1A3.419,3.419,0,0,1,48.3-9.686q2.971,0,3.023,3.4V0H49.192V-6.161A1.958,1.958,0,0,0,48.8-7.5a1.645,1.645,0,0,0-1.279-.435A2.058,2.058,0,0,0,45.6-6.768V0H43.462V-9.51ZM58.588,1.1H56.909l5.036-13.9h1.679Zm18.58-6.521h-5.15V0H69.794V-12.8h8.13V-11H72.018V-7.2h5.15ZM81.747,0H79.611V-9.51h2.136ZM79.479-11.979a1.133,1.133,0,0,1,.312-.817,1.179,1.179,0,0,1,.892-.325,1.193,1.193,0,0,1,.9.325,1.125,1.125,0,0,1,.316.817,1.1,1.1,0,0,1-.316.8,1.2,1.2,0,0,1-.9.321,1.188,1.188,0,0,1-.892-.321A1.107,1.107,0,0,1,79.479-11.979Zm6.574,2.47.062,1.1a3.419,3.419,0,0,1,2.769-1.274q2.971,0,3.023,3.4V0H89.771V-6.161A1.958,1.958,0,0,0,89.38-7.5,1.645,1.645,0,0,0,88.1-7.937a2.058,2.058,0,0,0-1.925,1.169V0H84.041V-9.51Z" transform="translate(983 10066.375)" fill="#12263f"/>
    <path id="Trazado_166282" data-name="Trazado 166282" d="M316.772,392.089l26-21.176V331.466l-26,18.271Z" transform="translate(814.869 9690.91)" fill="#118e68"/>
    <path id="Trazado_172816" data-name="Trazado 172816" d="M0,0H590.743V42.353H0Z" transform="translate(478.857 10156.646)" fill="#3579bf"/>
    <path id="Trazado_166283" data-name="Trazado 166283" d="M316.772,392.089l26-21.176V331.466l-26,18.271Z" transform="translate(752.829 9806.91)" fill="#2b5f94"/>
    <path id="Trazado_166284" data-name="Trazado 166284" d="M316.772,349.737h-591.2l26-18.271h591.2Z" transform="translate(752.829 9806.91)" fill="#5993cc"/>
    <path id="Trazado_172818" data-name="Trazado 172818" d="M1.3,0V-12.8H5.687a5.354,5.354,0,0,1,3.3.87,3.065,3.065,0,0,1,1.134,2.593A2.763,2.763,0,0,1,9.65-7.752a3.055,3.055,0,0,1-1.389,1.09A2.825,2.825,0,0,1,9.866-5.6a3.085,3.085,0,0,1,.567,1.868A3.407,3.407,0,0,1,9.277-.967,5.025,5.025,0,0,1,5.968,0ZM3.524-5.774v4h2.47a2.39,2.39,0,0,0,1.635-.519,1.82,1.82,0,0,0,.589-1.441A1.826,1.826,0,0,0,6.179-5.774Zm0-1.635H5.7a2.521,2.521,0,0,0,1.622-.47A1.611,1.611,0,0,0,7.91-9.211a1.633,1.633,0,0,0-.541-1.371A2.73,2.73,0,0,0,5.687-11H3.524ZM18.211-.932A3.312,3.312,0,0,1,15.539.176,2.952,2.952,0,0,1,13.2-.729a3.851,3.851,0,0,1-.8-2.619V-9.51h2.136v6.135q0,1.811,1.5,1.811a2.111,2.111,0,0,0,2.1-1.116V-9.51h2.136V0H18.264Zm9.571-1.652a.968.968,0,0,0-.47-.87,5,5,0,0,0-1.56-.527,8.02,8.02,0,0,1-1.819-.58,2.428,2.428,0,0,1-1.6-2.241A2.531,2.531,0,0,1,23.37-8.859a4.1,4.1,0,0,1,2.637-.826,4.266,4.266,0,0,1,2.755.844,2.677,2.677,0,0,1,1.05,2.188H27.677a1.316,1.316,0,0,0-.457-1.024,1.752,1.752,0,0,0-1.213-.409,1.893,1.893,0,0,0-1.147.325,1.025,1.025,0,0,0-.444.87.866.866,0,0,0,.413.765,5.68,5.68,0,0,0,1.67.549,7.9,7.9,0,0,1,1.973.659A2.794,2.794,0,0,1,29.536-4a2.342,2.342,0,0,1,.347,1.3A2.478,2.478,0,0,1,28.819-.62a4.535,4.535,0,0,1-2.786.8A4.917,4.917,0,0,1,23.95-.246a3.428,3.428,0,0,1-1.424-1.16A2.746,2.746,0,0,1,22.017-3h2.074a1.5,1.5,0,0,0,.571,1.165,2.22,2.22,0,0,0,1.4.409,2.16,2.16,0,0,0,1.283-.321A.993.993,0,0,0,27.782-2.584ZM38.777,0H36.563V-12.8h2.215Zm4.509-9.51.062,1.1a3.419,3.419,0,0,1,2.769-1.274q2.971,0,3.023,3.4V0H47V-6.161a1.958,1.958,0,0,0-.391-1.34,1.645,1.645,0,0,0-1.279-.435,2.058,2.058,0,0,0-1.925,1.169V0H41.273V-9.51ZM52.066,0V-7.928h-1.45V-9.51h1.45v-.87a3.266,3.266,0,0,1,.879-2.443,3.367,3.367,0,0,1,2.461-.861,4.936,4.936,0,0,1,1.2.158l-.053,1.67a4.207,4.207,0,0,0-.817-.07A1.371,1.371,0,0,0,54.2-10.354v.844h1.934v1.582H54.2V0ZM57.3-4.843a5.607,5.607,0,0,1,.554-2.518,4.044,4.044,0,0,1,1.556-1.723,4.383,4.383,0,0,1,2.3-.6,4.154,4.154,0,0,1,3.125,1.239,4.874,4.874,0,0,1,1.3,3.287l.009.5A5.658,5.658,0,0,1,65.6-2.145,4,4,0,0,1,64.05-.431a4.415,4.415,0,0,1-2.325.606A4.125,4.125,0,0,1,58.5-1.165,5.133,5.133,0,0,1,57.3-4.737Zm2.136.185a3.832,3.832,0,0,0,.606,2.3,1.971,1.971,0,0,0,1.688.831,1.95,1.95,0,0,0,1.683-.844,4.232,4.232,0,0,0,.6-2.47,3.782,3.782,0,0,0-.62-2.285,1.979,1.979,0,0,0-1.683-.844,1.96,1.96,0,0,0-1.661.831A4.152,4.152,0,0,0,59.432-4.658Zm13.491-2.9a5.285,5.285,0,0,0-.87-.07A1.959,1.959,0,0,0,70.075-6.5V0H67.939V-9.51h2.039l.053,1.063a2.406,2.406,0,0,1,2.145-1.239,2,2,0,0,1,.756.123ZM76.28-9.51l.062.993a3.422,3.422,0,0,1,2.742-1.169,2.629,2.629,0,0,1,2.61,1.459,3.373,3.373,0,0,1,2.918-1.459,2.965,2.965,0,0,1,2.342.87,3.831,3.831,0,0,1,.787,2.566V0H85.605V-6.187a1.891,1.891,0,0,0-.4-1.327,1.731,1.731,0,0,0-1.31-.422,1.778,1.778,0,0,0-1.191.391,2.063,2.063,0,0,0-.646,1.024L82.072,0H79.937V-6.258a1.523,1.523,0,0,0-1.714-1.679A1.88,1.88,0,0,0,76.4-6.891V0H74.268V-9.51ZM95.616,0a3.3,3.3,0,0,1-.246-.888,3.325,3.325,0,0,1-2.5,1.063,3.355,3.355,0,0,1-2.338-.817,2.615,2.615,0,0,1-.905-2.021A2.7,2.7,0,0,1,90.76-5a5.473,5.473,0,0,1,3.23-.813H95.3v-.624a1.666,1.666,0,0,0-.413-1.182A1.638,1.638,0,0,0,93.63-8.06a1.881,1.881,0,0,0-1.2.365,1.129,1.129,0,0,0-.466.927H89.833a2.37,2.37,0,0,1,.519-1.463A3.455,3.455,0,0,1,91.762-9.3a4.955,4.955,0,0,1,1.991-.387,3.99,3.99,0,0,1,2.663.839,2.993,2.993,0,0,1,1.02,2.36V-2.2A4.861,4.861,0,0,0,97.8-.149V0ZM93.27-1.538a2.429,2.429,0,0,0,1.191-.308,2.055,2.055,0,0,0,.839-.826V-4.465H94.148a3.148,3.148,0,0,0-1.784.413,1.338,1.338,0,0,0-.6,1.169,1.248,1.248,0,0,0,.409.98A1.583,1.583,0,0,0,93.27-1.538ZM94.456-13.5h2.435l-2.435,2.663H92.742Zm7.893,1.679V-9.51h1.679v1.582h-1.679v5.309a1.169,1.169,0,0,0,.215.787,1,1,0,0,0,.769.242,3.29,3.29,0,0,0,.747-.088V-.026a5.26,5.26,0,0,1-1.406.2q-2.461,0-2.461-2.716V-7.928H98.648V-9.51h1.564v-2.312ZM107.93,0h-2.136V-9.51h2.136Zm-2.268-11.979a1.133,1.133,0,0,1,.312-.817,1.179,1.179,0,0,1,.892-.325,1.193,1.193,0,0,1,.9.325,1.125,1.125,0,0,1,.316.817,1.1,1.1,0,0,1-.316.8,1.2,1.2,0,0,1-.9.321,1.188,1.188,0,0,1-.892-.321A1.107,1.107,0,0,1,105.662-11.979Zm8.5,10.45A1.931,1.931,0,0,0,115.488-2a1.591,1.591,0,0,0,.563-1.151h2.013a3.137,3.137,0,0,1-.554,1.657A3.632,3.632,0,0,1,116.1-.272a4.191,4.191,0,0,1-1.916.448,4.055,4.055,0,0,1-3.164-1.292,5.124,5.124,0,0,1-1.169-3.568V-4.9a5.039,5.039,0,0,1,1.16-3.476,4.018,4.018,0,0,1,3.164-1.305,3.907,3.907,0,0,1,2.764.989,3.542,3.542,0,0,1,1.121,2.6h-2.013a1.956,1.956,0,0,0-.558-1.345,1.8,1.8,0,0,0-1.332-.527,1.879,1.879,0,0,0-1.6.751,3.834,3.834,0,0,0-.571,2.281V-4.6a3.9,3.9,0,0,0,.558,2.307A1.878,1.878,0,0,0,114.161-1.529Zm5.115-3.313a5.607,5.607,0,0,1,.554-2.518,4.044,4.044,0,0,1,1.556-1.723,4.383,4.383,0,0,1,2.3-.6,4.154,4.154,0,0,1,3.125,1.239,4.874,4.874,0,0,1,1.3,3.287l.009.5a5.658,5.658,0,0,1-.541,2.514,4,4,0,0,1-1.547,1.714,4.415,4.415,0,0,1-2.325.606,4.125,4.125,0,0,1-3.221-1.34,5.133,5.133,0,0,1-1.208-3.573Zm2.136.185a3.832,3.832,0,0,0,.606,2.3,1.971,1.971,0,0,0,1.688.831,1.95,1.95,0,0,0,1.683-.844,4.232,4.232,0,0,0,.6-2.47,3.782,3.782,0,0,0-.62-2.285,1.979,1.979,0,0,0-1.683-.844,1.96,1.96,0,0,0-1.661.831A4.152,4.152,0,0,0,121.412-4.658Z" transform="translate(726.291 10184.323)" fill="#fff"/>
    <path id="Trazado_172827" data-name="Trazado 172827" d="M0,0H205.282V42.353H0Z" transform="translate(442.359 10269.646)" fill="#e8d43a"/>
    <path id="Trazado_166285" data-name="Trazado 166285" d="M316.772,392.089l26-21.176V331.466l-26,18.271Z" transform="translate(330.869 9919.91)" fill="#ebe5b2"/>
    <path id="Trazado_166286" data-name="Trazado 166286" d="M316.772,349.737H111.49l26-18.271H342.772Z" transform="translate(330.869 9919.91)" fill="#f0e489"/>
    <path id="Trazado_172831" data-name="Trazado 172831" d="M8.464-2.979H3.507L2.47,0H.158L4.992-12.8h2L11.83,0H9.51ZM4.131-4.772H7.84L5.985-10.081ZM15.346,0H13.21V-13.5h2.136Zm4.333-9.51.062.993a3.422,3.422,0,0,1,2.742-1.169,2.629,2.629,0,0,1,2.61,1.459,3.373,3.373,0,0,1,2.918-1.459,2.965,2.965,0,0,1,2.342.87,3.831,3.831,0,0,1,.787,2.566V0H29V-6.187a1.891,1.891,0,0,0-.4-1.327,1.731,1.731,0,0,0-1.31-.422,1.778,1.778,0,0,0-1.191.391,2.063,2.063,0,0,0-.646,1.024L25.471,0H23.335V-6.258a1.523,1.523,0,0,0-1.714-1.679A1.88,1.88,0,0,0,19.8-6.891V0H17.666V-9.51ZM39.015,0a3.3,3.3,0,0,1-.246-.888,3.325,3.325,0,0,1-2.5,1.063,3.355,3.355,0,0,1-2.338-.817,2.615,2.615,0,0,1-.905-2.021A2.7,2.7,0,0,1,34.159-5a5.473,5.473,0,0,1,3.23-.813H38.7v-.624a1.666,1.666,0,0,0-.413-1.182,1.638,1.638,0,0,0-1.257-.444,1.881,1.881,0,0,0-1.2.365,1.129,1.129,0,0,0-.466.927H33.231a2.37,2.37,0,0,1,.519-1.463A3.455,3.455,0,0,1,35.161-9.3a4.955,4.955,0,0,1,1.991-.387,3.99,3.99,0,0,1,2.663.839,2.993,2.993,0,0,1,1.02,2.36V-2.2a4.861,4.861,0,0,0,.36,2.048V0ZM36.668-1.538a2.429,2.429,0,0,0,1.191-.308,2.055,2.055,0,0,0,.839-.826V-4.465H37.547a3.148,3.148,0,0,0-1.784.413,1.338,1.338,0,0,0-.6,1.169,1.248,1.248,0,0,0,.409.98A1.583,1.583,0,0,0,36.668-1.538Zm10.31.009A1.931,1.931,0,0,0,48.3-2a1.591,1.591,0,0,0,.563-1.151H50.88a3.137,3.137,0,0,1-.554,1.657A3.632,3.632,0,0,1,48.92-.272,4.191,4.191,0,0,1,47,.176,4.055,4.055,0,0,1,43.84-1.116a5.124,5.124,0,0,1-1.169-3.568V-4.9a5.039,5.039,0,0,1,1.16-3.476A4.018,4.018,0,0,1,47-9.686a3.907,3.907,0,0,1,2.764.989A3.542,3.542,0,0,1,50.88-6.1H48.867a1.956,1.956,0,0,0-.558-1.345,1.8,1.8,0,0,0-1.332-.527,1.879,1.879,0,0,0-1.6.751,3.834,3.834,0,0,0-.571,2.281V-4.6a3.9,3.9,0,0,0,.558,2.307A1.878,1.878,0,0,0,46.978-1.529Zm9.7,1.705A4.419,4.419,0,0,1,53.389-1.1a4.639,4.639,0,0,1-1.261-3.406v-.264a5.706,5.706,0,0,1,.549-2.544A4.181,4.181,0,0,1,54.22-9.062a4.078,4.078,0,0,1,2.215-.624,3.733,3.733,0,0,1,3,1.239A5.24,5.24,0,0,1,60.5-4.939v.861H54.281a2.856,2.856,0,0,0,.787,1.863,2.362,2.362,0,0,0,1.736.686,2.892,2.892,0,0,0,2.391-1.187l1.151,1.1A3.845,3.845,0,0,1,58.821-.294,4.774,4.774,0,0,1,56.681.176Zm-.255-8.147a1.8,1.8,0,0,0-1.419.615,3.189,3.189,0,0,0-.69,1.714h4.069V-5.8a2.6,2.6,0,0,0-.571-1.622A1.785,1.785,0,0,0,56.426-7.972Zm.483-5.528h2.435l-2.435,2.663H55.2Zm7.225,3.99.062,1.1a3.419,3.419,0,0,1,2.769-1.274q2.971,0,3.023,3.4V0H67.852V-6.161A1.958,1.958,0,0,0,67.46-7.5a1.645,1.645,0,0,0-1.279-.435,2.058,2.058,0,0,0-1.925,1.169V0H62.121V-9.51Z" transform="translate(499 10295.375)" fill="#12263f"/>
    <path id="Trazado_172828" data-name="Trazado 172828" d="M0,0H205.282V42.353H0Z" transform="translate(684.359 10269.646)" fill="#ce6666"/>
    <path id="Trazado_166287" data-name="Trazado 166287" d="M316.772,392.089l26-21.176V331.466l-26,18.271Z" transform="translate(572.869 9919.91)" fill="#d67575"/>
    <path id="Trazado_166288" data-name="Trazado 166288" d="M316.772,349.737H111.49l26-18.271H342.772Z" transform="translate(572.869 9919.91)" fill="#eb9595"/>
    <path id="Trazado_172829" data-name="Trazado 172829" d="M7.989-3.3A1.545,1.545,0,0,0,7.4-4.6a7.138,7.138,0,0,0-2.14-.923A10.335,10.335,0,0,1,2.795-6.557,3.284,3.284,0,0,1,1.046-9.422a3.118,3.118,0,0,1,1.261-2.549,5.1,5.1,0,0,1,3.274-1,5.53,5.53,0,0,1,2.382.492,3.909,3.909,0,0,1,1.644,1.4,3.6,3.6,0,0,1,.6,2.017H7.989a2.005,2.005,0,0,0-.628-1.569,2.594,2.594,0,0,0-1.8-.567,2.709,2.709,0,0,0-1.692.466,1.551,1.551,0,0,0-.6,1.3,1.4,1.4,0,0,0,.65,1.173,7.493,7.493,0,0,0,2.145.914,9.865,9.865,0,0,1,2.4,1.011,3.816,3.816,0,0,1,1.327,1.3,3.388,3.388,0,0,1,.422,1.718A3.045,3.045,0,0,1,8.987-.769,5.318,5.318,0,0,1,5.66.176,6.251,6.251,0,0,1,3.107-.338,4.289,4.289,0,0,1,1.3-1.758,3.537,3.537,0,0,1,.65-3.867H2.874A2.07,2.07,0,0,0,3.595-2.18a3.156,3.156,0,0,0,2.065.6A2.742,2.742,0,0,0,7.4-2.052,1.517,1.517,0,0,0,7.989-3.3ZM16.146.176A4.419,4.419,0,0,1,12.854-1.1a4.639,4.639,0,0,1-1.261-3.406v-.264a5.706,5.706,0,0,1,.549-2.544,4.181,4.181,0,0,1,1.542-1.745A4.078,4.078,0,0,1,15.9-9.686a3.733,3.733,0,0,1,3,1.239A5.24,5.24,0,0,1,19.96-4.939v.861H13.746a2.856,2.856,0,0,0,.787,1.863,2.362,2.362,0,0,0,1.736.686,2.892,2.892,0,0,0,2.391-1.187l1.151,1.1A3.845,3.845,0,0,1,18.286-.294,4.774,4.774,0,0,1,16.146.176Zm-.255-8.147a1.8,1.8,0,0,0-1.419.615,3.189,3.189,0,0,0-.69,1.714h4.069V-5.8a2.6,2.6,0,0,0-.571-1.622A1.785,1.785,0,0,0,15.891-7.972ZM26.6-7.559a5.285,5.285,0,0,0-.87-.07A1.959,1.959,0,0,0,23.748-6.5V0H21.612V-9.51h2.039L23.7-8.446a2.406,2.406,0,0,1,2.145-1.239,2,2,0,0,1,.756.123Zm4.86,4.852,2.013-6.8h2.206L32.379,0H30.524L27.2-9.51h2.215ZM39.278,0H37.143V-9.51h2.136ZM37.011-11.979a1.133,1.133,0,0,1,.312-.817,1.179,1.179,0,0,1,.892-.325,1.193,1.193,0,0,1,.9.325,1.125,1.125,0,0,1,.316.817,1.1,1.1,0,0,1-.316.8,1.2,1.2,0,0,1-.9.321,1.188,1.188,0,0,1-.892-.321A1.107,1.107,0,0,1,37.011-11.979Zm8.5,10.45A1.931,1.931,0,0,0,46.837-2,1.591,1.591,0,0,0,47.4-3.146h2.013a3.137,3.137,0,0,1-.554,1.657A3.632,3.632,0,0,1,47.452-.272a4.191,4.191,0,0,1-1.916.448,4.055,4.055,0,0,1-3.164-1.292A5.124,5.124,0,0,1,41.2-4.685V-4.9a5.039,5.039,0,0,1,1.16-3.476,4.018,4.018,0,0,1,3.164-1.305,3.907,3.907,0,0,1,2.764.989,3.542,3.542,0,0,1,1.121,2.6H47.4a1.956,1.956,0,0,0-.558-1.345,1.8,1.8,0,0,0-1.332-.527,1.879,1.879,0,0,0-1.6.751,3.834,3.834,0,0,0-.571,2.281V-4.6A3.9,3.9,0,0,0,43.9-2.29,1.878,1.878,0,0,0,45.51-1.529ZM53.3,0H51.161V-9.51H53.3ZM51.029-11.979a1.133,1.133,0,0,1,.312-.817,1.179,1.179,0,0,1,.892-.325,1.193,1.193,0,0,1,.9.325,1.125,1.125,0,0,1,.316.817,1.1,1.1,0,0,1-.316.8,1.2,1.2,0,0,1-.9.321,1.188,1.188,0,0,1-.892-.321A1.107,1.107,0,0,1,51.029-11.979Zm4.192,7.137a5.607,5.607,0,0,1,.554-2.518,4.044,4.044,0,0,1,1.556-1.723,4.383,4.383,0,0,1,2.3-.6,4.154,4.154,0,0,1,3.125,1.239,4.874,4.874,0,0,1,1.3,3.287l.009.5a5.658,5.658,0,0,1-.541,2.514A4,4,0,0,1,61.976-.431a4.415,4.415,0,0,1-2.325.606,4.125,4.125,0,0,1-3.221-1.34,5.133,5.133,0,0,1-1.208-3.573Zm2.136.185a3.832,3.832,0,0,0,.606,2.3,1.971,1.971,0,0,0,1.688.831,1.95,1.95,0,0,0,1.683-.844,4.232,4.232,0,0,0,.6-2.47,3.782,3.782,0,0,0-.62-2.285,1.979,1.979,0,0,0-1.683-.844,1.96,1.96,0,0,0-1.661.831A4.152,4.152,0,0,0,57.357-4.658ZM79.277-11h-3.99V0H73.081V-11H69.126V-12.8H79.277Zm-.756,6.161a5.607,5.607,0,0,1,.554-2.518,4.044,4.044,0,0,1,1.556-1.723,4.383,4.383,0,0,1,2.3-.6,4.154,4.154,0,0,1,3.125,1.239,4.874,4.874,0,0,1,1.3,3.287l.009.5a5.658,5.658,0,0,1-.541,2.514A4,4,0,0,1,85.276-.431a4.415,4.415,0,0,1-2.325.606,4.125,4.125,0,0,1-3.221-1.34,5.133,5.133,0,0,1-1.208-3.573Zm2.136.185a3.832,3.832,0,0,0,.606,2.3,1.971,1.971,0,0,0,1.688.831,1.95,1.95,0,0,0,1.683-.844,4.232,4.232,0,0,0,.6-2.47,3.782,3.782,0,0,0-.62-2.285,1.979,1.979,0,0,0-1.683-.844,1.96,1.96,0,0,0-1.661.831A4.152,4.152,0,0,0,80.657-4.658ZM91.178-9.51l.062.993a3.422,3.422,0,0,1,2.742-1.169,2.629,2.629,0,0,1,2.61,1.459A3.373,3.373,0,0,1,99.51-9.686a2.965,2.965,0,0,1,2.342.87,3.831,3.831,0,0,1,.787,2.566V0H100.5V-6.187a1.891,1.891,0,0,0-.4-1.327,1.731,1.731,0,0,0-1.31-.422,1.778,1.778,0,0,0-1.191.391,2.063,2.063,0,0,0-.646,1.024L96.97,0H94.834V-6.258A1.523,1.523,0,0,0,93.12-7.937,1.88,1.88,0,0,0,91.3-6.891V0H89.165V-9.51ZM110.514,0a3.3,3.3,0,0,1-.246-.888,3.325,3.325,0,0,1-2.5,1.063,3.355,3.355,0,0,1-2.338-.817,2.615,2.615,0,0,1-.905-2.021A2.7,2.7,0,0,1,105.658-5a5.473,5.473,0,0,1,3.23-.813h1.31v-.624a1.666,1.666,0,0,0-.413-1.182,1.638,1.638,0,0,0-1.257-.444,1.881,1.881,0,0,0-1.2.365,1.129,1.129,0,0,0-.466.927H104.73a2.37,2.37,0,0,1,.519-1.463A3.455,3.455,0,0,1,106.66-9.3a4.955,4.955,0,0,1,1.991-.387,3.99,3.99,0,0,1,2.663.839,2.993,2.993,0,0,1,1.02,2.36V-2.2a4.861,4.861,0,0,0,.36,2.048V0Zm-2.347-1.538a2.429,2.429,0,0,0,1.191-.308,2.055,2.055,0,0,0,.839-.826V-4.465h-1.151a3.148,3.148,0,0,0-1.784.413,1.338,1.338,0,0,0-.6,1.169,1.248,1.248,0,0,0,.409.98A1.583,1.583,0,0,0,108.167-1.538ZM19.934,12.415a5.654,5.654,0,0,1,1.02-3.529,3.267,3.267,0,0,1,2.733-1.332A3.1,3.1,0,0,1,26.13,8.609V3.74h2.136v13.5H26.333l-.105-.984a3.148,3.148,0,0,1-2.558,1.16,3.248,3.248,0,0,1-2.7-1.345A5.861,5.861,0,0,1,19.934,12.415Zm2.136.185a3.958,3.958,0,0,0,.558,2.263,1.811,1.811,0,0,0,1.586.813,2.017,2.017,0,0,0,1.916-1.169V10.446a1.986,1.986,0,0,0-1.9-1.143,1.824,1.824,0,0,0-1.6.822A4.408,4.408,0,0,0,22.07,12.6Zm12.612,4.816a4.419,4.419,0,0,1-3.292-1.279,4.639,4.639,0,0,1-1.261-3.406v-.264a5.706,5.706,0,0,1,.549-2.544,4.181,4.181,0,0,1,1.542-1.745,4.078,4.078,0,0,1,2.215-.624,3.733,3.733,0,0,1,3,1.239A5.24,5.24,0,0,1,38.5,12.3v.861H32.283a2.856,2.856,0,0,0,.787,1.863,2.362,2.362,0,0,0,1.736.686A2.892,2.892,0,0,0,37.2,14.524l1.151,1.1a3.845,3.845,0,0,1-1.525,1.323A4.774,4.774,0,0,1,34.682,17.416Zm-.255-8.147a1.8,1.8,0,0,0-1.419.615,3.189,3.189,0,0,0-.69,1.714h4.069v-.158a2.6,2.6,0,0,0-.571-1.622A1.785,1.785,0,0,0,34.427,9.268ZM44.842,17.24V4.443h3.779a5.928,5.928,0,0,1,3.01.756,5.154,5.154,0,0,1,2.035,2.145,6.807,6.807,0,0,1,.721,3.182v.642a6.779,6.779,0,0,1-.725,3.2A5.092,5.092,0,0,1,51.6,16.493a6.2,6.2,0,0,1-3.072.747Zm2.224-11v9.229h1.45A3.339,3.339,0,0,0,51.2,14.37a4.766,4.766,0,0,0,.954-3.142v-.712a4.891,4.891,0,0,0-.905-3.182,3.209,3.209,0,0,0-2.628-1.1Zm15.012,11a3.3,3.3,0,0,1-.246-.888A3.593,3.593,0,0,1,57,16.6a2.615,2.615,0,0,1-.905-2.021,2.7,2.7,0,0,1,1.129-2.333,5.473,5.473,0,0,1,3.23-.813h1.31v-.624a1.666,1.666,0,0,0-.413-1.182,1.638,1.638,0,0,0-1.257-.444,1.881,1.881,0,0,0-1.2.365,1.129,1.129,0,0,0-.466.927H56.294a2.37,2.37,0,0,1,.519-1.463,3.455,3.455,0,0,1,1.411-1.068,4.955,4.955,0,0,1,1.991-.387,3.99,3.99,0,0,1,2.663.839,2.993,2.993,0,0,1,1.02,2.36v4.289a4.861,4.861,0,0,0,.36,2.048v.149ZM59.731,15.7a2.429,2.429,0,0,0,1.191-.308,2.055,2.055,0,0,0,.839-.826V12.775H60.61a3.148,3.148,0,0,0-1.784.413,1.338,1.338,0,0,0-.6,1.169,1.248,1.248,0,0,0,.409.98A1.583,1.583,0,0,0,59.731,15.7ZM68.81,5.418V7.73h1.679V9.312H68.81v5.309a1.169,1.169,0,0,0,.215.787,1,1,0,0,0,.769.242,3.29,3.29,0,0,0,.747-.088v1.652a5.26,5.26,0,0,1-1.406.2q-2.461,0-2.461-2.716V9.312H65.11V7.73h1.564V5.418ZM71.456,12.4a5.607,5.607,0,0,1,.554-2.518,4.044,4.044,0,0,1,1.556-1.723,4.383,4.383,0,0,1,2.3-.6,4.154,4.154,0,0,1,3.125,1.239,4.874,4.874,0,0,1,1.3,3.287l.009.5a5.658,5.658,0,0,1-.541,2.514,4,4,0,0,1-1.547,1.714,4.415,4.415,0,0,1-2.325.606,4.125,4.125,0,0,1-3.221-1.34A5.133,5.133,0,0,1,71.456,12.5Zm2.136.185a3.832,3.832,0,0,0,.606,2.3,1.971,1.971,0,0,0,1.688.831,1.95,1.95,0,0,0,1.683-.844,4.232,4.232,0,0,0,.6-2.47,3.782,3.782,0,0,0-.62-2.285,2.089,2.089,0,0,0-3.344-.013A4.152,4.152,0,0,0,73.591,12.582Zm13.843,2.074a.968.968,0,0,0-.47-.87,5,5,0,0,0-1.56-.527,8.02,8.02,0,0,1-1.819-.58,2.428,2.428,0,0,1-1.6-2.241A2.531,2.531,0,0,1,83.022,8.38a4.1,4.1,0,0,1,2.637-.826,4.266,4.266,0,0,1,2.755.844,2.677,2.677,0,0,1,1.05,2.188H87.329a1.316,1.316,0,0,0-.457-1.024,1.752,1.752,0,0,0-1.213-.409,1.893,1.893,0,0,0-1.147.325,1.025,1.025,0,0,0-.444.87.866.866,0,0,0,.413.765,5.68,5.68,0,0,0,1.67.549,7.9,7.9,0,0,1,1.973.659,2.794,2.794,0,0,1,1.063.918,2.342,2.342,0,0,1,.347,1.3,2.478,2.478,0,0,1-1.063,2.079,4.535,4.535,0,0,1-2.786.8,4.917,4.917,0,0,1-2.083-.422,3.428,3.428,0,0,1-1.424-1.16,2.746,2.746,0,0,1-.51-1.591h2.074a1.5,1.5,0,0,0,.571,1.165,2.22,2.22,0,0,0,1.4.409,2.16,2.16,0,0,0,1.283-.321A.993.993,0,0,0,87.434,14.656Z" transform="translate(738.014 10288.323)" fill="#12263f"/>
    <path id="Trazado_172830" data-name="Trazado 172830" d="M0,0H205.282V42.353H0Z" transform="translate(926.359 10269.646)" fill="#26cb99"/>
    <path id="Trazado_166289" data-name="Trazado 166289" d="M316.772,349.737H111.49l26-18.271H342.772Z" transform="translate(814.869 9919.91)" fill="#95ebd1"/>
    <path id="Trazado_172832" data-name="Trazado 172832" d="M11.514-6.064a7.851,7.851,0,0,1-.65,3.3A4.918,4.918,0,0,1,9-.584a5.113,5.113,0,0,1-2.782.76A5.125,5.125,0,0,1,3.45-.584,4.993,4.993,0,0,1,1.569-2.751,7.606,7.606,0,0,1,.9-5.994v-.721a7.784,7.784,0,0,1,.664-3.3,4.987,4.987,0,0,1,1.872-2.193,5.1,5.1,0,0,1,2.773-.76,5.142,5.142,0,0,1,2.773.751,4.924,4.924,0,0,1,1.868,2.162,7.767,7.767,0,0,1,.668,3.283ZM9.29-6.732a5.594,5.594,0,0,0-.8-3.261,2.631,2.631,0,0,0-2.281-1.134A2.623,2.623,0,0,0,3.951-10,5.486,5.486,0,0,0,3.12-6.8v.738A5.552,5.552,0,0,0,3.942-2.8,2.646,2.646,0,0,0,6.223-1.652,2.615,2.615,0,0,0,8.495-2.777a5.671,5.671,0,0,0,.8-3.287ZM16.2-11.821V-9.51h1.679v1.582H16.2v5.309a1.169,1.169,0,0,0,.215.787,1,1,0,0,0,.769.242,3.29,3.29,0,0,0,.747-.088V-.026a5.26,5.26,0,0,1-1.406.2q-2.461,0-2.461-2.716V-7.928H12.5V-9.51h1.564v-2.312Zm8.288,4.263a5.285,5.285,0,0,0-.87-.07A1.959,1.959,0,0,0,21.639-6.5V0H19.5V-9.51h2.039l.053,1.063a2.406,2.406,0,0,1,2.145-1.239,2,2,0,0,1,.756.123Zm.633,2.716a5.607,5.607,0,0,1,.554-2.518,4.044,4.044,0,0,1,1.556-1.723,4.383,4.383,0,0,1,2.3-.6,4.154,4.154,0,0,1,3.125,1.239,4.874,4.874,0,0,1,1.3,3.287l.009.5a5.658,5.658,0,0,1-.541,2.514A4,4,0,0,1,31.874-.431a4.415,4.415,0,0,1-2.325.606,4.125,4.125,0,0,1-3.221-1.34,5.133,5.133,0,0,1-1.208-3.573Zm2.136.185a3.832,3.832,0,0,0,.606,2.3,1.971,1.971,0,0,0,1.688.831,1.95,1.95,0,0,0,1.683-.844,4.232,4.232,0,0,0,.6-2.47,3.782,3.782,0,0,0-.62-2.285,1.979,1.979,0,0,0-1.683-.844,1.96,1.96,0,0,0-1.661.831A4.152,4.152,0,0,0,27.255-4.658ZM41.1-2.584a.968.968,0,0,0-.47-.87,5,5,0,0,0-1.56-.527,8.02,8.02,0,0,1-1.819-.58,2.428,2.428,0,0,1-1.6-2.241,2.531,2.531,0,0,1,1.037-2.057,4.1,4.1,0,0,1,2.637-.826,4.266,4.266,0,0,1,2.755.844,2.677,2.677,0,0,1,1.05,2.188H40.992a1.316,1.316,0,0,0-.457-1.024,1.752,1.752,0,0,0-1.213-.409,1.893,1.893,0,0,0-1.147.325,1.025,1.025,0,0,0-.444.87.866.866,0,0,0,.413.765,5.68,5.68,0,0,0,1.67.549,7.9,7.9,0,0,1,1.973.659A2.794,2.794,0,0,1,42.851-4,2.342,2.342,0,0,1,43.2-2.7,2.478,2.478,0,0,1,42.135-.62a4.535,4.535,0,0,1-2.786.8,4.917,4.917,0,0,1-2.083-.422,3.428,3.428,0,0,1-1.424-1.16A2.746,2.746,0,0,1,35.332-3h2.074a1.5,1.5,0,0,0,.571,1.165,2.22,2.22,0,0,0,1.4.409,2.16,2.16,0,0,0,1.283-.321A.993.993,0,0,0,41.1-2.584ZM56.435-3.3a1.545,1.545,0,0,0-.593-1.3A7.138,7.138,0,0,0,53.7-5.52,10.335,10.335,0,0,1,51.24-6.557a3.284,3.284,0,0,1-1.749-2.865,3.118,3.118,0,0,1,1.261-2.549,5.1,5.1,0,0,1,3.274-1,5.53,5.53,0,0,1,2.382.492,3.909,3.909,0,0,1,1.644,1.4,3.6,3.6,0,0,1,.6,2.017H56.435a2.005,2.005,0,0,0-.628-1.569,2.594,2.594,0,0,0-1.8-.567,2.709,2.709,0,0,0-1.692.466,1.551,1.551,0,0,0-.6,1.3,1.4,1.4,0,0,0,.65,1.173,7.493,7.493,0,0,0,2.145.914,9.865,9.865,0,0,1,2.4,1.011,3.816,3.816,0,0,1,1.327,1.3,3.388,3.388,0,0,1,.422,1.718A3.045,3.045,0,0,1,57.432-.769a5.318,5.318,0,0,1-3.327.945,6.251,6.251,0,0,1-2.553-.514,4.289,4.289,0,0,1-1.811-1.419A3.537,3.537,0,0,1,49.1-3.867h2.224A2.07,2.07,0,0,0,52.04-2.18a3.156,3.156,0,0,0,2.065.6,2.742,2.742,0,0,0,1.745-.47A1.517,1.517,0,0,0,56.435-3.3ZM64.591.176A4.419,4.419,0,0,1,61.3-1.1a4.639,4.639,0,0,1-1.261-3.406v-.264a5.706,5.706,0,0,1,.549-2.544A4.181,4.181,0,0,1,62.13-9.062a4.078,4.078,0,0,1,2.215-.624,3.733,3.733,0,0,1,3,1.239,5.24,5.24,0,0,1,1.059,3.507v.861H62.191a2.856,2.856,0,0,0,.787,1.863,2.362,2.362,0,0,0,1.736.686A2.892,2.892,0,0,0,67.1-2.716l1.151,1.1A3.845,3.845,0,0,1,66.731-.294,4.774,4.774,0,0,1,64.591.176Zm-.255-8.147a1.8,1.8,0,0,0-1.419.615,3.189,3.189,0,0,0-.69,1.714H66.3V-5.8a2.6,2.6,0,0,0-.571-1.622A1.785,1.785,0,0,0,64.336-7.972Zm10.705.413a5.285,5.285,0,0,0-.87-.07A1.959,1.959,0,0,0,72.193-6.5V0H70.058V-9.51H72.1l.053,1.063a2.406,2.406,0,0,1,2.145-1.239,2,2,0,0,1,.756.123ZM79.9-2.707l2.013-6.8H84.12L80.824,0H78.97L75.647-9.51h2.215ZM87.724,0H85.588V-9.51h2.136ZM85.456-11.979a1.133,1.133,0,0,1,.312-.817,1.179,1.179,0,0,1,.892-.325,1.193,1.193,0,0,1,.9.325,1.125,1.125,0,0,1,.316.817,1.1,1.1,0,0,1-.316.8,1.2,1.2,0,0,1-.9.321,1.188,1.188,0,0,1-.892-.321A1.107,1.107,0,0,1,85.456-11.979Zm8.5,10.45A1.931,1.931,0,0,0,95.282-2a1.591,1.591,0,0,0,.563-1.151h2.013A3.137,3.137,0,0,1,97.3-1.49,3.632,3.632,0,0,1,95.9-.272a4.191,4.191,0,0,1-1.916.448,4.055,4.055,0,0,1-3.164-1.292,5.124,5.124,0,0,1-1.169-3.568V-4.9a5.039,5.039,0,0,1,1.16-3.476,4.018,4.018,0,0,1,3.164-1.305,3.907,3.907,0,0,1,2.764.989,3.542,3.542,0,0,1,1.121,2.6H95.845a1.956,1.956,0,0,0-.558-1.345,1.8,1.8,0,0,0-1.332-.527,1.879,1.879,0,0,0-1.6.751,3.834,3.834,0,0,0-.571,2.281V-4.6a3.9,3.9,0,0,0,.558,2.307A1.878,1.878,0,0,0,93.955-1.529ZM101.742,0H99.606V-9.51h2.136ZM99.475-11.979a1.133,1.133,0,0,1,.312-.817,1.179,1.179,0,0,1,.892-.325,1.193,1.193,0,0,1,.9.325,1.125,1.125,0,0,1,.316.817,1.1,1.1,0,0,1-.316.8,1.2,1.2,0,0,1-.9.321,1.188,1.188,0,0,1-.892-.321A1.107,1.107,0,0,1,99.475-11.979Zm4.192,7.137a5.607,5.607,0,0,1,.554-2.518,4.044,4.044,0,0,1,1.556-1.723,4.383,4.383,0,0,1,2.3-.6A4.154,4.154,0,0,1,111.2-8.446a4.874,4.874,0,0,1,1.3,3.287l.009.5a5.658,5.658,0,0,1-.541,2.514,4,4,0,0,1-1.547,1.714A4.415,4.415,0,0,1,108.1.176a4.125,4.125,0,0,1-3.221-1.34,5.133,5.133,0,0,1-1.208-3.573Zm2.136.185a3.832,3.832,0,0,0,.606,2.3,1.971,1.971,0,0,0,1.688.831,1.95,1.95,0,0,0,1.683-.844,4.232,4.232,0,0,0,.6-2.47,3.782,3.782,0,0,0-.62-2.285,1.979,1.979,0,0,0-1.683-.844,1.96,1.96,0,0,0-1.661.831A4.152,4.152,0,0,0,105.8-4.658Zm13.843,2.074a.968.968,0,0,0-.47-.87,5,5,0,0,0-1.56-.527,8.02,8.02,0,0,1-1.819-.58A2.428,2.428,0,0,1,114.2-6.8a2.531,2.531,0,0,1,1.037-2.057,4.1,4.1,0,0,1,2.637-.826,4.266,4.266,0,0,1,2.755.844,2.677,2.677,0,0,1,1.05,2.188H119.54a1.316,1.316,0,0,0-.457-1.024,1.752,1.752,0,0,0-1.213-.409,1.893,1.893,0,0,0-1.147.325,1.025,1.025,0,0,0-.444.87.866.866,0,0,0,.413.765,5.68,5.68,0,0,0,1.67.549,7.9,7.9,0,0,1,1.973.659A2.794,2.794,0,0,1,121.4-4a2.342,2.342,0,0,1,.347,1.3A2.478,2.478,0,0,1,120.683-.62a4.535,4.535,0,0,1-2.786.8,4.917,4.917,0,0,1-2.083-.422,3.428,3.428,0,0,1-1.424-1.16A2.746,2.746,0,0,1,113.88-3h2.074a1.5,1.5,0,0,0,.571,1.165,2.22,2.22,0,0,0,1.4.409,2.16,2.16,0,0,0,1.283-.321A.993.993,0,0,0,119.646-2.584Z" transform="translate(966.961 10295.375)" fill="#12263f"/>
    <path id="Trazado_166290" data-name="Trazado 166290" d="M316.772,392.089l26-21.176V331.466l-26,18.271Z" transform="translate(814.869 9919.91)" fill="#118e68"/>
    <path id="Trazado_172813" data-name="Trazado 172813" d="M0,0H32V15H0Z" transform="translate(526 10083)" fill="#607b82"/>
    <path id="Trazado_172819" data-name="Trazado 172819" d="M0,0H32V15H0Z" transform="translate(775 10083)" fill="#607b82"/>
    <path id="Trazado_172833" data-name="Trazado 172833" d="M0,0H32V15H0Z" transform="translate(1020 10083)" fill="#607b82"/>
    <path id="Trazado_172823" data-name="Trazado 172823" d="M0,0H32V15H0Z" transform="translate(526 10236)" fill="#607b82"/>
    <path id="Trazado_172824" data-name="Trazado 172824" d="M0,0H32V15H0Z" transform="translate(775 10236)" fill="#607b82"/>
    <path id="Trazado_172834" data-name="Trazado 172834" d="M0,0H32V15H0Z" transform="translate(1020 10236)" fill="#607b82"/>
    <path id="Trazado_172817" data-name="Trazado 172817" d="M0,0H32V15H0Z" transform="translate(526 10133)" fill="#2b5f94"/>
    <path id="Trazado_172820" data-name="Trazado 172820" d="M0,0H32V15H0Z" transform="translate(775 10133)" fill="#2b5f94"/>
    <path id="Trazado_172835" data-name="Trazado 172835" d="M0,0H32V15H0Z" transform="translate(1020 10133)" fill="#2b5f94"/>
    <path id="Trazado_172821" data-name="Trazado 172821" d="M0,0H32V15H0Z" transform="translate(526 10199)" fill="#2b5f94"/>
    <path id="Trazado_172822" data-name="Trazado 172822" d="M0,0H32V15H0Z" transform="translate(775 10199)" fill="#2b5f94"/>
    <path id="Trazado_172836" data-name="Trazado 172836" d="M0,0H32V15H0Z" transform="translate(1020 10199)" fill="#2b5f94"/>
  </g>
</svg>
